<?xml version="1.0" encoding="utf-8"?>
<!-- Generator: Adobe Illustrator 26.0.2, SVG Export Plug-In . SVG Version: 6.00 Build 0)  -->
<svg version="1.1" id="Layer_1" xmlns="http://www.w3.org/2000/svg" xmlns:xlink="http://www.w3.org/1999/xlink" x="0px" y="0px"
	 viewBox="0 0 400 380" style="enable-background:new 0 0 400 380;" xml:space="preserve">
<style type="text/css">
	.st0{fill:#BB825F;}
	.st1{fill:#F6D488;}
	.st2{fill:#F0A923;}
	.st3{fill:#F18A7B;}
	.st4{fill:#4F837B;}
	.st5{fill:#EB6496;}
	.st6{fill:#9A5224;}
	.st7{fill:#C56E29;}
	.st8{fill:#EDCA73;}
	.st9{fill:#4F473A;}
	.st10{fill:#16695D;}
	.st11{fill:#BB7B47;}
	.st12{fill:#8C7A67;}
	.st13{fill:#1DB498;}
	.st14{fill:#351A13;}
	.st15{fill:#FAFBFA;}
</style>
<g>
	<g>
		<polyline class="st0" points="257.54,256.96 201.62,263.57 165.11,256.44 138.95,240.28 138.51,233.76 137.89,213.07 
			133.66,162.44 140.19,154.69 247.61,151.35 287.07,158.62 291.02,167.49 291.02,217.41 262.4,250.1 257.32,255.89 		"/>
		<polygon class="st1" points="303.35,158.75 298.36,132.13 250.73,116.05 184.02,112.98 132.28,121.22 126.37,128.78 
			121.34,138.08 120.46,153.54 124.68,155.69 184.97,151.48 223.18,151.48 278.25,155.91 		"/>
		<polygon class="st2" points="292.79,126.19 283.54,100.82 251.88,67.18 234.48,54.65 206.39,51.55 184.97,60.8 144.73,97.89 
			136.45,108.09 133.16,118.92 140.15,121.02 170.15,114.3 197.88,113.64 223.18,113.2 250.95,114.96 		"/>
		<ellipse class="st3" cx="77.5" cy="195.32" rx="33.97" ry="25.54"/>
		<path class="st1" d="M144.35,205.8c-9.11-3.65-6.14-30.52-2.45-31.27c1.38-0.28,1.72-0.5,5.94-2.6
			c14.09-7.01,30.39,7.83,46.8,2.17c18.43-1.39,41.72,5.19,57.88-5.02c3.15-1.45,10.32-2.38,11.98,2.31
			c-5.79-5.06-54.5,25.64-30.77,26.37c9.08-8.18,30.39-13.18,30.75-26.39c3.3,7.1,14.3,41.43,1.62,32.19
			c-22.89-12.55-23.11,30.14,0.35,20.31c10.94-1.27-14.32,25.62-22.73,28.92c-29.17,14.77-94.81,10.01-98.05-28.12
			C172.36,227.91,167.32,198.13,144.35,205.8z M213.65,211.62c-42.29-9.49-62.38,47.48-9.44,43.05
			C243.4,261.19,254.88,216.74,213.65,211.62z M182.28,188.45c-3.96-8.8-25.21-25.41-32.6-13.45
			C151.86,182,190.89,207.57,182.28,188.45z M170.57,209.19c2.21-2.16-0.73-4.46-3.07-3.89
			C160.03,205.34,166.48,212.39,170.57,209.19z M238.04,209.81c3.05,0.85,7.31-3.55,2.68-4.45
			C237.29,204.8,233.53,208.12,238.04,209.81z"/>
		<path class="st2" d="M187.52,96.43c5.26,4.74,12.24,2.81,14.1-4.02c1.51-5.5,1.23-10.92-2.3-15.69c-1.31-1.77-3.33-2.76-5.64-2.77
			c-1.86,0-3.07,1.13-3.27,2.83c-0.2,1.67,0.48,3.26,1.93,4.32c0.26,0.19,0.82,0.28,1.07,0.13c2.51-1.48,2.63,0.44,3.05,2.05
			c0.83,3.22,0.34,6.29-1.18,9.17c-1.07,2.02-2.32,2.08-3.88,0.36c-2.93-3.24-4.34-7.18-4.94-11.41c-0.24-1.68,0.68-3.19,1.38-4.7
			c0.54-1.16,1.19-2.44-0.12-3.5c-1.19-0.95-2.58-0.79-3.83-0.13c-3,1.59-3.31,4.42-3.2,8.63
			C181.23,86.53,182.79,92.17,187.52,96.43z"/>
		<path class="st2" d="M122.02,154.39c25.71-4.87,44.68-7.03,74.77-6.69c12.8,0.14,25.56-1.46,40.22-0.71
			c21.27,2.01,43.19,1.04,63.69,7.82c2.51-3.84-3.2-14.5-2.92-20.67c-14.24-9.23-2.92,10.56-13.84,9.05
			c-51.41-7.1-101.54-10.63-150.65-1.44c-2.68-7.56,3.5-9.45,0.11-14.14C122.02,128.13,120.03,148.53,122.02,154.39z"/>
		<path class="st4" d="M97.58,239.36c0.42-0.01,0.84-0.02,1.26-0.03c0.16-0.1,0.31-0.2,0.46-0.3c0.6-0.61,1.3-0.84,2.07-1.02
			c6.97-1.57,14-2.79,20.77-5.43c5.06-1.98,10.36-3.06,15.22-5.87c0.9-0.52,1.53-2.01,3.06-1.59c-1.08,1.59-2.35,2.31-3.59,3.18
			c-1.18,0.83-3.1,0.79-3.2,3.23c2.84-1.29,5.67-2.52,7.32-6.01c2.83-5.95,2.07-11.81-0.23-17.56c-0.81-2.03-2.14-3.77-3.31-5.57
			c-0.3-0.45-0.9-0.88-1.35-0.86c-0.75,0.03-1.76,1.28-1.81,1.85c-0.24,3-0.87,4.47-0.72,7.5c0.03,0.64-0.21,2.06,0,2.6
			c1.83,4.67-0.56,4.53-3.2,6.77c-3.81,3.22-6.21,1.75-10.47,3.33c-4.95-1.69-13.36-9.29-12.26-3.33c-3.63-3.31-5.56-0.87-9.46,1.59
			c-4.2,2.65-8.9,1.39-13.53,1.73c-19,1.43-35.88,1.75-54.48-3.62c-4.87-1.41-10.34-2.77-15.11-4.59c-3.56-1.35-3.96-1.89-8.33-5.19
			c-1.37,2-1.69,4.08-1.43,6.43c0.69,6.31,4.15,10.07,8.2,13.42c5.7,4.71,12.32,5.95,18.88,7.43c1.86,0.42,3.77,0.57,5.65,0.84
			c0.83-0.05,1.67-0.22,2.49-0.13c7.17,0.82,14.35,1.12,21.54,1.1c1.59-0.01,3.19,0.21,4.77,0.25c6.62,0.18,13.24,0.26,19.85-0.02
			C90.31,239.37,93.94,239.09,97.58,239.36z"/>
		<path class="st5" d="M79.09,220.12c-0.93-5.39-1.74-11.05-6.65-14.5c-0.54-0.38-0.85-0.89-0.38-1.68
			c1.31-2.17,2.24-4.68,3.84-6.54c7.65-8.87,18.14-12.34,29.52-9.19c6.56,1.82,11.98,5.21,14.93,12.11c1.22,2.84,1.18,5.6,0.36,8.48
			c-0.86,3.02-2.09,5.91-2.78,9c-0.86,3.85-1.61,4.26-4.77,2.11c-4.64-3.14-9.3-3.41-14.33-1.22c-5.2,2.27-10.35,4.85-16.05,4.23
			C80.23,223.7,79.55,222.74,79.09,220.12z"/>
		<path class="st3" d="M50.42,186.64c-1.31,2.59-0.76,5.5-1.26,8.23c-0.18,0.98,0.6,1.18,1.31,1.13c6.76-0.47,12.4,2.63,17.97,5.99
			c0.53,0.32,1.07,0.87,1.36-0.16c1.14-4.11,4.2-6.67,7.27-8.94c7.25-5.35,15.08-9.03,24.4-7.81c2.19,0.29,4.16,0.9,6.13,2.01
			c-2.05-3.26-4.34-6.2-6.96-8.86c-0.79,0.04-1.54,0.12-2.34,0.35c-3.48,1.02-6.61,0.12-9.39-2.23c-2.34,2.26-4.89,1.41-6.23-2.05
			c-0.84-0.18-0.24-1.75-1.27-1.57c-1.86,0.32-3.35-0.97-5.16-1.01c-5.5-0.14-9.8,2.01-12.99,6.62c-0.26,0.38-0.44,0.82-0.98,0.83
			c-1.96,3.26-4.74,5.59-8.08,7.12C53.08,186.79,51.77,187.65,50.42,186.64z"/>
		<path class="st6" d="M61.66,223.58c0.57-0.11,1.39-0.03,1.67-0.38c0.57-0.69-0.37-1.17-0.63-1.76c-2.89-6.69-7.29-12.65-9.44-19.7
			c-0.37-1.2-1.1-2-2.31-2.57c-1.7-0.8-3.32-1.77-5.13-2.37c-3.91-1.29-6.79-0.13-8.21,3.81c-1.71,4.75-4.82,8.38-8.38,11.78
			c-1.28,1.22-3.26,2.61-2.97,4.23c0.29,1.61,2.76,1.24,4.28,1.59c9.84,2.25,19.7,4.48,29.81,5.21c0.43,0.03,0.86,0,1.29,0
			C61.64,223.48,61.65,223.53,61.66,223.58z"/>
		<path class="st7" d="M205.13,23.59c-2.59,4.43-3.3,9.28-4.46,14.01c-0.98,3.99-1.58,8.04-2.64,12.01
			c-0.47,1.79,0.17,2.13,2.03,1.84c8.14-1.27,16.35-1.11,24.56-0.94c0.47,0.01,0.95,0,1.42,0.03c4.93,0.29,4.84,0.3,4-3.66
			c-1.94-9.04-4.49-17.95-7.92-26.69c-0.11-0.28-0.35-0.53-0.53-0.79c0.44,4.26,0.29,8.56,1.34,12.77c0.78,3.12-0.21,5.33-3.02,6.29
			c-3.6,1.24-9.48,0.15-10.55-2.36C207.64,32.03,206.51,27.77,205.13,23.59z"/>
		<path class="st2" d="M205.13,23.59c1.38,4.18,2.51,8.44,4.23,12.52c1.06,2.52,6.95,3.6,10.55,2.36c2.81-0.97,3.8-3.17,3.02-6.29
			c-1.05-4.21-0.9-8.51-1.34-12.77c-1.41-3.63-2.74-7.28-4.27-10.87c-0.55-1.29-1.29-2.68-3.46-2.65c-2.11,0.03-2.85,1.29-3.44,2.66
			C208.32,13.48,206.52,18.48,205.13,23.59z"/>
		<path class="st1" d="M122.39,273.8c3.08-2.71,5.52-6.2,8.03-9.69c2.11-2.95,1.84-8.75,0.43-8.79c-1.12-0.03-8.04,0.98-8.85-0.2
			c-1.02-1.49,1.6-2.12,1.57-3.85c-0.27,0-0.55,0.01-0.82,0.01c-4.24,4.07-8.47,8.13-14.18,8.29c-2.73,0.08-5.22-0.65-7.46-2.65
			c-1.36,0.66-0.43,1.75-0.13,2.39c3.66,7.82,8.98,12.8,16.15,14.46c0.16,0.13,0.31,0.26,0.47,0.39c0.24,0.27,0.48,0.53,0.71,0.8
			c0.26-0.03,0.53-0.06,0.79-0.09C120.03,273.78,121.21,273.82,122.39,273.8z"/>
		<path class="st0" d="M11.57,206.21c0.47,2.06,0.89,4.53,1.93,6.84c0.44,0.99,1.28,1.39,2.2,1.66c2.58,0.76,5.17,1.47,7.75,2.24
			c0.85,0.26,1.43,0.36,1.77-0.74c1.15-3.68,3.7-6.41,6.35-9.07c2.86-2.88,2.86-3.33,0.01-6.31c-1.14-1.19-2.49-2.34-2.98-3.9
			c-0.99-3.11-2.76-3.16-5.41-2.11c-2.74,1.09-5.47,2.08-8.01,3.66C12.36,200.26,11.7,202.83,11.57,206.21z"/>
		<path class="st2" d="M129.99,195.58c-4.4-10.3,4.81-27.4-2.03-34.64c-12.55-0.88-5.66,20.64-9.87,28.44
			C116.78,194.58,126.35,195.98,129.99,195.58z"/>
		<path class="st6" d="M230.57,374.55c-8.63-0.79-7.35,0.76-10-8.1c-0.9-5.19,13.54-3.72,17.05-4.12c4.86-0.04,7.85-5.76,7.75,3.05
			C245.96,373.5,236.26,374.67,230.57,374.55z M232.01,363.69c-1.78,0.04-2.58,1.03-2.72,2.8
			C230.49,375.3,238.12,363.83,232.01,363.69z"/>
		<path class="st7" d="M265,83.99c-1.56,4.18,17.79,18.68,5.34,15.08c3.62,12.51,4.9,15.03,17.67,18.58
			C282.91,104.63,275.87,92.68,265,83.99z"/>
		<path class="st7" d="M54.06,170.26c-3.36,0.58-6.65,1.47-9.92,2.49c-4.94,1.55-9.87,3.1-14.47,5.66c-1.29,0.72-2.25,1.6-2.06,3.19
			c0.22,1.83,1.43,3.16,2.64,4.32c0.54,0.52,1.32-0.28,1.9-0.63c5.28-3.22,10.9-4.5,16.93-3.3c1.35,0.27,2.16-0.57,2.97-1.4
			c2.14-2.19,4.24-4.43,6.37-6.63c0.99-1.03,0.97-1.76-0.3-2.61C56.84,170.49,55.4,170.75,54.06,170.26z"/>
		<path class="st7" d="M200.25,146.23c-0.17-0.39-2.12,0.58-0.78-1.07c-1.74-1.83-6.17-1.74-8.85-2.14
			c-9.32,0.43-44.64,1.44-36.73,5C155.36,148.68,183.61,147.48,200.25,146.23z"/>
		<g>
			<path class="st6" d="M277.6,281.57c-0.42,4.22,1.5,7.95,2.6,11.84c0.62,2.19,1.47,4.35,2.47,6.4c1.63,3.35,7.86,5.27,11.11,3.55
				c1.04-0.55,1.52-1.24,1.11-2.58c-2.06-6.79-3.08-13.77-3.61-20.83C286.83,281.42,282.18,281.25,277.6,281.57z"/>
			<path class="st8" d="M278.21,284.39c4.4-0.3,8.86-0.14,13.13-1.55c0.07-3.56-0.05-7.15,1.28-10.55c0.36-0.93-0.35-1.14-0.7-1.66
				c-2.29-3.37-5.23-3.71-8.98-2.59c-4.16,1.25-4.32,0.98-4.85,5.25C277.62,276.99,277.08,280.71,278.21,284.39z"/>
		</g>
		<path class="st6" d="M73.61,224.06c3.79-0.05,3.57,0,2.95-3.33c-2.29-12.45-10.85-18.32-21.68-21.94
			c-1.54-0.51-1.91-0.05-1.89,1.48c0.04,3.41,1.36,5.3,4.33,6.61c6.13,2.72,10.4,7.26,12.3,13.88C70.3,223.13,71.1,225,73.61,224.06
			z"/>
		<path class="st3" d="M146.23,220.29c-0.21,1.08-0.7,2.07-0.8,3.16c7.94,1.08,25.62-4.63,16.92-14.66
			c-4.57-4.45-9.67-5.85-16.34-5.29C141.71,203.86,148.62,213.32,146.23,220.29z"/>
		<g>
			<path class="st2" d="M287.84,223.11c-2.53,6.37-4.64,12.86-8.67,18.75c-1.06,1.54-2.12,3.08-3.3,4.78
				c4.1,1.01,8.61,1.51,10.01,5.77c5.06-2.32,10.17-2.57,15.25-0.08c0.89,0.44,1.12,0.09,1.41-0.57c2.41-5.5,3.89-11.02,3.81-17.02
				c-0.15-12.98-0.8-25.93-2.29-38.85c-0.12-1.07-0.37-2.08-0.98-3.02c-1.74-0.9-5.52-2.23-5.71-2.36l0.01-0.04
				c-0.66,0.37-0.58,0.96-0.68,1.52c-0.97,5.83-1,11.72-1.67,17.57c-0.73,6.39-2.06,12.66-3.74,18.88
				c-1.69-1.24-3.27-2.42-2.27-4.53C289.25,223.42,288.47,223.15,287.84,223.11z"/>
			<path class="st7" d="M287.84,223.11c0.64,0.04,1.42,0.31,1.18,0.81c-0.99,2.11,0.58,3.29,2.27,4.53c1.67-6.22,3-12.48,3.74-18.88
				c0.67-5.85,0.7-11.74,1.67-17.57c0.09-0.56,0.01-1.15,0.68-1.52c-0.27-1.09-0.67-2.17-0.79-3.28c-0.38-3.53-0.59-7.07-0.99-10.59
				c-0.57-5.04-1.29-10.08-1.84-15.12c-0.1-0.95-0.63-2.16,0.99-2.74c-3.1-0.04-4.21,0.83-3.83,3.05c0.3,1.72,0.65,3.43,0.99,5.14
				c0.33-0.69-0.24-1.52,0.78-2.43c-0.3,2.7,0.52,5.14-0.53,7.53c-0.1,0.75-0.07,1.49,0.34,2.18c0.24-0.36-0.21-0.97,0.76-1.18
				c0,1.42-0.16,2.8,0.03,4.16c1.17,8.62,0.29,17.25,0.49,25.88c0.01,0.45,0.57,1.52-1,1.05c-0.54,5.87-2.19,11.55-4.45,17.12
				C288.09,221.85,288,222.49,287.84,223.11z"/>
			<path class="st1" d="M294.03,158.75c-2.85,8.24,1.71,19.68,1.99,29.05c0.14,4.6,2.53,4.49,7.06,5.8
				C300.09,185.39,304.7,157.55,294.03,158.75z"/>
		</g>
		<path class="st3" d="M35,201.46c2.02-3.88,5.18-5.89,9.39-6.16c1.44-0.09,1.67-0.75,1.6-2c-0.17-2.92-0.24-5.84-0.33-8.76
			c-0.03-0.79-0.01-1.69-1.16-1.37c-4.62,1.31-9.21,2.79-12.64,6.37c-2.18,2.27-2.31,5.32-0.63,8.01
			C32.13,199,33.27,200.26,35,201.46z"/>
		<path class="st7" d="M245.07,110.9c-2.44,0.19-4.8,1.08-7.28,0.97c17.48,1.43,34.51,5.17,51.39,9.34
			c-4.62-4.82-14.98-3.9-18.28-7.55C262.17,113.47,253.79,110.57,245.07,110.9z"/>
		<path class="st9" d="M95.36,234.92c-16.17,0.3-32.37,0.11-48.52-0.54c-0.56-0.02-0.64,0.8-0.08,0.88
			c15.98,2.27,34.84,3.73,48.68,0.22C95.76,235.39,95.69,234.91,95.36,234.92z"/>
		<path class="st10" d="M134,228.5c0.12-0.05,0.21-0.15,0.25-0.28c0.98-2.98,4.93-2.25,6.65-5.07
			c-12.05,5.59-25.72,7.74-38.66,10.93c-0.47,0.12-0.43,0.81,0.05,0.88C112.4,236.32,124.41,232.12,134,228.5z"/>
		<path class="st6" d="M124.2,192.57c-0.97,4.95-0.99-4.18-1.32,0.38c2.42-3.41,4.07,2.94,7.34-0.38c1.27,1.88,0.09,6.12-0.14,8.47
			c-0.1,0.99-0.25,2.17,1.21,2.39c-0.58,12.14-0.12,16.36-12.81,18.65c3.53-9.02,1.02-28.9,1.75-28.35
			C121.2,193.21,123.09,193.53,124.2,192.57z"/>
		<path class="st6" d="M122.68,246.15c-6.58,2.54-13.36,3.58-20.15,4.59c-2.27,0.34-2.85,1.16-1.82,3.22
			c3.23,6.51,4.06,6.83,11.14,3.65c3.71-1.67,7.27-3.48,9.52-6.88C122.27,249.35,122.93,247.97,122.68,246.15z"/>
		<path class="st6" d="M146.77,102.49c1.46-2.47,3.93-3.81,6.14-5.43c1.97-1.45,3.47-3.25,4.63-5.38c1.02-1.87,1.28-3.79,0.63-5.83
			c-3.46,3.08-6.8,6.23-9.38,10.17c-1.34,2.05-2.88,3.98-4.06,6.15C145.41,102.27,146.09,102.38,146.77,102.49z"/>
		<path class="st7" d="M151.2,362.8c-3.64-1.8-5.71-0.31-5.34,3.72c-0.17,2.2,0.56,3.36,2.73,3.5c2.12,0.13,4.68,0.46,4.68-2.56
			C153.26,365.23,152.73,363.34,151.2,362.8z"/>
		<path class="st1" d="M311.44,271.33c1.8-0.21,4.05,0.19,5.05-2.94c0.51-1.58,0.53-2.87-1.34-2.38c-5.07,1.32-9.76-0.07-14.19-3.26
			c-0.29-0.21-0.53-0.69-0.82-0.22c-0.19,0.3-0.27,0.81-0.25,1.22c0.06,1.2,0.73,1.97,1.38,2.67
			C304.15,269.47,307.39,271.33,311.44,271.33z"/>
		<path class="st7" d="M146.77,102.49c-0.68-0.11-1.36-0.22-2.04-0.33c-1.48,1.81-2.48,3.93-3.51,5.99
			c-1.44,2.89-3.31,5.52-4.78,8.38c0.3,0.6,0.9,0.39,1.38,0.53c0,0,0.01,0.05,0.01,0.05C143.17,113.67,144.14,107.57,146.77,102.49z
			"/>
		<path class="st6" d="M68.12,222.99c-1.74-4.25-3.83-8.11-7.2-11.12c-0.44-0.39-0.86-1.2-1.56-0.6c-0.5,0.43-0.04,1.05,0.21,1.51
			c1.61,2.9,3.2,5.81,4.88,8.67C65.18,222.71,66.23,223.6,68.12,222.99z"/>
		<path class="st8" d="M122.99,254.16c0.03,1.73-2.6,2.36-1.57,3.85c0.81,1.18,1.64-1.72,2.76-1.69c1.41,0.04,3.04-0.8,4.14,1.31
			c0.33,0.62,0.84,1.91,1.71,1.26c0.75-0.56-0.09-1.47-0.11-2.24c-0.01-0.5-0.26-0.99,0.21-1.34c-1.18-1.14-2.41-2.19-3.51-3.43
			c-1.42-1.59-2.46-1.37-3.25,0.79c0.06,0.1,0.11,0.2,0.16,0.3c0.68,0.98,0.12,1.1-0.51,1.17L122.99,254.16z"/>
		<g>
			<path class="st2" d="M302.1,309.12c-1.75,2.62-3,5.68-6.78,6.15c-2.54,0.31-4.72-0.02-6.53-1.93c-0.41-0.42-0.84-1.21-1.13,0.08
				c1.5,0.99,1.13,2.18,0.47,3.51c-1.58,3.21-3.36,6.35-4.06,9.92c-0.32,1.66-0.4,3.54,1.75,3.85c2.63,0.37,5.43,0.55,7.66-1.36
				c2.54-2.17,4.94-4.53,7.39-6.8c1.43-3.96,2.37-8.05,3.21-12.17C303.76,309.41,302.47,310,302.1,309.12z"/>
			<path class="st7" d="M301.11,311.62c0.36,0.8,1.58,0.26,1.9,1.13c0.25-1.37,1.67-2.11,1.77-3.69c0.35-5.58,1-11.15,1.46-16.72
				c0.1-1.18,0.36-2.46-0.46-3.57c-2.23-0.44-4.48-0.83-6.69-1.33c-2.82-0.64-3.54-0.13-2.81,2.6c1.2,4.47,2.47,8.94,4.04,13.3
				C301.31,306.1,301.89,308.76,301.11,311.62z"/>
			<path class="st7" d="M300.88,322.53c-2.46,2.27-4.85,4.63-7.39,6.8c-2.23,1.91-5.03,1.74-7.66,1.36
				c-2.15-0.31-2.07-2.18-1.75-3.85c0.69-3.57,2.48-6.71,4.06-9.92c0.65-1.33,1.03-2.52-0.47-3.51c-2.15,3.59-4.36,7.14-6.44,10.76
				c-3.01,5.26-0.25,10.21,5.77,10.94c4.19,0.51,7.28-0.94,9.65-4.27c1.7-2.4,3.52-4.74,4.46-7.6
				C301.02,323.02,300.95,322.77,300.88,322.53z"/>
			<path class="st6" d="M299.95,323.38c0.07,0.23,0.14,0.45,0.21,0.68c1.7-0.91,2.29-2.59,2.93-4.2c3.38-8.43,4.56-17.29,5.24-26.25
				c0.09-1.17,0.36-2.32,0.45-3.48c0.23-3.02,0.2-3.03-3-2.88c0.81,1.14,0.55,2.46,0.46,3.68c-0.45,5.76-1.1,11.5-1.46,17.27
				c-0.1,1.63-1.52,2.4-1.77,3.81C302.21,315.86,301.31,319.68,299.95,323.38z"/>
			<path class="st6" d="M296.15,305.07c-2.43,0.75-4.71,1.41-6.95,2.18c-0.99,0.34-0.87,1.23-0.41,1.83
				c0.78,1.03,1.74,1.94,2.65,2.86c0.34,0.34,0.87,0.6,1.26,0.16c1.65-1.86,3.69-3.48,4.26-6.03
				C297.1,305.39,296.67,305.09,296.15,305.07z"/>
		</g>
		<path class="st0" d="M92.85,252.85c1.86,4.47,3.33,9.25,6.26,12.9c2.35,4.15,5.09,7.8,8.54,10.55c1.59-0.9,3.41,1.15,4.92-0.62
			h1.05c0.48-1.31,1.34-1.47,2.27-1c0.8,0.39,1.59,0.43,2.41,0.28c-0.24-0.26-0.47-0.53-0.72-0.79c-0.15-0.14-0.31-0.26-0.46-0.39
			c-7.18-1.67-12.49-6.65-16.15-14.46c-0.31-0.65-1.23-1.73,0.13-2.39c-1.88-0.9-1.55-3.26-1.81-5.34c-0.4-3.15-2.2-3.97-4.82-2.96
			C91.59,249.76,91.45,249.52,92.85,252.85z"/>
		<path class="st8" d="M112.89,274.1c-1.38,1.28-3.03-0.2-4.47,0.45c4.58,2.96,8.08,2.49,13.38-1.81c-1.07,0.02-2.14-0.01-3,0.78
			c-1.5,1.49-3.25,0.84-4.96,0.58C113.52,274.1,113.21,274.1,112.89,274.1z"/>
		<path class="st11" d="M292.78,204.13c1.56,0.47,1.01-0.6,1-1.05c-0.2-8.63,0.67-17.26-0.49-25.88c-0.18-1.35-0.03-2.73-0.03-4.16
			c-0.97,0.21-0.51,0.82-0.76,1.18c0,7.65,0.96,15.27,0.61,22.92C293,199.47,292.89,201.8,292.78,204.13z"/>
		<g>
			<path class="st7" d="M63.84,258.47c-1.38,6.29-1.12,12.69-1.8,19.02c-0.32,2.96-0.44,5.95-1.58,8.82
				c-0.2,0.5-0.92,1.17-0.03,1.47c1.43,0.48,2.81,1.36,4.43,1.16c1.25-0.15,0.79-1.15,0.78-1.81c-0.08-6.93-0.19-13.86,0.4-20.79
				c0.43-4.98,1-9.94,1.64-14.9c0.14-1.05,1.52-2.91-1.52-3.06c-0.64,1.03-1.39,1.97-1.25,3.26c0.18,1.65,0.07,3.32,0.02,4.98
				C64.91,257.34,65.32,258.3,63.84,258.47z"/>
			<path class="st11" d="M62.09,259.07c4.15-0.19,3-1.27,3.06-2.09c0.14-1.87,0.45-3.76-0.05-5.62c-0.39-1.46,1.7-2.52,3.49-3.68
				c-0.88-0.74-1.67-1.57-3.98-1.9c-0.78-0.11-1.17,0.47-1.15,0.83c-0.25,2.17,1.53,4.38-1.06,6.51
				C62.3,255.1,62.2,257.09,62.09,259.07z"/>
		</g>
		<g>
			<path class="st12" d="M385.51,107.12c-24.93-8.81-67.28,54.47-40.3,71.85C372.36,196.45,418.56,118.8,385.51,107.12z"/>
			<path class="st9" d="M382.43,106.31c5.21,6.19,10.7,10.34,10.24,19.59c-1.67,18.03-11.52,37.37-27.32,47.08
				c-9.91,5.28-28.25,4.66-28.78-10.15c-4.82-0.17,1.85,16.62,1.9,20.01c0.05,3.9-3.56,10.64-3.56,10.64l7.05,3.2
				c12.33-12.62,25.45-1.27,43.13-30.25C394.22,154.01,409.57,104.95,382.43,106.31z"/>
			<path class="st6" d="M343.3,195.27c-8.14-6.11-7.45-3.88-10.27,0.88c-2.33,3.94-17.48,22.41-0.83,18.73
				C339.19,213.34,338.03,200.88,343.3,195.27z"/>
			<path class="st0" d="M329.14,215.28c-4.01-3.1,5.59-14.92,7.4-17.94c1.83-3.06,2.15-5.04,4.45-4.34
				c-3.6-1.97-3.69,0.14-5.82,3.72C333.21,200.01,322.03,213.69,329.14,215.28z"/>
			<path class="st9" d="M320.71,227.74c2.5,4.93,19.24,1.49,13.71-6.83c-1.61-2.43-8.42-5.64-12.42-0.16
				C320.51,222.8,319.66,225.66,320.71,227.74z"/>
			<path class="st11" d="M324.24,223.25c1.27-1.51,0.45-2.08-0.17-2.55c-2.57-1.93-4.16,4.74-3.87,6c0.26,1.12,0.6,1.79,1.76,1.88
				C322.57,226.74,322.85,224.76,324.24,223.25z"/>
		</g>
		<path class="st11" d="M242.41,63.66c0.06,1.24,1.86,2.62-0.37,3.72c-0.38,0.19,0.51,0.51,0.57,0.92c0.13-0.08,0.28-0.13,0.39-0.23
			C245.5,65.76,245.46,65.49,242.41,63.66z"/>
		<g>
			<path class="st8" d="M297.69,263.6c1.01-0.54,0.79-1.53,0.85-2.4c0.18-2.55,0.59-5.03,2.17-7.14c0.98-1.32,0.77-2.05-0.91-2.24
				c-1.7-0.2-3.4-0.46-5.11-0.61c-2.1-0.19-3.68,0.6-4.45,2.67c0.16,3.19-0.3,6.46,1.04,9.52
				C293.42,263.47,295.55,263.54,297.69,263.6z"/>
			<path class="st11" d="M297.69,263.6c-2.14-0.06-4.27-0.13-6.41-0.19c-0.16,0.06-0.31,0.13-0.47,0.19
				c0.04,0.08,0.07,0.16,0.12,0.24c0.71,1.29,0.28,3.56,1.91,3.85c1.36,0.24,1.94-1.79,2.89-2.79
				C296.25,264.34,297.03,264.03,297.69,263.6z"/>
			<path class="st1" d="M290.82,263.6c0.15-0.06,0.31-0.13,0.47-0.19c-1.35-3.06-0.88-6.33-1.04-9.52
				C288.98,257.21,288.82,260.47,290.82,263.6z"/>
		</g>
		<path class="st8" d="M197.88,110.99c-3.52-0.2-7.06-0.77-10.55,0.22C190.85,111.14,194.36,111.06,197.88,110.99z"/>
		<path class="st6" d="M129.27,196.67c-0.01,3.19-0.01,6.38-0.02,9.56C129.94,203.05,129.87,199.86,129.27,196.67z"/>
		<path class="st11" d="M292.16,172.04c1.04-2.39,0.22-4.82,0.53-7.53c-1.01,0.9-0.45,1.74-0.78,2.43
			C291.99,168.64,292.08,170.34,292.16,172.04z"/>
		<path class="st7" d="M64.15,255.54c0.71-1.76,0.22-3.59,0.29-5.39C63.84,251.92,64.18,253.74,64.15,255.54z"/>
		<path class="st2" d="M137.83,117.06c-0.48-0.14-1.08,0.07-1.38-0.53c-0.28,0.39-0.55,0.78-0.94,1.33
			C136.51,117.78,137.28,117.73,137.83,117.06z"/>
		<path class="st8" d="M122.12,256.46c0.25,0,0.5-0.01,0.75-0.01c0,0,0.01-0.01,0.01-0.01c0.16-0.28,0.31-0.57,0.47-0.85
			c-0.05-0.07-0.09-0.15-0.14-0.22C122.71,255.61,122.31,255.92,122.12,256.46z"/>
		<path class="st11" d="M243.32,69.46c0.13,0.41,0.44,0.5,0.82,0.47C243.96,69.6,243.68,69.46,243.32,69.46z"/>
		<path class="st0" d="M286.73,180.51c0.02,0.1,0.02,0.2,0.01,0.3c0,0,0.13-0.16,0.13-0.16L286.73,180.51z"/>
		<path class="st10" d="M275.87,292.18c-0.26,0.16-0.31,0.32-0.02,0.5C275.85,292.52,275.86,292.35,275.87,292.18z"/>
		<path class="st2" d="M285.32,128.78c0.11,0.39,0.31,0.46,0.61,0.17C285.72,128.89,285.52,128.84,285.32,128.78z"/>
		<g>
			<path class="st10" d="M126.58,275.11c-2.17,1.61-6.97,1.4-9.14,3.01c-1.99-0.51-0.25,1.99-1.12,1.83
				c-4.55-0.81-3.15,2.47-2.47,3.75c4.09,3.1,12.16,7.3,16.97,8.98c4.34,1.51,7.52,1.71,13.45,1.65c1.49,0.36,1.75-1.04,1.97-1.96
				c0.76-3.21,3.19-5.64,4.51-8.67c1.66-3.83,1.85-8.36,3.63-12.13c0.86-1.83,1.85-3.59,2.74-5.41c0.45-0.92-0.1-2.72-0.72-2.98
				c-2.42-0.99-4.98-0.94-7.59-1.31c-2.2-0.31-3.04,0.7-3.33,3.84c-0.18,2.01-0.2,4.03-0.96,5.94c0.37,0.04,0.74,0.09,1.11,0.11
				c2.5,0.11,2.81,0.45,2.11,2.77c-0.69,2.29-1.44,4.58-2.33,6.81c-0.71,1.78-1.92,2.74-4.1,2.83c-5.91,0.24-10.48-2.38-14.76-6.05
				C125.13,276.92,126.16,276.11,126.58,275.11z"/>
			<path class="st13" d="M125.5,273.78c-0.49,1.24-1.69,2.25-0.02,3.76c5.02,4.55,10.39,7.82,17.33,7.51
				c2.57-0.11,3.99-1.31,4.82-3.51c1.04-2.77,1.92-5.61,2.73-8.46c0.83-2.88,0.46-3.31-2.48-3.45c-0.44-0.02-0.87-0.09-1.31-0.14
				c-2.06-0.47-2.22-2.36-2.6-4.03c-0.27-1.17-0.37-2.39-0.54-3.58c-1.8-0.37-3.65-0.59-5.39-1.18c-1.09-0.36-3.8-1.63-4.81-1.11
				c-2.01,4.95-3.36,10.12-7.24,13.54c-0.16,0.19-0.31,0.37-0.47,0.56L125.5,273.78z"/>
			<path class="st10" d="M126.6,275.06c0.13-0.15,0.27-0.3,0.4-0.45C126.72,274.63,126.57,274.77,126.6,275.06z"/>
		</g>
		<path class="st0" d="M242.62,256.47c-0.23,0.12-0.47,0.24-0.7,0.36C242.23,256.85,242.49,256.79,242.62,256.47z"/>
		<path class="st0" d="M178.54,256.89c-0.2-0.09-0.39-0.17-0.59-0.26C178.15,256.72,178.34,256.81,178.54,256.89z"/>
		<path class="st11" d="M147.33,158.82c0.15,0.18,0.29,0.16,0.41-0.04C147.6,158.73,147.46,158.74,147.33,158.82z"/>
		<path class="st0" d="M286.83,214.51c-0.04,0.1-0.07,0.2-0.1,0.3c0,0,0.14-0.13,0.14-0.13L286.83,214.51z"/>
		<path class="st14" d="M198.78,254.64c-6.09-0.44-12.18-0.89-17.81-3.64c-7-3.43-11.01-11.24-9.11-18.6
			c2.07-8.04,7.01-14.16,14.25-18.04c8.62-4.62,18.04-4.91,27.54-3.83c4.61,0.53,9.24,1.31,13.28,3.67
			c6.26,3.66,10.66,9.02,12.86,16c0.81,2.56,1.35,5.34,0.54,7.91c-2.39,7.58-7.93,11.99-15.31,14.32
			c-6.78,2.14-13.81,2.09-20.81,2.22C202.39,254.66,200.58,254.77,198.78,254.64z M212.96,216.77c-5.69-0.82-11.4-0.81-17.11-0.08
			c-1.73,0.22-3.37,0.74-4.96,1.43c-1.47,0.28-2.39,1.5-3.66,2.13c-0.47,0.24-0.86,0.64,0.05,0.97c4.57,1.65,9.08,3.48,13.75,4.85
			c5.15,1.51,10.16,0.77,15.13-0.7c2.42-0.71,4.85-1.41,7.13-2.55c1.29-0.65,2.2-1.6,3.44-2.8c-1.94-0.35-3.32-1.59-5.15-1.13
			C219.01,216.95,215.89,217.19,212.96,216.77z M187.3,248.06c5.74,2.86,26.23,2.8,35.59-0.16
			C216.77,238.49,191.51,237.3,187.3,248.06z"/>
		<path class="st14" d="M264.49,172.2c-3.1-2.33-5.82-1.17-8.68,0.69c-8.86,5.75-17.82,11.35-26.73,17.03
			c-2.23,1.42-2.83,3.55-1.74,5.83c1.16,2.42,3.79,3.56,6.37,2.82c2.5-0.72,4.22-2.66,6.32-4.01c5.44-3.51,10.86-7.03,16.19-10.7
			c1.46-1.01,2.88-2.1,4.36-3.1c3.06-2.07,5.51-4.39,3.9-8.58C264.47,172.18,264.49,172.2,264.49,172.2z"/>
		<path class="st14" d="M149.03,176.56c-0.18,2.31,1.72,3.55,3.35,4.69c6.84,4.79,13.7,9.57,20.54,14.36
			c1.05,0.73,2.05,1.53,3.08,2.3c2.66,1.98,5.58,1.67,7.35-0.78c1.77-2.45,1.1-5.21-1.71-7.12c-7.84-5.34-15.67-10.7-23.52-16.02
			c-2.86-1.94-5.14-1.91-7.51-0.33C149.46,174.43,149.11,175.51,149.03,176.56z"/>
		<path class="st3" d="M247.74,216.77c7.91,8.3,21.58-1.11,17.73-10.59C255.92,196.78,240.58,200.68,247.74,216.77z"/>
		<path class="st3" d="M167.57,204.84c-0.75,0.01-1.49-0.06-2.21,0.27c-1.46,0.67-1.76,2.09-0.64,3.26
			c1.13,1.18,4.66,1.39,5.92,0.36c1.16-0.95,0.92-2.86-0.42-3.55C169.37,204.74,168.46,204.88,167.57,204.84z"/>
		<path class="st3" d="M239.82,205.22c-1.04,0.14-1.86,0.29-2.68,0.34c-1.06,0.06-2.04,0.22-2,1.57c0.04,1.3,0.44,2.39,1.99,2.54
			c1.24,0.11,2.43-0.14,3.46-0.78c0.83-0.52,1.62-1.24,1.22-2.41C241.46,205.44,240.46,205.43,239.82,205.22z"/>
		<path class="st6" d="M203.29,95.69c-3.19-3.1-5.88-6.44-5.55-11.27c1.59-7.77,10.28-12.06,17.8-8.88c3.85,1.63,8.06,6.4,7.6,10.91
			c-0.37,3.64-2.53,6.14-5.11,8.42C213.27,97.7,208.39,98.67,203.29,95.69z M202.74,86c0.03,3.49,3.18,6.2,7.22,6.22
			c4.5,0.02,7.38-2.57,7.4-6.65c0.01-3.64-3.13-6.52-7.14-6.55C205.94,78.99,202.71,82,202.74,86z"/>
		<path class="st0" d="M275.4,236.98c0.06-0.03,0.12-0.07,0.19-0.1C275.53,236.91,275.47,236.95,275.4,236.98
			C275.41,236.98,275.4,236.98,275.4,236.98z"/>
		<path class="st2" d="M251.88,91.67c-1.15-1.63-2.36-3.2-3.94-4.44c-1.11-0.87-2.35-1.47-3.68-0.63c-1.37,0.87-1.66,2.19-0.95,3.68
			c1.29,1.36,2.75,2.51,4.59,2.98C249.56,93.69,251.19,93.8,251.88,91.67z"/>
		<path class="st2" d="M215.65,98.47c0.33-0.05,0.66-0.11,0.99-0.16c-0.04-0.06-0.07-0.15-0.12-0.17c-0.37-0.12-0.67-0.03-0.86,0.34
			C215.66,98.48,215.65,98.47,215.65,98.47z"/>
		<path class="st0" d="M113.84,274.1c1.71,0.26,3.46,0.9,4.96-0.58c-0.24,0.02-0.48,0.04-0.72,0.06c-0.74,0.11-1.46,0.08-2.19-0.21
			C115.05,273.04,114.27,273.15,113.84,274.1z"/>
		<path class="st8" d="M117.01,272.72c0.14,0.09,0.28,0.19,0.42,0.28C117.3,272.91,117.15,272.82,117.01,272.72z"/>
		<path class="st7" d="M229.29,366.49c1.21,8.81,8.83-2.66,2.72-2.8C230.23,363.73,229.43,364.72,229.29,366.49z"/>
		<path class="st0" d="M142.79,239.7c1.39-1.42,0.77-3.06,0.54-4.66C142.54,236.52,142.89,238.13,142.79,239.7L142.79,239.7z"/>
		<path class="st1" d="M123.34,255.59c-0.16,0.28-0.31,0.57-0.47,0.85C123.45,256.38,123.96,256.3,123.34,255.59z"/>
		<path class="st5" d="M222.89,247.9c-6.12-9.41-31.38-10.6-35.59,0.16C193.04,250.92,213.53,250.86,222.89,247.9z"/>
		<path class="st15" d="M221.58,218.29c-2.57-1.94-5.69-1.7-8.62-2.12c-5.69-0.82-11.4-0.81-17.11-0.08
			c-1.73,0.22-3.37,0.74-4.96,1.43c2.24,4.37,6.19,6.37,10.71,7.13c5.53,0.94,10.92,0.09,16.14-2.07
			C219.82,221.72,221.14,220.48,221.58,218.29z"/>
		<path class="st1" d="M210.22,79.02c-4.28-0.03-7.52,2.98-7.48,6.98c0.03,3.49,3.18,6.2,7.22,6.22c4.5,0.02,7.38-2.57,7.4-6.65
			C217.38,81.93,214.24,79.05,210.22,79.02z"/>
		<g>
			<path class="st11" d="M169.79,270.12c0.05,0.03,0.11,0.06,0.16,0.09C169.9,270.18,169.84,270.14,169.79,270.12
				C169.78,270.11,169.79,270.12,169.79,270.12z"/>
			<g>
				<path class="st13" d="M276.61,281.7c-0.39-4.88-0.4-9.73,1.12-14.41c0.48-1.48-0.42-1.2-1.14-1.22
					c-4.41-0.12-8.8-0.36-13.2-0.83c-3.67-0.39-7.18-1.5-10.75-2.4c-1.69,0.25-3.39,0.09-5.11,0.42
					c-6.44,1.23-12.66,3.43-18.99,5.17c-12.4,3.4-25.17,4.73-37.55,8.29c1.19,2.27,2.46,4.5,3.56,6.83c2.01,4.24-3,5.23-6.18,8.43
					c-2.18,2.19-7.2,3.17-9.36,0.71c-0.43-0.49,5.29,2.56,4.41,3.23c-1.25,0.94-9.89,11.05-10.76,12.98
					c3.59,0.52,7.1,1.14,10.63,1.51c13.12,1.38,26.23,0.83,39.33-0.46c0.38-0.04,0.74-0.28,1.12-0.43c-0.37-0.52-0.9-0.79-0.57-1.8
					c1.09-3.34,1.99-6.71,2.19-10.35c0.1-1.82-0.21-3.92,0.91-5.6c1.87-5.13,4.07-9.97,8.57-12.9c3.02-1.96,6.29-3.06,9.67-3.65
					c2.99-0.53,5.94,0.02,8.25,2.42c3.4,3.53,7.26,5.47,11.92,5.32c2.7-0.08,5.4-0.09,8.09-0.01
					C274.19,282.97,275.48,282.73,276.61,281.7z"/>
				<path class="st4" d="M276.61,281.7c-1.13,1.03-2.42,1.26-3.85,1.22c-2.7-0.08-5.4-0.07-8.09,0.01
					c-4.66,0.14-8.52-1.79-11.92-5.32c-2.31-2.4-5.26-2.95-8.25-2.42c-3.38,0.6-6.66,1.69-9.67,3.65c-4.51,2.93-6.7,7.77-8.57,12.9
					c4.07-2.17,8.36-3.05,12.85-3.58c6.12-0.72,11.81,0.2,17.21,3.36c4.09,2.39,7.93,5.49,12.66,6c3.22,0.35,6.51,1.02,9.72-0.3
					c-0.02-0.35-0.04-0.7-0.06-1.05c-0.31-0.22-0.26-0.43,0.03-0.62C278.46,290.85,277.1,286.36,276.61,281.7z"/>
				<path class="st9" d="M171.41,272.18c20.6-0.58,41.42-3.6,61.88-3.68c-7.72-9.83-18.61-3.91-27.87-5.18
					c-9.68,2.1-21.16-1.1-31.87-1.25c-6.22-1.19-21.52-9.41-15.97,4.72C165.25,260.71,168.45,263.16,171.41,272.18z"/>
				<path class="st10" d="M175.69,280.52c25.31-4.39,52.08-11.54,77.33-15.41c-11.83-8.23-25.66-0.07-37.39,0.41
					c-11.47,3.85-26.39,2.84-39.65,4.67c-7.96-0.02-28.77-5.26-18.62,7.6C165.41,270.38,169.93,272.2,175.69,280.52z"/>
				<path class="st10" d="M174.27,257.43c-4.38,0.24-1.34-0.4-5.55-0.79c-1.25-0.12-1.81-0.18-2.4,0.77
					c-5.85,9.3-14.21,18.18-15.57,28.22c-0.5,3.67-1.28,7.55-2.63,11.24c-1.48,4.05-1.35,4.37,3.74,5.91
					c4.84,1.46,10.09,1.85,15.67,1.12c3.98-0.53,5.47-2.24,3.27-4.24c-2.88-2.63-4.57-5.14-1.69-8.76c0.82-1.03-0.66-1.47-2.1-1.63
					c-7.52-3.58-9.39-4.58-5.88-9.62c3.08-4.44,4.91-9.14,8.16-13.6c2.98-4.09,6.33-4.9,5.47-4.2c0.93-0.34,0.71-2.39-0.87-2.68
					C173.11,259.01,174.43,257.97,174.27,257.43z"/>
				<path class="st10" d="M278.7,297.23c-3.21,1.32-6.49,0.65-9.72,0.3c-4.73-0.51-8.57-3.61-12.66-6
					c-5.39-3.16-11.09-4.08-17.21-3.36c-4.5,0.53-8.78,1.41-12.85,3.58c-1.11,1.68-0.81,3.78-0.91,5.6
					c-0.2,3.65-1.1,7.02-2.19,10.35c-0.33,1.02,0.2,1.28,0.57,1.8c2.94,0.11,3.36-2.48,3.79-4.78c0.5-2.71,1.35-5.31,2.52-7.63
					c1.74-3.43,5.06-4.01,8.15-3.62c4.09,0.52,8.16,0.34,12.23,0.45c3.04,0.09,5.74,0.91,8.11,3.2c1.78,1.72,4.07,2.1,6.32,2.62
					c3.67,0.84,7.31,1.84,11.07,1.91C279.96,301.73,280.01,301.59,278.7,297.23z"/>
				<path class="st2" d="M168.47,277.35c0.06,0.75-0.28,1.37-0.62,2c-0.39,0.72-0.87,1.46,0.53,1.69c1.26,0.21,1.38,1.5,1.98,2.33
					c0.61,0.85,1.11,2.05,2.42,1.61c1.13-0.38,1.98-1.29,2-2.58c0.02-1.77,0.07-3.57-0.22-5.3c-0.26-1.57-0.07-2.86,1.15-3.83
					c1.17-0.93,0.89-1.72,0.07-2.65c-3.66-4.1-4.84-3.54-6.43-0.68c0.07,0.04,0.13,0.08,0.2,0.12c-0.06-0.04-0.12-0.07-0.19-0.11
					c-0.15,0-0.26,0.08-0.31,0.22C168.42,272.53,168,274.9,168.47,277.35z"/>
				<path class="st11" d="M168.3,277.06c-0.19-2.53,0.51-4.88,1.43-7.19C166.44,272.49,166.29,273.25,168.3,277.06z"/>
				<path class="st9" d="M178.98,276.34c-0.2,0.07-0.39,0.13-0.59,0.2c0.04,0.06,0.11,0.17,0.12,0.16c0.17-0.1,0.34-0.21,0.5-0.32
					C179.01,276.38,178.98,276.34,178.98,276.34z"/>
				<path class="st6" d="M163.56,293.75c0.34,5.8,4.47,6.69,7.75,5.13c3.29-1.56,3.93-7.08,1.44-12.33
					c-2.49-5.25-7.18-8.25-10.46-6.69C159,281.41,163.23,288.17,163.56,293.75z"/>
			</g>
		</g>
		<g>
			<path class="st1" d="M321.13,265.09c-1.12-0.05-1.66,0.58-1.8,1.6c-0.87,6.48-5.89,7.4-10.76,6.83c-2.54-0.3-5.01-0.95-7.15-2.5
				c-0.41-0.3-0.87-0.63-1.45-0.44c-0.41,3.98,0.76,5.9,4.27,7.36c3.65,1.52,7.15,1.47,10.53-0.69c1.42-0.61,2.3-1.71,3.14-2.98
				C319.78,271.47,320.61,268.35,321.13,265.09z"/>
			<path class="st11" d="M319.74,263.79c-0.65,4.02-1.67,7.88-3.98,11.35c-1.04,1.57-2.13,2.93-3.88,3.68
				c1.5,0.21,1.12,1.4,1.16,2.32c0.04,1-0.65,1.41-1.52,1.62c-0.6,0.14-1.3-0.02-1.75,0.58c0.67,0.12,1.34,0.25,2.02,0.37
				c6.33-3.07,11.82-6.92,13.98-14.18c1.19-4.01,0.31-7.61-1.36-11.5C322.72,260.11,321.23,261.95,319.74,263.79z"/>
			<path class="st1" d="M306.51,281.31c-3.77-1.16-7.95-1.26-10.56-5.56c-0.09,0.09-0.3,0.21-0.36,0.4
				c-1.89,5.82-1.89,5.84,2.99,7.49c1.45,0.49,2.93,0.81,4.4,1.21c1.63-1.15,3.7,0.6,5.26-1.22
				C307.95,282.55,306.5,282.7,306.51,281.31z"/>
			<path class="st8" d="M304.94,281.55c0.04,1,1.29,0.85,1.58,1.62c-1.29,1.36-3.13,0.15-4.51,1.03c4.79,1.33,8.98,0.06,12.76-2.97
				c-0.6-0.11-1.19-0.22-1.79-0.33C310.32,281.36,307.64,281.53,304.94,281.55z"/>
			<path class="st11" d="M316.6,262.33c0.06-0.04,0.12-0.08,0.18-0.11C316.72,262.25,316.66,262.29,316.6,262.33L316.6,262.33z"/>
			<path class="st6" d="M309.82,243.83c-5.22,9.04-6.55,21.81-1.57,20.92c5.03-0.9,12.11-2.78,17.33-11.82
				c5.22-9.04,6.63-20.61,1.57-20.92C318.89,231.51,315.04,234.79,309.82,243.83z"/>
			<path class="st11" d="M314.83,263.18c0.01-0.13,0.02-0.25,0.03-0.38l-0.01-0.01c-15.77,3.8,10.76-23.24,4.82-26.83
				c-2.61-1.47-4,3.71-6.69,2.7c-6.78,5.42-9.36,13.63-10.68,21.96C303.18,265.59,311.22,264.71,314.83,263.18z"/>
		</g>
		<g>
			<path class="st7" d="M20.22,303.31c-1.55,6.97,3.57,15.1,30.18,21.01s50.34,2.86,51.89-4.1c1.32-5.94-8.12-7.79-28.05-12.01
				c-3.47-0.73,2.58-10.2-6.9-14.27c-14.22-6.09-16.04,7.82-19.59,7.05C29.12,296.95,21.52,297.46,20.22,303.31z"/>
			<path class="st2" d="M53.51,300.66c-4.58,11.29,20.55,8.02,12.04-0.62C58.88,293.26,56.85,292.45,53.51,300.66z"/>
			<path class="st2" d="M29.9,315.79c16.53,12.35,87.98,8.39,36.16-1.88c-7.24,1.38-16.08-2.14-21.48-7.28
				c-7.93,2.85-16.41-3.34-22.38-3.26C19.9,308.87,25.84,313.2,29.9,315.79z"/>
		</g>
		<g>
			<path class="st14" d="M17.91,246.01c11.35,8.93,27.48,8.35,40.74,7.93c1.63,19.79-5.49,54.8-32.65,41.89
				c-4.03-1.92-4.51-2.28-6.31,1.65c-15.52,33.9,73.35,45.77,85.52,26.58c11.45-18.05-22.03-9.76-27.64-20.68
				c-7.28-14.18-6.81-30.5-4.27-46.95c0.02-0.64-0.4-1.75,1.01-1.28c4.52,2.43,11.94-1.49,14.58,3.57
				c8.65,23.72,32.8,36.76,53.17,42.68c-2.53,17.27-2.25,35.05,0.45,52.33c-9.5,5.27-65.82,8.52-20.35,19.46
				c19.21,6.1,182.12,14.69,168.82-10.74c-14.31-7.82-35.52-3.11-47.91-9.71c-5.54-36.44-30.95-72.66,27.4-49.67
				c19.67,3.91,18.01,3.12,8.77,19.51c-8.99,16.73,18.62,23.38,24.69,8.75c11.01-16.98,3.84-40.8,22.24-50.97
				c9.75-8.84,1.89-19.28,3.45-29.06c1.17-11.94,13.16-22.29,8.38-33.53c0.46-4.73,3.91-9.93,5.57-14.67
				c2.14-5.18,5.76-8.2,11.44-9.36c52.61-4.32,66.88-131.83,0.14-76.07c-22.14,18.25-22.44,46.5-22.6,71.66
				c-4.14,10.13-10.75,18.92-14.55,29.01c-5.74,7.55,3.27,12.23-7.99,17.07c0.29-76.83-4.43-139.94-75.54-182.53
				c-6.35-15.32-1.69-43.75-18.18-51.66C200-6.57,202.63,39.46,193.8,52.71c-26.28,18-54.59,40.71-68.14,70.79
				c-15.19,16.56-5,46-12.09,65.81c-4.05-11.41-14.72-18.09-25.26-18.71c-3.19-6.83,5.26-10.94,9.15-4.92
				c1.84-5.14-3.38-9.29-7.99-7.59c-15.13,16.49-10.12,1.38-27.58,11.69c-1.77,1.44-4.08,0.76-4.86-1.39
				c-2.74-12.91-28.71-10.64-19.99,3.59c-18.65,7.14-5.13,11.58-10.69,18.89c-6.61,2.11-12.98,4.68-16.78,10.81
				C-10.48,211.3,5.28,236.54,17.91,246.01z M25.26,214.42c-7.9,3.36-16.91-9.54-8.71-15.37c3.31-1.25,9.77-6.71,11.63-1.35
				C36.81,205.56,28.14,206.54,25.26,214.42z M64.34,220.63c-0.65-1.61-6.56-9.58-2.89-7.74C64.14,214.31,70.1,225.5,64.34,220.63z
				 M57.47,201.06c13.61,0.09,25.91,30,12.23,17.88C70.36,210.62,50.87,206.91,57.47,201.06z M28.92,215.53
				c16.1-25.51,20.18-21.99,31.97,4.23C61.86,224.68,32.94,217.44,28.92,215.53z M35.71,199.49c-13.04-7.65,12.72-23.35,8.77-6.51
				C43.28,196.15,36.92,194.62,35.71,199.49z M44.06,170.64c-7.87,1.46-4.24-9.93,6.34-4.9C54.32,169.46,46.31,169.58,44.06,170.64z
				 M51.08,180.36c-5.04,2.39-11.91-0.47-17.03,3.8c-14.66-3.71,17.21-14.55,22.23-11.27C58.78,175.3,52.33,178.16,51.08,180.36z
				 M107.6,187.05c-14.83-7.39-31.48,4.61-39.17,14.4c-5.49-4.73-13.95-4.64-19.28-6.89c0.2-12.8,16.61-25.9,29.73-24.14
				c3.74,0.62,3.77,0.46,3.8,4.27c3.48,7.94,9.04-4.25,17.96,3.8C103.25,181.06,105.54,183.89,107.6,187.05z M112.65,219.12
				c-9.71-8.96-25.6,9.99-32.64,0.19c0.05-6.01-4.15-10.33-6.74-14.64c5.69-11.99,18.94-17.78,31.97-14.23
				C125.4,192.17,121.48,223.04,112.65,219.12z M127.42,162.44c4.59,4.54,0.26,16.8,1.42,23.84c-0.78,10.87,6.53,32.18-9.29,33.98
				c12.27-18.12-9.78-30.21,7.69-25.5c0.27-4.96-9.08-2.19-7.57-7.88C123.18,179.92,117.23,162.21,127.42,162.44z M223.72,48.74
				c-6.37-2.01-19.29,3.35-22.34-0.89c7.27-44.45,15.66-58.83,25.53-2.62C227.6,49.03,227.67,49.01,223.72,48.74z M289.17,121.02
				c-49.71-13.04-103.57-13.88-153.66-3.17c16.64-32.17,67.7-84.25,106.9-54.2c5.72,2.53-1.1,3.37,0.9,5.81
				c20.48,9.52,36.96,26.62,44.7,48.19c-5.83-2.62-11.02-4.65-17.12-4.18C274.19,117.12,284.55,116.2,289.17,121.02z M121.58,152.66
				c3.37-9.52-0.34-23.59,12.64-25.17c31.07-14.07,170.21-22.96,166.43,25.91C245.39,143.48,177.68,142.91,121.58,152.66z
				 M140.19,159.82c24.14-3.82,48.6-6.05,73.09-5.13c24.27,1.03,49.19,2.74,72.51,9.03c26.8,96.01-79.69,122.01-145.1,75.46
				c-5.91-6.41,20.29-23.57-3.93-39.9C138,186.9,135.58,170.45,140.19,159.82z M152.86,254.43c-11.8,7.96-37.26-3.74-17.71-12.28
				C140.77,245.92,145.72,252.14,152.86,254.43z M300.51,251c-3.91-2.32-7.84-2.09-11.75,0.07c-1.56-6.21-10.2-2.44-5.17-9.81
				c12.38-18.14,9.07-41.36,10.27-62.92c0.23-4.18-3.92-16.8,1.75-14.39c8.45,3.59,5.09,23.74,7.17,34.56
				C305.89,214.81,308.72,236.93,300.51,251z M291.29,255.09c0.34-3.33,10.49-2.88,8.69,0.15c-2.58,2.78-0.29,7.42-4.13,9
				C292.22,271.05,289.28,258.17,291.29,255.09z M292.77,311.21c-1.09,0.51-4.55-3.14-2.76-3.99
				C295.91,304.24,297.81,306.58,292.77,311.21z M314.55,266.88c5.73,5.43-12.8,4.11-13.22-1.54
				C303.83,263.92,310.07,269.14,314.55,266.88z M325.23,212.98c6.35-9.69,11.59-19.11,13.77-30.62
				c-6.32-28.49,10.8-67.07,42.67-74.27c27.14,2.07,11.53,43.86,2.57,58.34c-7.81,18.83-28.36,18.84-41.85,29.35
				C334.93,205.44,339.83,216.3,325.23,212.98z M320.24,225.46c0.84-8.06,10.36-7.98,15.02-2.89
				C337.33,230.25,322.18,229.84,320.24,225.46z M304.05,260.15c0.35-11.61,16.53-36.25,25.7-25.57
				C333.4,238.84,318.19,274.95,304.05,260.15z M297.25,278.11c2.19,4.31,21.99,5.15,17.53-0.85c-5.32,3.68-16.2,1.32-14.81-6.67
				c6.22,3.01,17.61,6.63,19.37-3.9c11.89-15,7.41,13.17-4.64,14.52C311.19,285.52,292.81,286.11,297.25,278.11z M289.9,315.19
				c7.08,5.99,14.47-4.49,10.55-11.2c-2.24-7.72-8.17-18.54,4.82-13.48c6.56,0.16-0.6,29.27-4.93,32.97
				c-1.16,10.82-21.71,14.62-16.83,0.8C285.57,321.99,287.57,315.04,289.9,315.19z M291.65,271.83c-0.27,8.79-0.81,19.32,2.55,28.47
				c-6.82,10.47-15.65-9.16-14.67-16.3C276.25,275.33,282.9,262.98,291.65,271.83z M261.38,262.23c9.89-5.11,27.41-18.77,22.72,0.96
				C276.76,262.62,269.4,262.36,261.38,262.23z M225.26,303.57c-12.7,0.5-63.4,7.68-37.15-11.1c20.76,10.52,7.09-33.91-6.81-17.74
				c-5.28,6.38,1.53-9.84-6.27-9.24c-8.25-5.12-23.3,17.82-13.42,22.16c2.44,2-2.09,6.08,1.13,9.17c1.92,5.97-8.61,1.99-10.74-0.06
				c-5.32-5.95,7.79-31.85,13.6-35.98c21.14,5.89,44.14,7.76,64.97,3.82c14.59-5.65,28.25,5.18,43.41,3.49
				c3.92,46.7,2.13,23.93-35.38,22.39C228.43,287.84,231.63,301.74,225.26,303.57z M240.58,362.11c2.86-1.79,3.52-1.45,3.96,1.94
				c2,11.45-22.91,15.09-23.02,2.54C223.15,360.13,235.56,364.82,240.58,362.11z M179.72,352.99c5.78-12.79,15.31,0.8,22.3,4.69
				C196.2,355.76,173.39,361.11,179.72,352.99z M168.96,279.52c-1.19-0.2-0.79-0.82-0.45-1.43c1.3-3.35-3.14-4.91,1.02-7.79
				c1.65-2.33,2.36-3.39,5.71,0.38c0.7,0.79,0.94,1.46-0.06,2.25c-2.16,1.9-0.29,5.22-0.79,7.75
				C173.09,285.57,170.7,281.03,168.96,279.52z M167.9,289.39c-1.18-0.75-1.32,1.57-2.06,2.08c-1.14,1.72-3.15,0.75-1.59-0.92
				c2.96-3.61-4.74-3.85-2.37-7.4c3.53-4.63,8.04,4.91,11.14,6.76c0.16,2.75-3.94,4.88-5.69,6.92
				C159.73,296.23,172.4,292.26,167.9,289.39z M127,274.61c6.53-2.94,5.49-14.33,13.54-12.71c3.53,1.63-0.62,8.32,3.98,9.77
				c1.55-2.88-0.4-10.65,4.28-9.79c2.48,0.92,8.31,1.11,8.31,4.29c-13.91,26.46-6.31,37.02-39.72,18.31
				C109.49,281.86,125.64,278.22,127,274.61z M99.37,254.89c1.99,11.61,16.65,7.73,22.75,1.56c22.9-8.65-7.36,46.9-27.14,1.14
				C92.28,254.42,97.96,253.67,99.37,254.89z M104.32,253.48c0.01-5.08,11.35-2.62,15.28-5.91
				C119.64,253.64,106.43,262.86,104.32,253.48z M59.11,294.09c21.34,3.23,2.73,12.04,15.58,15.67c54.2,15.31-22.13,17.9-43.26,4.61
				c-3.85-2.42-14.54-14.81-7.47-13.91c11.72,1.51,18.86,3.12,28.69,9.5c3.79,2.46,10.06,2.01,12.35,0.82
				c4.44-2.31-24.43,1.3-9.45-15.89C56.47,293.62,58.13,293.95,59.11,294.09z M65.84,251.04c2.32,0.14,1.26,1.88,1.16,2.86
				c-1.99,11.41-0.69,24.27-2.16,35.04c-6.65,1.21-0.15-22.78-0.78-28.48C64.41,258.36,63.1,246.51,65.84,251.04z M16.5,217.33
				c26.67,7.23,56.71,12.9,83.58,4.68c11.41-4.14,18.17,8.36,32.65-1.86c6.13-2.67-0.58-11.71,2.93-16.4
				c42.27,41.88-127.2,43.9-129.43,12.41C5.68,206.08,11.38,217.13,16.5,217.33z"/>
		</g>
		<path class="st6" d="M148.07,361.04c4.13,1.39,8.36,2.78,12.83,2.4c4.03-0.1,4.03-0.04,3.99,4.08c-0.03,2.85-0.48,3.43-3.18,3.96
			c-6.18,1.63-19.9,2.19-16.56-7.66C145.56,361.62,145.85,360.59,148.07,361.04z"/>
	</g>
	<path class="st6" d="M145.39,317.69c-0.36,2.57,0.84,2.91,2.32,3.83c8.55,6.86,57.84,10.52,68.74,6.23
		c3.81-1.31,7.63-2.47,11.09-4.93c-10.37,1.79-20.79,1.28-31.19,1.34c-15-1.72-29.96-3.7-44.34-9.4c-1.83-0.72-3.46-2.13-5.48-2.19
		C145.11,313.98,145.64,315.9,145.39,317.69z"/>
	<path class="st6" d="M147.77,306.48c-0.39,1.14,0.74,1.35,2.13,1.84c7.94,3.51,54.39,7.61,64.75,6.22
		c3.62-0.4,7.24-0.73,10.55-1.66c-9.82,0.29-19.64-0.46-29.45-0.95c-14.12-1.52-28.2-3.16-41.67-6.43
		c-1.71-0.42-3.22-1.13-5.13-1.26C147.56,304.8,148.03,305.69,147.77,306.48z"/>
</g>
</svg>
