<svg width="13" height="15" viewBox="0 0 13 15" fill="none" xmlns="http://www.w3.org/2000/svg">
<path d="M6.49999 7.49999C6.88958 7.49999 7.2232 7.36116 7.50087 7.08349C7.77806 6.8063 7.91666 6.47291 7.91666 6.08332C7.91666 5.69374 7.77806 5.36012 7.50087 5.08245C7.2232 4.80525 6.88958 4.66666 6.49999 4.66666C6.11041 4.66666 5.77702 4.80525 5.49983 5.08245C5.22216 5.36012 5.08333 5.69374 5.08333 6.08332C5.08333 6.47291 5.22216 6.8063 5.49983 7.08349C5.77702 7.36116 6.11041 7.49999 6.49999 7.49999ZM6.49999 12.7062C7.94027 11.384 9.00867 10.1827 9.7052 9.10224C10.4017 8.02227 10.75 7.06318 10.75 6.22499C10.75 4.93818 10.3396 3.88442 9.51891 3.0637C8.69866 2.24345 7.69236 1.83332 6.49999 1.83332C5.30763 1.83332 4.30109 2.24345 3.48037 3.0637C2.66012 3.88442 2.24999 4.93818 2.24999 6.22499C2.24999 7.06318 2.59826 8.02227 3.29479 9.10224C3.99131 10.1827 5.05972 11.384 6.49999 12.7062ZM6.49999 14.5833C4.5993 12.966 3.1798 11.4636 2.24149 10.0762C1.30272 8.68928 0.833328 7.40555 0.833328 6.22499C0.833328 4.45416 1.40306 3.04339 2.54254 1.9927C3.68154 0.942004 5.00069 0.416656 6.49999 0.416656C7.9993 0.416656 9.31845 0.942004 10.4575 1.9927C11.5969 3.04339 12.1667 4.45416 12.1667 6.22499C12.1667 7.40555 11.6975 8.68928 10.7592 10.0762C9.82043 11.4636 8.40069 12.966 6.49999 14.5833Z" fill="white"/>
</svg>
