<?xml version="1.0" encoding="utf-8"?>
<!-- Generator: Adobe Illustrator 26.1.0, SVG Export Plug-In . SVG Version: 6.00 Build 0)  -->
<svg version="1.1" id="Layer_1_1800_copy" xmlns="http://www.w3.org/2000/svg" xmlns:xlink="http://www.w3.org/1999/xlink" x="0px"
	 y="0px" viewBox="0 0 5102.36 1322.09" enable-background="new 0 0 5102.36 1322.09" xml:space="preserve">
<g>
	<path fill="#103F29" stroke="#136241" stroke-width="8" stroke-miterlimit="10" d="M2656.6,962.33
		c-98.76,25.01-172.87,68.8-165.52,97.81c7.35,29,93.36,32.23,192.13,7.22c98.76-25.01,172.86-68.8,165.52-97.8
		C2841.38,940.56,2755.37,937.32,2656.6,962.33z M2663.24,1014.27c-0.05,16.74-149.84,47.04-155.52,29.59
		c-1.94-5.96,13.19-16.64,20.64-21.91C2542.75,1011.78,2663.27,1005.22,2663.24,1014.27z"/>
	<path fill="#FFFFFF" stroke="#000000" stroke-miterlimit="10" d="M2098.09,772.69c261.35,25.68,213.71-5.5,213.71-5.5
		l251.31,214.62l-219.21,8.91"/>
	<path fill="#136241" stroke="#136241" stroke-width="16" stroke-miterlimit="10" d="M3035.18,464.15c-0.74-2.52-1.5-5.02-2.29-7.51
		c-0.36-1.14-0.73-2.28-1.1-3.41c0.23,0.84,0.42,1.67,0.58,2.51c7.87,43.45-86.2,87.58-140.5,114.67c-0.04,0.02-0.08,0.04-0.12,0.06
		c-33.56,16.74-70.5,30.33-111.63,43.93c-35.78,11.83-74.73,23.68-117.39,37.6l-0.01,0c-0.14,0.04-0.46,0.14-0.95,0.28
		c-0.1,0.03-0.21,0.05-0.31,0.09c-10.64,2.96-81.93,21.84-114.24,30.37c-9.05,2.39-15.05,3.97-15.79,4.16
		c-42.06,10.2-87.29,19.39-132.43,26.97c-160.06,26.89-318.91,33.47-330.77-7.89c0.2,0.97,0.4,1.94,0.61,2.91
		c0.92,4.33,1.93,8.64,3.02,12.95c57.33,226.37,320.25,355.06,587.22,287.44c266.98-67.62,436.94-305.94,379.61-532.3
		C3037.59,472.66,3036.43,468.39,3035.18,464.15z M2313.56,947.52c-45.55-23.49-93.75-59.98-123.58-95.74
		c-23.21-27.83-41.59-54.81-43.24-71.65c17.27,2.55,36.28,4.54,56.8,5.48c27.14,1.24,51.94,0.41,73.87-1.46
		c10.2,27.21,42.83,78.1,71.97,100.44c95.09,72.93,188.27,83.55,249.96,92.48C2555.06,984.95,2445.31,1015.46,2313.56,947.52z"/>
	<path fill="none" stroke="#136241" stroke-width="16" stroke-miterlimit="10" d="M3008.2,451.6
		c10.38,41-187.51,126.48-442.01,190.93c-254.51,64.46-469.23,83.47-479.61,42.48c-3.45-13.61,16.07-32.13,52.99-53.14
		c0.03-0.02,0.05-0.03,0.07-0.04c4.33-2.36,8.84-4.73,13.51-7.13c1.53-0.79,3.08-1.58,4.65-2.36c4.15-2.1,8.44-4.2,12.83-6.32
		c0.69-0.34,1.39-0.67,2.09-1c3.5-1.68,7.08-3.36,10.73-5.04c0.73-0.34,1.46-0.68,2.2-1.01c0.69-0.32,1.4-0.64,2.1-0.97
		c3-1.37,6.05-2.74,9.16-4.12c2.29-1.02,4.6-2.04,6.95-3.06c1.56-0.68,3.13-1.37,4.72-2.05c1.58-0.68,3.18-1.37,4.78-2.05
		s3.22-1.37,4.85-2.06c1.63-0.69,3.27-1.37,4.92-2.06c2.47-1.03,4.97-2.06,7.49-3.1c1.68-0.69,3.37-1.38,5.08-2.07
		c1.7-0.69,3.41-1.38,5.14-2.07c0.86-0.35,1.72-0.7,2.59-1.04c1.73-0.69,3.47-1.38,5.23-2.07c0.88-0.35,1.75-0.7,2.64-1.04
		c0.88-0.35,1.76-0.69,2.65-1.04c1.77-0.69,3.56-1.38,5.35-2.08c1.88-0.73,3.77-1.45,5.67-2.18c1.65-0.63,3.31-1.26,4.97-1.89
		c4.81-1.81,9.68-3.64,14.62-5.45c0.8-0.29,1.59-0.59,2.39-0.88c2.82-1.04,5.66-2.07,8.53-3.1c1.49-0.54,2.98-1.08,4.49-1.61
		c1.5-0.54,3-1.08,4.52-1.61c1.98-0.7,3.96-1.4,5.96-2.1s4-1.41,6.01-2.1c2.21-0.77,4.45-1.55,6.69-2.32
		c1.82-0.63,3.64-1.25,5.48-1.88c2.04-0.7,4.1-1.4,6.17-2.09c2.06-0.7,4.14-1.4,6.22-2.09s4.17-1.39,6.27-2.08
		c2.05-0.68,4.1-1.35,6.17-2.03c4.85-1.6,9.76-3.19,14.71-4.78c2.12-0.68,4.25-1.36,6.38-2.04c10.27-3.27,20.71-6.51,31.32-9.72
		c2.24-0.68,4.48-1.36,6.73-2.03c1.72-0.51,3.43-1.03,5.16-1.54c2.8-0.83,5.61-1.67,8.44-2.5c4.55-1.34,9.15-2.68,13.76-4.01
		c1.2-0.35,2.39-0.69,3.6-1.04c1.3-0.37,2.61-0.74,3.92-1.12c2.28-0.65,4.57-1.3,6.87-1.95c9.04-2.56,18.18-5.09,27.41-7.59
		c2.52-0.68,5.04-1.36,7.56-2.04c1.1-0.29,2.19-0.58,3.28-0.88c1.23-0.33,2.46-0.65,3.7-0.99c0.07-0.01,0.14-0.04,0.21-0.05
		c2.41-0.64,4.81-1.28,7.23-1.91c8.22-2.17,16.5-4.3,24.85-6.41c4.18-1.06,8.34-2.11,12.5-3.14c5.83-1.45,11.65-2.87,17.44-4.28
		c2.39-0.58,4.78-1.16,7.18-1.73l0.21-0.05c2.34-0.56,4.7-1.11,7.03-1.67c7.03-1.66,14.01-3.28,20.96-4.87
		c0.08-0.02,0.17-0.04,0.24-0.05c6.87-1.56,13.69-3.1,20.47-4.59c0.19-0.04,0.38-0.08,0.58-0.12c2.32-0.51,4.64-1.02,6.96-1.52
		c2.32-0.5,4.62-1,6.93-1.5c4.61-0.98,9.19-1.96,13.76-2.91c2.29-0.47,4.56-0.95,6.84-1.42c6.81-1.4,13.58-2.77,20.29-4.09
		c6.71-1.32,13.37-2.61,19.96-3.85c2.21-0.41,4.4-0.83,6.58-1.23c2.19-0.4,4.37-0.81,6.54-1.2c2.4-0.44,4.78-0.87,7.16-1.29
		c1.79-0.32,3.57-0.64,5.34-0.95c2.47-0.44,4.93-0.86,7.37-1.29c1.97-0.34,3.93-0.68,5.88-1.01c2.12-0.36,4.23-0.72,6.33-1.07
		c1.84-0.31,3.67-0.61,5.48-0.91c3.58-0.58,7.12-1.16,10.65-1.72c2.03-0.33,4.06-0.64,6.07-0.95c1.85-0.29,3.69-0.58,5.53-0.85
		c2.37-0.37,4.73-0.72,7.09-1.07c1.52-0.23,3.04-0.45,4.56-0.68c0.26-0.04,0.51-0.07,0.78-0.11c1.69-0.24,3.37-0.49,5.05-0.73
		c0.29-0.04,0.57-0.08,0.86-0.13c1.77-0.25,3.53-0.5,5.28-0.75c0.43-0.05,0.85-0.11,1.27-0.17c1.7-0.23,3.38-0.47,5.07-0.69
		c4.08-0.56,8.14-1.1,12.16-1.62c2.59-0.33,5.17-0.66,7.73-0.98c3.28-0.4,6.52-0.8,9.75-1.18c0.67-0.07,1.34-0.15,2.01-0.23
		c1.86-0.22,3.71-0.43,5.54-0.63c0.92-0.11,1.84-0.21,2.75-0.3c0.92-0.11,1.83-0.2,2.74-0.3c0.91-0.1,1.81-0.19,2.72-0.29
		c0.9-0.1,1.81-0.19,2.7-0.28c0.58-0.06,1.16-0.12,1.73-0.18c0.88-0.09,1.76-0.18,2.64-0.27c5.27-0.53,10.45-1.02,15.54-1.47
		c0.85-0.07,1.69-0.15,2.54-0.22c4.7-0.41,9.33-0.77,13.89-1.11c0.83-0.06,1.66-0.13,2.48-0.18c6.82-0.49,13.45-0.88,19.89-1.21
		c0.77-0.04,1.53-0.07,2.29-0.11c0.57-0.03,1.15-0.05,1.72-0.08c0.77-0.03,1.53-0.07,2.3-0.1c10.69-0.45,20.82-0.67,30.36-0.65
		c0.03,0,0.07,0,0.1,0C2978.82,431.01,3004.76,438,3008.2,451.6z"/>
	<path fill="#0E3F29" stroke="#136241" stroke-width="14" stroke-miterlimit="10" d="M3032.36,455.74
		c7.87,43.45-86.2,87.58-140.5,114.67c-32.9,14.62-70.49,29.45-111.75,43.99c-35.78,11.83-74.73,23.68-117.39,37.6l-0.01,0
		c-0.32,0.1-0.63,0.18-0.95,0.28c-0.1,0.03-0.21,0.05-0.31,0.09c-10.64,2.96-81.93,21.84-114.24,30.37
		c-51.6,12.49-101.44,22.89-148.22,31.13c-160.06,26.89-318.91,33.47-330.77-7.89c0.2,0.97,0.4,1.94,0.61,2.91
		c-0.41-0.93-0.74-1.89-0.98-2.87c-4.92-19.43,21.92-45.42,71.79-73.88c-36.69,21.94-55.93,41.55-52.19,56.31
		c11.26,44.47,226.7,28.27,481.21-36.19c254.5-64.45,451.68-152.75,440.41-197.22c-3.74-14.75-29.95-22.83-72.6-24.67
		C2988.23,431.54,3022.54,439.85,3032.36,455.74z"/>
	<path fill="none" stroke="#136241" stroke-width="7" stroke-miterlimit="10" d="M2663.11,1013.76
		c0,17.71-156.76,49.33-162.75,30.85c-2.04-6.31,13.76-17.56,21.55-23.11C2536.94,1010.78,2663.11,1004.19,2663.11,1013.76z"/>
	<path fill="#103F29" d="M2395.78,279.49c50.33-9.05,839.42-54.14,839.42-54.14s5.76,0.17,5.33,14.65
		c-0.38,12.83-6.19,14.31-6.19,14.31L2395.78,279.49z"/>
	<g>
		<path fill="none" stroke="#EE3441" stroke-width="38" stroke-miterlimit="10" d="M2666.68,132.8c-5.7,29.16-9.54,65.35-6.7,106.45
			c0.75,10.81,1.41,32.01,15.44,78.06c6.82,22.37,28.28,54.85,43.07,80.45c17.51,30.33,19.72,32.26,29.91,66.21
			c5.42,18.03,7.86,67.71-7.22,88.43"/>
		<path fill="none" stroke="#FFFFFF" stroke-width="38" stroke-miterlimit="10" d="M2623.99,141.23
			c-9.74,45.06-12.59,82.65-13.2,109.78c-0.83,37.07,2.48,55.9,4.22,64.5c5.01,24.7,11.18,34.51,22.88,64.55
			c19.07,48.95,30.11,77.31,30.67,110.16c0.33,19.27-2.8,48.8-21.77,85.14"/>
		<path fill="none" stroke="#273375" stroke-width="77" stroke-miterlimit="10" d="M2571.13,153.22
			c-6.72,26.69-14.06,61.74-18.75,103.27c-2.78,24.61-5.88,52.05-4.85,87.19c2.11,71.89,37.14,95.02,32.74,145.09
			c-5.49,62.53-36.48,96.3-42.53,101.71"/>
		<path fill="none" stroke="#FFFFFF" stroke-width="38" stroke-miterlimit="10" d="M2520.6,164.56
			c-15.56,45.18-23.64,84.03-28.14,112.58c-4.57,28.99-8.58,55.48-5.89,90.3c2.72,35.36,10.63,57,13.8,70.63
			c8.53,36.66,1.18,94.27-71.98,184.96"/>
		<path fill="none" stroke="#EE3441" stroke-width="38" stroke-miterlimit="10" d="M2482.45,183.52
			c-9.83,14.12-22.42,35.09-32.26,62.54c-8.62,24.06-11.66,43.44-13.35,54.61c-4.57,30.16-3.77,54.13-2.97,74.98
			c1.02,26.43,3.01,26.64,3.6,51.36c0.56,23.57,1.01,42.5-3,62.45c-6.94,34.49-24.31,57.5-39.83,78.05
			c-13.44,17.8-36.83,44.27-73.79,67.83"/>
	</g>
	<path fill="#103F29" d="M2388.47,263.85c50.55-14.12,852.44-136.6,852.44-136.6s5.9-0.38,6.86,14.45
		c0.85,13.15-4.94,15.22-4.94,15.22L2388.47,263.85z"/>
</g>
<g>
	<path fill="#FFFFFF" d="M539.15,716.2c0,11.67-3.67,24.09-11,37.25c-7.34,13.17-16.59,24.25-27.75,33.25
		c-11.17,9-22.25,13.5-33.25,13.5c-8.67,0-14.92-2.92-18.75-8.75c-3.84-5.83-5.75-14.58-5.75-26.25c0-9.33,1-20.16,3-32.5
		c2-12.33,5.16-30,9.5-53c6-31,9.5-51.66,10.5-62v-2.5c0-6.33-2-9.5-6-9.5c-5.34,0-12.92,5.92-22.75,17.75
		c-9.84,11.84-19.17,26.59-28,44.25c-8.84,17.67-14.92,34.67-18.25,51l-8.5,40.5c-1.67,10-8,19.34-19,28s-21.84,13-32.5,13
		c-5.34,0-8-1.67-8-5c0-1,0.41-2.75,1.25-5.25c0.83-2.5,1.41-4.58,1.75-6.25c3.66-10.66,6-18.83,7-24.5c2-9.66,5.91-33,11.75-70
		c5.83-37,9.91-62.83,12.25-77.5l7-45.5c5.66-32.33,12.33-60.66,20-85c-9.34,4.34-20.92,7.42-34.75,9.25
		c-13.84,1.84-30.92,2.75-51.25,2.75h-19.5l-41.5,236.5c-2.34,10-6.34,17.34-12,22v0.5c5.66,3,12.33,4.5,20,4.5
		c4.66,0,9.41-0.91,14.25-2.75c4.83-1.83,7.91-2.75,9.25-2.75c1.66,0,2.75,0.34,3.25,1c0.5,0.67,0.75,1.84,0.75,3.5
		c0,3-0.84,5.84-2.5,8.5c-1.67,2.67-2.67,4.34-3,5c-8,9.67-15.17,16.42-21.5,20.25c-6.34,3.84-12.5,5.75-18.5,5.75
		c-3,0-6.59-0.5-10.75-1.5c-4.17-1-7.09-1.66-8.75-2c-9.67-3-18-4.5-25-4.5c-7.34,0-14,1.34-20,4c-6,2.67-9.67,4-11,4
		c-2.67,0-4-2-4-6c0-7.66,5.5-16.33,16.5-26c7-7,11.83-13.66,14.5-20c2.66-6.33,5.66-18.33,9-36l37.5-214h-30
		c-23.67,0-39.92,2.5-48.75,7.5c-8.84,5-13.25,14.17-13.25,27.5c0,8.34,1.33,15.5,4,21.5c2.66,6,4,9.67,4,11c0,4-2.42,9.67-7.25,17
		c-4.84,7.34-10.25,13.84-16.25,19.5c-6,5.67-10.84,8.5-14.5,8.5c-1.34,0-2.42-0.58-3.25-1.75c-0.84-1.16-1.42-1.91-1.75-2.25
		c-5.34-11.33-8-25-8-41c0-21,5.33-40.08,16-57.25c10.66-17.16,25.66-30.66,45-40.5c19.33-9.83,41.33-14.75,66-14.75h116.5
		c17.33,0,30.41-0.41,39.25-1.25c8.83-0.83,15.25-2.16,19.25-4c4-1.83,7.66-4.75,11-8.75h0.5c7-13.66,15.16-25.33,24.5-35
		c8.33-9.33,16.58-16.41,24.75-21.25c8.16-4.83,15.91-8.25,23.25-10.25c7.33-2,17-4,29-6c10.33-1.66,17.16-2.91,20.5-3.75
		c3.33-0.83,5.5-1.25,6.5-1.25c3,0,4.5,1.84,4.5,5.5c0,3-1.25,6.75-3.75,11.25s-5.59,8.25-9.25,11.25c-3.34,3-6.84,4.92-10.5,5.75
		c-3.67,0.84-8.17,1.42-13.5,1.75c-10.34,0.67-19.42,3.42-27.25,8.25c-7.84,4.84-15.09,12.42-21.75,22.75
		c-9.34,14.34-16.84,33-22.5,56c-5.67,23-11.67,57.5-18,103.5l-7,48h1c35-49,65.16-73.5,90.5-73.5c16.66,0,25,12.17,25,36.5
		c0,11.34-1.34,23.67-4,37c-3.67,19.34-9.34,48.5-17,87.5c-2.67,13.34-4,21.67-4,25c0,3.34,0.41,5.84,1.25,7.5
		c0.83,1.67,2.41,2.5,4.75,2.5c4.66,0,9.08-3.16,13.25-9.5c4.16-6.33,9.25-16.16,15.25-29.5c0.66-2,1.5-3.66,2.5-5
		c1-1.33,2.16-2,3.5-2C537.65,707.2,539.15,710.2,539.15,716.2z"/>
	<path fill="#FFFFFF" d="M572.4,784.7c-5.84-10.33-8.75-24.16-8.75-41.5c0-27.66,6.75-56,20.25-85s31.91-53.08,55.25-72.25
		c23.33-19.16,48.5-28.75,75.5-28.75c8.66,0,17.25,1,25.75,3s15.41,4.5,20.75,7.5c-3,7.34-5,13.34-6,18c-1,4.67-1.67,7.67-2,9
		c-2.34,12-5.75,30.25-10.25,54.75s-8.75,47.92-12.75,70.25c-2,10-3,17.67-3,23c0,3.67,0.58,6.34,1.75,8
		c1.16,1.67,2.91,2.5,5.25,2.5c5.66,0,10.83-3.41,15.5-10.25c4.66-6.83,9.66-16.41,15-28.75c0.66-2,1.5-3.66,2.5-5
		c1-1.33,2.33-2,4-2c3,0,4.5,2.34,4.5,7c0,2.34-0.17,4.17-0.5,5.5c-1.67,12.67-6,25.25-13,37.75s-15.59,22.75-25.75,30.75
		c-10.17,8-20.59,12-31.25,12c-8.67,0-15.42-3.17-20.25-9.5c-4.84-6.33-7.25-14.83-7.25-25.5c0-2.66,0.33-6.66,1-12l2.5-17h-1
		c-12.34,18.67-26.42,34-42.25,46c-15.84,12-29.59,18-41.25,18C586.31,800.2,578.22,795.03,572.4,784.7z M653.4,731.2
		c11.5-13,22.25-29.41,32.25-49.25c10-19.83,16.66-39.58,20-59.25l3.5-19.5c-8.34-5-16-7.5-23-7.5c-10.67,0-21.42,6.59-32.25,19.75
		c-10.84,13.17-19.67,30.17-26.5,51c-6.84,20.84-10.25,42.09-10.25,63.75c0,8,0.58,13.42,1.75,16.25c1.16,2.84,3.25,4.25,6.25,4.25
		C632.47,750.7,641.9,744.2,653.4,731.2z"/>
	<path fill="#FFFFFF" d="M815.65,767.2c0-6,0.83-14,2.5-24l24-121c0.66-6,1-9.66,1-11c0-4.66-1.5-7-4.5-7s-6.5,2.42-10.5,7.25
		c-4,4.84-9.17,12.75-15.5,23.75c-0.34,0.67-1.09,2.09-2.25,4.25c-1.17,2.17-2.25,3.75-3.25,4.75s-2,1.5-3,1.5c-3,0-4.5-2.66-4.5-8
		c0-9.33,4-20.41,12-33.25c8-12.83,18-23.91,30-33.25c12-9.33,23.66-14,35-14c14,0,21,9.34,21,28c0,5.34-1.17,14.5-3.5,27.5l-25,129
		c-0.67,2.67-1,4.5-1,5.5c0,4,1.83,6,5.5,6c4.33,0,9.25-3.5,14.75-10.5s10.75-16.5,15.75-28.5c1.66-4.66,3.66-7,6-7
		c3,0,4.5,2.84,4.5,8.5c0,11.67-3.84,24.09-11.5,37.25c-7.67,13.17-17.25,24.34-28.75,33.5s-22.92,13.75-34.25,13.75
		C823.81,800.2,815.65,789.2,815.65,767.2z M856.65,538.95c-0.67-0.83-0.84-2.41-0.5-4.75l7-39.5c2-10.66,6.66-19.25,14-25.75
		c7.33-6.5,17.83-9.75,31.5-9.75h4c3.66,0,5.33,1.84,5,5.5l-7,39.5c-4,24-19.34,36-46,36h-3.5
		C858.81,540.2,857.31,539.78,856.65,538.95z"/>
	<path fill="#FFFFFF" d="M1031.14,789.2c0-4.33,1.33-8.5,4-12.5c2.66-4,6.5-8.5,11.5-13.5c5.33-5,9.16-9.25,11.5-12.75
		c2.33-3.5,4.41-8.41,6.25-14.75c1.83-6.33,3.75-15.83,5.75-28.5l36-216h-2.5c-13.67,0-24.42,1.5-32.25,4.5
		c-7.84,3-14.42,6.34-19.75,10c-5.34,3.67-8.67,5.5-10,5.5c-2.34,0-3.5-1.66-3.5-5c0-1.66,0.33-4.16,1-7.5c3.66-15,14-27.16,31-36.5
		c17-9.33,38.5-14,64.5-14c11.66,0,25.83,0.84,42.5,2.5c26.66,1.67,42.66,2.5,48,2.5c13,0,23.33-0.75,31-2.25
		c7.66-1.5,14.25-3.16,19.75-5c5.5-1.83,9.25-2.75,11.25-2.75c1.66,0,2.91,0.34,3.75,1c0.83,0.67,1.25,2,1.25,4
		c0,5.34-2.59,11.75-7.75,19.25c-5.17,7.5-12.75,14.09-22.75,19.75c-10,5.67-22.17,8.5-36.5,8.5c-3,0-9.84-0.33-20.5-1
		c-16-1.33-31-2-45-2l-18.5,113h96.5c3.33,0,5,1.17,5,3.5c0,3-2.09,7.92-6.25,14.75c-4.17,6.84-9.25,12.92-15.25,18.25
		c-6,5.34-12,8-18,8c-2,0-7-0.66-15-2c-15-3-27.34-4.5-37-4.5h-17l-14,86c-1.34,8-5.17,15.17-11.5,21.5v0.5c4.66,3.34,11.33,5,20,5
		c5,0,9.75-0.91,14.25-2.75c4.5-1.83,7.41-2.75,8.75-2.75c3,0,4.5,1.5,4.5,4.5c0,3.67-2.17,8.17-6.5,13.5
		c-13.34,17.34-26.34,26-39,26c-3.34,0-7.25-0.5-11.75-1.5s-7.42-1.66-8.75-2c-9-3-17-4.5-24-4.5c-7.34,0-14.17,1.34-20.5,4
		c-6.34,2.67-10.17,4-11.5,4C1032.14,795.2,1031.14,793.2,1031.14,789.2z"/>
	<path fill="#FFFFFF" d="M1254.64,782.95c-9-11.5-13.5-28.08-13.5-49.75c0-27,6.75-54.16,20.25-81.5c13.5-27.33,30.5-49.91,51-67.75
		c20.5-17.83,40.41-26.75,59.75-26.75c15.66,0,27.83,5.84,36.5,17.5c8.66,11.67,13,28,13,49c0,25.67-6.42,52.34-19.25,80
		c-12.84,27.67-29.34,50.67-49.5,69c-20.17,18.34-40.59,27.5-61.25,27.5C1275.96,800.2,1263.64,794.45,1254.64,782.95z
		 M1344.14,741.95c7.66-9.83,13.66-23.08,18-39.75c4.33-16.66,6.5-34.83,6.5-54.5c0-16.66-1.84-28.66-5.5-36
		c-3.67-7.33-9.34-11-17-11c-9,0-17.42,4.59-25.25,13.75c-7.84,9.17-14.17,21.75-19,37.75c-4.84,16-7.25,33.84-7.25,53.5
		c0,34,8,51,24,51C1327.96,756.7,1336.46,751.78,1344.14,741.95z"/>
	<path fill="#FFFFFF" d="M1451.64,782.95c-9-11.5-13.5-28.08-13.5-49.75c0-27,6.75-54.16,20.25-81.5c13.5-27.33,30.5-49.91,51-67.75
		c20.5-17.83,40.41-26.75,59.75-26.75c15.66,0,27.83,5.84,36.5,17.5c8.66,11.67,13,28,13,49c0,25.67-6.42,52.34-19.25,80
		c-12.84,27.67-29.34,50.67-49.5,69c-20.17,18.34-40.59,27.5-61.25,27.5C1472.96,800.2,1460.64,794.45,1451.64,782.95z
		 M1541.14,741.95c7.66-9.83,13.66-23.08,18-39.75c4.33-16.66,6.5-34.83,6.5-54.5c0-16.66-1.84-28.66-5.5-36
		c-3.67-7.33-9.34-11-17-11c-9,0-17.42,4.59-25.25,13.75c-7.84,9.17-14.17,21.75-19,37.75c-4.84,16-7.25,33.84-7.25,53.5
		c0,34,8,51,24,51C1524.96,756.7,1533.46,751.78,1541.14,741.95z"/>
	<path fill="#FFFFFF" d="M1641.89,784.7c-5.84-10.33-8.75-24.16-8.75-41.5c0-27,6.66-55.08,20-84.25
		c13.33-29.16,31.16-53.41,53.5-72.75c22.33-19.33,46.33-29,72-29h1.5c10.66-45,20.41-78.91,29.25-101.75
		c8.83-22.83,20.58-41.91,35.25-57.25c12.66-13,24.75-21.75,36.25-26.25s24.58-7.91,39.25-10.25c10.66-1.66,17.66-2.91,21-3.75
		c3.33-0.83,5.33-1.25,6-1.25c2.66,0,4,1.84,4,5.5c0,3-1.17,6.59-3.5,10.75c-2.34,4.17-5.17,8.09-8.5,11.75c-3.67,3-7.34,5-11,6
		c-3.67,1-8.34,1.5-14,1.5c-19,1.34-34.67,11.67-47,31c-7.34,11.67-13.5,27.17-18.5,46.5c-5,19.34-12.84,57-23.5,113
		c0,1-5,28.34-15,82c-6.34,33-9.84,51.34-10.5,55c-2,10-3,17.67-3,23c0,3.67,0.58,6.34,1.75,8c1.16,1.67,2.91,2.5,5.25,2.5
		c5.66,0,10.75-3.33,15.25-10c4.5-6.66,9.58-16.33,15.25-29c0.33-0.33,0.83-1.25,1.5-2.75c0.66-1.5,1.41-2.58,2.25-3.25
		c0.83-0.66,1.75-1,2.75-1c2.66,0,4,3,4,9c0,11.34-3.5,23.59-10.5,36.75c-7,13.17-16,24.34-27,33.5s-21.84,13.75-32.5,13.75
		c-8.67,0-15.42-3.17-20.25-9.5c-4.84-6.33-7.25-14.83-7.25-25.5c0-2.66,0.33-6.66,1-12l2.5-17h-1c-12.34,18.67-26.42,34-42.25,46
		c-15.84,12-29.59,18-41.25,18C1655.8,800.2,1647.71,795.03,1641.89,784.7z M1722.89,731.2c11.5-13,22.25-29.41,32.25-49.25
		c10-19.83,16.66-39.58,20-59.25l3.5-19.5c-8.34-5-16-7.5-23-7.5c-10.67,0-21.42,6.59-32.25,19.75c-10.84,13.17-19.67,30.17-26.5,51
		c-6.84,20.84-10.25,42.09-10.25,63.75c0,8,0.58,13.42,1.75,16.25c1.16,2.84,3.25,4.25,6.25,4.25
		C1701.96,750.7,1711.39,744.2,1722.89,731.2z"/>
</g>
<g>
	<path fill="#FFFFFF" d="M3672.96,716.2c0,11.67-3.67,24.09-11,37.25c-7.34,13.17-16.59,24.25-27.75,33.25
		c-11.17,9-22.25,13.5-33.25,13.5c-8.67,0-14.92-2.92-18.75-8.75c-3.84-5.83-5.75-14.58-5.75-26.25c0-9.33,1-20.16,3-32.5
		c2-12.33,5.16-30,9.5-53c6-31,9.5-51.66,10.5-62v-2.5c0-6.33-2-9.5-6-9.5c-5.34,0-12.92,5.92-22.75,17.75
		c-9.84,11.84-19.17,26.59-28,44.25c-8.84,17.67-14.92,34.67-18.25,51l-8.5,40.5c-1.67,10-8,19.34-19,28s-21.84,13-32.5,13
		c-5.34,0-8-1.67-8-5c0-1,0.41-2.75,1.25-5.25c0.83-2.5,1.41-4.58,1.75-6.25c3.66-10.66,6-18.83,7-24.5c2-9.66,5.91-33,11.75-70
		c5.83-37,9.91-62.83,12.25-77.5l7-45.5c5.66-32.33,12.33-60.66,20-85c-9.34,4.34-20.92,7.42-34.75,9.25
		c-13.84,1.84-30.92,2.75-51.25,2.75h-19.5l-41.5,236.5c-2.34,10-6.34,17.34-12,22v0.5c5.66,3,12.33,4.5,20,4.5
		c4.66,0,9.41-0.91,14.25-2.75c4.83-1.83,7.91-2.75,9.25-2.75c1.66,0,2.75,0.34,3.25,1c0.5,0.67,0.75,1.84,0.75,3.5
		c0,3-0.84,5.84-2.5,8.5c-1.67,2.67-2.67,4.34-3,5c-8,9.67-15.17,16.42-21.5,20.25c-6.34,3.84-12.5,5.75-18.5,5.75
		c-3,0-6.59-0.5-10.75-1.5c-4.17-1-7.09-1.66-8.75-2c-9.67-3-18-4.5-25-4.5c-7.34,0-14,1.34-20,4c-6,2.67-9.67,4-11,4
		c-2.67,0-4-2-4-6c0-7.66,5.5-16.33,16.5-26c7-7,11.83-13.66,14.5-20c2.66-6.33,5.66-18.33,9-36l37.5-214h-30
		c-23.67,0-39.92,2.5-48.75,7.5c-8.84,5-13.25,14.17-13.25,27.5c0,8.34,1.33,15.5,4,21.5c2.66,6,4,9.67,4,11c0,4-2.42,9.67-7.25,17
		c-4.84,7.34-10.25,13.84-16.25,19.5c-6,5.67-10.84,8.5-14.5,8.5c-1.34,0-2.42-0.58-3.25-1.75c-0.84-1.16-1.42-1.91-1.75-2.25
		c-5.34-11.33-8-25-8-41c0-21,5.33-40.08,16-57.25c10.66-17.16,25.66-30.66,45-40.5c19.33-9.83,41.33-14.75,66-14.75h116.5
		c17.33,0,30.41-0.41,39.25-1.25c8.83-0.83,15.25-2.16,19.25-4c4-1.83,7.66-4.75,11-8.75h0.5c7-13.66,15.16-25.33,24.5-35
		c8.33-9.33,16.58-16.41,24.75-21.25c8.16-4.83,15.91-8.25,23.25-10.25c7.33-2,17-4,29-6c10.33-1.66,17.16-2.91,20.5-3.75
		c3.33-0.83,5.5-1.25,6.5-1.25c3,0,4.5,1.84,4.5,5.5c0,3-1.25,6.75-3.75,11.25s-5.59,8.25-9.25,11.25c-3.34,3-6.84,4.92-10.5,5.75
		c-3.67,0.84-8.17,1.42-13.5,1.75c-10.34,0.67-19.42,3.42-27.25,8.25c-7.84,4.84-15.09,12.42-21.75,22.75
		c-9.34,14.34-16.84,33-22.5,56c-5.67,23-11.67,57.5-18,103.5l-7,48h1c35-49,65.16-73.5,90.5-73.5c16.66,0,25,12.17,25,36.5
		c0,11.34-1.34,23.67-4,37c-3.67,19.34-9.34,48.5-17,87.5c-2.67,13.34-4,21.67-4,25c0,3.34,0.41,5.84,1.25,7.5
		c0.83,1.67,2.41,2.5,4.75,2.5c4.66,0,9.08-3.16,13.25-9.5c4.16-6.33,9.25-16.16,15.25-29.5c0.66-2,1.5-3.66,2.5-5
		c1-1.33,2.16-2,3.5-2C3671.46,707.2,3672.96,710.2,3672.96,716.2z"/>
	<path fill="#FFFFFF" d="M3706.21,784.7c-5.84-10.33-8.75-24.16-8.75-41.5c0-27.66,6.75-56,20.25-85s31.91-53.08,55.25-72.25
		c23.33-19.16,48.5-28.75,75.5-28.75c8.66,0,17.25,1,25.75,3s15.41,4.5,20.75,7.5c-3,7.34-5,13.34-6,18c-1,4.67-1.67,7.67-2,9
		c-2.34,12-5.75,30.25-10.25,54.75s-8.75,47.92-12.75,70.25c-2,10-3,17.67-3,23c0,3.67,0.58,6.34,1.75,8
		c1.16,1.67,2.91,2.5,5.25,2.5c5.66,0,10.83-3.41,15.5-10.25c4.66-6.83,9.66-16.41,15-28.75c0.66-2,1.5-3.66,2.5-5
		c1-1.33,2.33-2,4-2c3,0,4.5,2.34,4.5,7c0,2.34-0.17,4.17-0.5,5.5c-1.67,12.67-6,25.25-13,37.75s-15.59,22.75-25.75,30.75
		c-10.17,8-20.59,12-31.25,12c-8.67,0-15.42-3.17-20.25-9.5c-4.84-6.33-7.25-14.83-7.25-25.5c0-2.66,0.33-6.66,1-12l2.5-17h-1
		c-12.34,18.67-26.42,34-42.25,46c-15.84,12-29.59,18-41.25,18C3720.12,800.2,3712.04,795.03,3706.21,784.7z M3787.21,731.2
		c11.5-13,22.25-29.41,32.25-49.25c10-19.83,16.66-39.58,20-59.25l3.5-19.5c-8.34-5-16-7.5-23-7.5c-10.67,0-21.42,6.59-32.25,19.75
		c-10.84,13.17-19.67,30.17-26.5,51c-6.84,20.84-10.25,42.09-10.25,63.75c0,8,0.58,13.42,1.75,16.25c1.16,2.84,3.25,4.25,6.25,4.25
		C3766.29,750.7,3775.71,744.2,3787.21,731.2z"/>
	<path fill="#FFFFFF" d="M3949.46,767.2c0-6,0.83-14,2.5-24l24-121c0.66-6,1-9.66,1-11c0-4.66-1.5-7-4.5-7s-6.5,2.42-10.5,7.25
		c-4,4.84-9.17,12.75-15.5,23.75c-0.34,0.67-1.09,2.09-2.25,4.25c-1.17,2.17-2.25,3.75-3.25,4.75s-2,1.5-3,1.5c-3,0-4.5-2.66-4.5-8
		c0-9.33,4-20.41,12-33.25c8-12.83,18-23.91,30-33.25c12-9.33,23.66-14,35-14c14,0,21,9.34,21,28c0,5.34-1.17,14.5-3.5,27.5l-25,129
		c-0.67,2.67-1,4.5-1,5.5c0,4,1.83,6,5.5,6c4.33,0,9.25-3.5,14.75-10.5s10.75-16.5,15.75-28.5c1.66-4.66,3.66-7,6-7
		c3,0,4.5,2.84,4.5,8.5c0,11.67-3.84,24.09-11.5,37.25c-7.67,13.17-17.25,24.34-28.75,33.5s-22.92,13.75-34.25,13.75
		C3957.62,800.2,3949.46,789.2,3949.46,767.2z M3990.46,538.95c-0.67-0.83-0.84-2.41-0.5-4.75l7-39.5c2-10.66,6.66-19.25,14-25.75
		c7.33-6.5,17.83-9.75,31.5-9.75h4c3.66,0,5.33,1.84,5,5.5l-7,39.5c-4,24-19.34,36-46,36h-3.5
		C3992.62,540.2,3991.12,539.78,3990.46,538.95z"/>
	<path fill="#FFFFFF" d="M4193.3,767.95c-17.17-21.5-25.75-53.41-25.75-95.75c0-43,8.75-82,26.25-117s40.66-62.41,69.5-82.25
		c28.83-19.83,59.75-29.75,92.75-29.75c21,0,37.83,3.92,50.5,11.75c12.66,7.84,19,18.59,19,32.25c0,8.67-3.34,19.17-10,31.5
		c-3,4.67-5.84,8.42-8.5,11.25c-2.67,2.84-5.67,4.25-9,4.25c-3,0-5-1.25-6-3.75s-1.84-5.75-2.5-9.75c-0.67-4-1.34-7.16-2-9.5
		c-5-20.33-20.5-30.5-46.5-30.5c-22.67,0-42.67,7.59-60,22.75c-17.34,15.17-30.67,36.17-40,63c-9.34,26.84-14,57.25-14,91.25
		c0,33,5.08,57.34,15.25,73c10.16,15.67,26.25,23.5,48.25,23.5c21.66,0,39-5.83,52-17.5c13-11.66,24.5-26.33,34.5-44
		c3-5.66,6.5-8.5,10.5-8.5c3.33,0,5,2.17,5,6.5c0,3-1,7.84-3,14.5c-8.67,29.34-24.09,52.5-46.25,69.5
		c-22.17,17-47.75,25.5-76.75,25.5C4234.88,800.2,4210.47,789.45,4193.3,767.95z"/>
	<path fill="#FFFFFF" d="M4432.56,782.95c-9-11.5-13.5-28.08-13.5-49.75c0-27,6.75-54.16,20.25-81.5c13.5-27.33,30.5-49.91,51-67.75
		c20.5-17.83,40.41-26.75,59.75-26.75c15.66,0,27.83,5.84,36.5,17.5c8.66,11.67,13,28,13,49c0,25.67-6.42,52.34-19.25,80
		c-12.84,27.67-29.34,50.67-49.5,69c-20.17,18.34-40.59,27.5-61.25,27.5C4453.89,800.2,4441.56,794.45,4432.56,782.95z
		 M4522.06,741.95c7.66-9.83,13.66-23.08,18-39.75c4.33-16.66,6.5-34.83,6.5-54.5c0-16.66-1.84-28.66-5.5-36
		c-3.67-7.33-9.34-11-17-11c-9,0-17.42,4.59-25.25,13.75c-7.84,9.17-14.17,21.75-19,37.75c-4.84,16-7.25,33.84-7.25,53.5
		c0,34,8,51,24,51C4505.89,756.7,4514.39,751.78,4522.06,741.95z"/>
	<path fill="#FFFFFF" d="M4629.56,782.95c-9-11.5-13.5-28.08-13.5-49.75c0-27,6.75-54.16,20.25-81.5c13.5-27.33,30.5-49.91,51-67.75
		c20.5-17.83,40.41-26.75,59.75-26.75c15.66,0,27.83,5.84,36.5,17.5c8.66,11.67,13,28,13,49c0,25.67-6.42,52.34-19.25,80
		c-12.84,27.67-29.34,50.67-49.5,69c-20.17,18.34-40.59,27.5-61.25,27.5C4650.88,800.2,4638.56,794.45,4629.56,782.95z
		 M4719.06,741.95c7.66-9.83,13.66-23.08,18-39.75c4.33-16.66,6.5-34.83,6.5-54.5c0-16.66-1.84-28.66-5.5-36
		c-3.67-7.33-9.34-11-17-11c-9,0-17.42,4.59-25.25,13.75c-7.84,9.17-14.17,21.75-19,37.75c-4.84,16-7.25,33.84-7.25,53.5
		c0,34,8,51,24,51C4702.88,756.7,4711.38,751.78,4719.06,741.95z"/>
	<path fill="#FFFFFF" d="M4813.05,795.2c0-1.66,1.25-5.83,3.75-12.5c2.5-6.66,4.58-14.5,6.25-23.5l31-193
		c6.66-41.66,15.25-75.83,25.75-102.5c10.5-26.66,23.08-48.16,37.75-64.5c12.33-13.33,24-22.25,35-26.75s25-8.08,42-10.75
		c10-1.66,16.83-2.91,20.5-3.75c3.66-0.83,6-1.25,7-1.25c2.66,0,4,1.84,4,5.5c0,3-1.25,6.59-3.75,10.75
		c-2.5,4.17-5.59,8.09-9.25,11.75c-3,3-6.09,4.92-9.25,5.75c-3.17,0.84-8.09,1.42-14.75,1.75c-10.34,1-19.34,3.84-27,8.5
		c-7.67,4.67-15,12.17-22,22.5c-8.67,14-15.67,32.09-21,54.25c-5.34,22.17-11.84,57.25-19.5,105.25l-13.5,84h0.5l11.5-18.5
		c15.33-25,28.5-44.08,39.5-57.25c11-13.16,20.58-22.08,28.75-26.75c8.16-4.66,16.75-7,25.75-7c10.33,0,18.5,2.42,24.5,7.25
		c6,4.84,9,11.42,9,19.75c0,6.34-1.42,12.42-4.25,18.25c-2.84,5.84-6.09,8.75-9.75,8.75c-1.34,0-3.5-1-6.5-3
		c-3-2.66-6.09-4.75-9.25-6.25c-3.17-1.5-7.09-2.25-11.75-2.25c-8.67,0-16.34,2.5-23,7.5c-6.67,5-14.34,13.5-23,25.5l-24,34
		c25.66,56.67,44.66,85,57,85c6.66,0,15.83-8.16,27.5-24.5c2-3.33,3.75-5.83,5.25-7.5c1.5-1.66,3.25-2.5,5.25-2.5
		c3,0,4.5,2.5,4.5,7.5c0,2.67-0.17,4.67-0.5,6c-1,9.34-4.67,19.5-11,30.5c-6.34,11-13.75,20.25-22.25,27.75
		s-16.59,11.25-24.25,11.25c-9.67,0-19-6.16-28-18.5c-9-12.33-18.84-29.66-29.5-52l-10.5-22c-5.34,8.34-8.67,14-10,17l-6.5,34.5
		c-1.67,9.67-7.84,18.92-18.5,27.75c-10.67,8.83-21.17,13.25-31.5,13.25C4815.72,800.2,4813.05,798.53,4813.05,795.2z"/>
</g>
<g>
</g>
<g>
</g>
<g>
</g>
<g>
</g>
<g>
</g>
<g>
</g>
</svg>
