<?xml version="1.0" encoding="utf-8"?>
<!-- Generator: Adobe Illustrator 26.0.2, SVG Export Plug-In . SVG Version: 6.00 Build 0)  -->
<svg version="1.1" id="Layer_1" xmlns="http://www.w3.org/2000/svg" xmlns:xlink="http://www.w3.org/1999/xlink" x="0px" y="0px"
	 viewBox="0 0 284 264" style="enable-background:new 0 0 284 264;" xml:space="preserve">
<style type="text/css">
	.st0{fill:#010A13;}
	.st1{fill:#0D1C22;}
	.st2{fill:#EDEBD8;}
	.st3{fill:#F5BB7A;}
	.st4{fill:#777E7F;}
	.st5{fill:#EEEADB;}
	.st6{fill:#F59336;}
	.st7{fill:#DB161A;}
	.st8{fill:#2A343C;}
	.st9{fill:#0C1B21;}
	.st10{fill:#4A5C5C;}
	.st11{fill:#EEEADA;}
	.st12{fill:#2B333B;}
	.st13{fill:#6B3F1F;}
	.st14{fill:#AEB1AA;}
	.st15{fill:#495A5E;}
	.st16{fill:#ECF0ED;}
	.st17{fill:#F59230;}
	.st18{fill:#0E1D23;}
	.st19{fill:#546261;}
	.st20{fill:#F4BB7D;}
	.st21{fill:#2B343B;}
	.st22{fill:#47565A;}
	.st23{fill:#B3B6AD;}
	.st24{fill:#F3F1EA;}
	.st25{fill:#DA0C14;}
	.st26{fill:#F5F2E7;}
	.st27{fill:#232D34;}
	.st28{fill:#F0EEE6;}
	.st29{fill:#D3883C;}
	.st30{fill:#CED7D3;}
	.st31{fill:#F6F4EC;}
	.st32{fill:#F4F4EB;}
	.st33{fill:#A6ABA9;}
	.st34{fill:#B4BAB5;}
	.st35{fill:#E4E4DA;}
	.st36{fill:#D6D2C5;}
	.st37{fill:#EFCEA4;}
	.st38{fill:#5F7378;}
	.st39{fill:#54666D;}
	.st40{fill:#3C4950;}
	.st41{fill:#BF333C;}
	.st42{fill:#AF5855;}
	.st43{fill:#C0C4B7;}
	.st44{fill:#C4CACB;}
	.st45{fill:#BEC4C4;}
	.st46{fill:#C78D57;}
	.st47{fill:#790A15;}
	.st48{fill:#A7A89F;}
	.st49{fill:#862329;}
	.st50{fill:#454437;}
	.st51{fill:#0B0809;}
	.st52{fill:#040A12;}
	.st53{fill:#F2A94E;}
	.st54{fill:#E9C9A7;}
	.st55{fill:#07080D;}
	.st56{fill:#0C130E;}
	.st57{fill:#0A0E0B;}
	.st58{fill:#07090F;}
	.st59{fill:#0A0F12;}
	.st60{fill:#06080B;}
	.st61{fill:#111610;}
	.st62{fill:#080B07;}
	.st63{fill:#070A0D;}
	.st64{fill:#07090B;}
	.st65{fill:#0C0F0D;}
	.st66{fill:#222019;}
	.st67{fill:#9C632E;}
	.st68{fill:#131B16;}
	.st69{fill:#C4C8B8;}
	.st70{fill:#171D20;}
	.st71{fill:#13120B;}
	.st72{fill:#445252;}
	.st73{fill:#151712;}
	.st74{fill:#05070A;}
	.st75{fill:#3C463D;}
	.st76{fill:#F8F5E6;}
	.st77{fill:#F3E8D3;}
	.st78{fill:#E1E4EA;}
	.st79{fill:#DAE1E0;}
	.st80{fill:#C1CACA;}
</style>
<g>
	<path class="st0" d="M155.4,167.19c-8.29,6.33-16.84,12.24-26.52,16.32c-2.05,0.86-3.77,0.67-5.39-0.97
		c-1.68-1.7-3.52-3.25-5.07-5.08c-1.52-1.79-2.85-3.71-4.03-5.74c-6.09,3.75-11.78,3.4-16.58-0.97c-1.36-1.24-2.19-2.8-2.88-4.45
		c-0.25-0.59-0.44-0.68-1.09-0.47c-3.2,1.04-6.35-0.11-8.13-3.01c-0.5-0.82-0.8-0.13-1.07,0.01c-2.4,1.24-4.88,1.91-7.6,1.45
		c-1.16-0.19-2.2-0.59-2.9-1.56c-0.44-0.61-0.8-0.53-1.4-0.24c-5.13,2.47-10.55,3.8-16.21,4.25c-5.75,0.46-11.47,0.46-17.15-0.56
		c-2.77-0.5-5.55-0.98-8.15-2.13c-9.12-4.05-13.95-11.43-16.1-20.85c-0.13-0.57-0.26-0.8-0.82-1.05c-2.01-0.9-3.54-2.27-3.87-4.62
		c-0.14-1.03,0-2.07,0.76-2.75c2.85-2.57,6.02-4.6,9.98-5.5c-1.23-2.06-2.46-4.14-3.71-6.2c-2.36-3.89-5-7.61-7.12-11.65
		c-0.47-0.9-0.55-1.21,0.55-1.76c6.71-3.34,13.51-6.49,20.33-9.59c2.24-1.02,2.28-0.97,3.46,1.15c3.46,6.23,7.13,12.34,11.01,18.39
		c1.97-8.27,5.12-16.11,7.49-24.19c0.21-0.71,0.51-0.63,1.12-0.5c6.78,1.42,13.47,3.21,20.1,5.19c1.88,0.56,3.75,1.19,5.62,1.78
		c0.86,0.27,0.96,0.65,0.63,1.55c-1.23,3.33-2.31,6.72-3.23,10.21c0.41-0.7,0.84-1.4,1.22-2.11c1.54-2.9,3.68-5.32,6.07-7.52
		c2.23-2.05,4.64-2.13,7.18-0.4c2.64,1.8,3.51,4.13,2.42,6.92c-2.02,5.18-5.03,9.82-7.93,14.52c-0.86,1.4-1.48,2.92-2.18,4.4
		c-0.32,0.68-0.1,0.75,0.51,0.85c3.45,0.59,6.24,2.47,8.76,4.75c1.84,1.66,1.58,4.04-0.4,5.93c-1.01,0.97-2.19,1.7-3.55,1.89
		c-0.94,0.13-1.09,0.64-1.27,1.33c-0.79,3.1-1.89,6.08-3.68,9.05c1.4-0.44,2.65-0.8,3.88-1.22c2.66-0.9,5.36-1.63,8.16-2.06
		c1.78-0.27,3.51-0.99,5.23-1.6c3.47-1.25,7.09-1.2,10.7-1.34c5.18-0.2,10.15-1.58,15.15-2.8c1.89-0.46,3.78-0.88,5.77-1.33
		c-2.13-1.52-4.5-2.44-6.62-3.82c-6.88-4.47-10.64-11.01-12.66-18.8c-1.29-4.98-1.86-10.04-2.54-15.11
		c-0.61-4.6-1.58-9.17-1.8-13.82c-0.18-3.75-0.57-7.5-0.22-11.25c0.06-0.69-0.34-0.59-0.64-0.8c-4.64-3.3-9.41-6.48-11.55-12.15
		c-1.53-4.06-1.57-8.32-1.23-12.53c0.38-4.73,1.08-9.46,2.77-13.91c2.37-6.22,6.54-10.76,13.07-12.77c1.47-0.45,3-0.35,4.38,0.35
		c0.49,0.25,0.69,0.21,1.04-0.14c5.6-5.52,12.49-8.87,19.67-11.72c6.65-2.63,13.53-4.42,20.63-5.21c8.35-0.92,16.59-0.49,24.5,2.73
		c2.39,0.98,4.46,2.41,6.06,4.45c0.41,0.52,0.7,0.51,1.26,0.32c6.17-2.13,12.51-3.35,19.04-3.03c7.77,0.39,12.38,5.08,14,12.5
		c1.57,7.17,0.38,14.19-1.74,21.05c-1.68,5.45-3.41,10.93-6.48,15.81c-2.62,4.18-5.49,8.19-9.27,11.45
		c-1.01,0.87-2.14,1.57-3.44,1.8c-0.93,0.17-1.09,0.62-1.09,1.44c0,1.93-0.09,3.86-0.17,5.78c-0.06,1.66,0.12,1.83,1.73,1.43
		c3.39-0.85,6.79-1.42,10.31-1.06c3.7,0.39,7.25,1.36,10.74,2.58c3.11,1.09,6.23,2.06,9.62,1.49c0.97-0.17,1.84-0.52,2.54-1.12
		c4.82-4.12,10-7.8,14.59-12.2c2.25-2.16,3.47-4.95,5-7.64c1.15,6.49-4.1,24.36-8.28,27.93c5.32,0.23,9.22-2.63,13.48-5.57
		c-1.09,2.56-0.94,4.93-0.8,7.3c0.03,0.51,0.11,1.03,0.23,1.52c1.02,4.18-0.61,6.57-4.9,7.22c-3.84,0.58-7.65,1.37-11.52,1.83
		c-1.03,0.12-2.06,0.08-3.47,0.21c2.41,1.15,4.6,1.86,6.88,2.19c5.17,0.74,10.22,1.89,14.92,4.26c0.21,0.1,0.42,0.21,0.72,0.36
		c-0.87,0.63-1.8,1.1-2.28,2.04c-0.28,0.54-0.71,0.22-1.11,0.21c-4.59-0.07-9.34-1.02-13.7,0.69c-6.58,2.58-12,0.42-17.24-3.23
		c-4.16-2.9-8.2-5.97-12.65-8.44c-2.66-1.48-5.53-2.27-8.53-2.7c-2.08-0.3-3.53,1.06-5.26,1.7c-0.35,0.13-0.23,0.46-0.24,0.73
		c-0.1,2.73-0.18,5.45-0.3,8.18c-0.03,0.65,0.12,1.16,0.63,1.62c6.65,5.89,11.65,13.11,16.49,20.45c1.48,2.24,3.09,4.39,4.9,6.34
		c3.36,3.64,5.77,7.84,7.89,12.25c0.63,1.31,1.34,2.58,1.83,3.96c1.17,3.35,0.09,6.07-3.09,7.58c-0.92,0.44-1.9,0.76-2.87,1.15
		c1.38,3.09,2.71,6.18,5.29,8.52c3.52,3.19,7.48,5.08,12.37,4.46c1.72-0.22,3.51,0.88,4.27,2.63c0.73,1.68,1.15,3.46,1.43,5.26
		c0.13,0.83,0.41,1.21,1.36,1.09c2-0.25,3.78-1.06,5.54-1.94c1.05-0.52,1.77-0.54,2.65,0.47c1.91,2.21,3.31,4.77,5.11,7.06
		c0.33,0.42,0.32,0.96,0.32,1.48c5.3,6,2.64,13.64,0.02,17.51c-0.38,0.55-1.32,0.78-2.26,0.55c-1.91-0.46-1.9-1.56-2.75-3.05
		c-2.91-5.1-7.03-9.13-11.37-12.97c-0.22-0.19-0.43-0.64-0.86-0.13c-2.51,2.94-5.89,4.36-9.5,5.39c-4.26,1.21-8.56,0.97-12.86,0.44
		c-6.21-0.76-12.32-2-18.15-4.37c-0.84-0.34-1.53,0.04-2.27,0.23c-6.71,1.73-13.55,1.92-20.41,1.54c-3.23-0.18-6.49-0.22-9.59-1.36
		c-0.74-0.27-0.74,0.46-0.94,0.77c-3.29,5.03-7.56,9.02-12.93,11.63c-3.74,1.82-7.74,3.1-11.61,4.68c-1.95,0.79-3.21-0.35-4.5-1.45
		c-0.74-0.64-1.24-1.97-2.08-1.95c-0.77,0.01-1.52,1.09-2.28,1.7c-0.51,0.42-1.01,0.84-1.52,1.26c-0.45,0.38-0.9,0.75-1.63,1.38
		c2.07,0,3.84-0.01,5.61,0c27.06,0.16,54.12-0.02,81.18,0.42c5.65,0.09,11.26,0.8,16.89,0.99c7.61,0.25,15.23,0.64,22.85,0.3
		c0.44-0.02,0.93-0.26,0.99,0.55c0.06,0.78-0.34,0.81-0.91,0.84c-6.35,0.24-12.7,0.44-19.04,0.77c-4.93,0.26-9.84,0.69-14.77,1.02
		c-3.56,0.24-7.13,0.5-10.7,0.64c-9.45,0.39-18.92,0.42-28.37,0.24c-5.69-0.11-11.36-0.59-17.05-0.87c-7-0.35-14-0.71-21.02-0.75
		c-11.39-0.06-22.78-0.25-34.14-0.93c-7.63-0.46-15.3-0.71-22.85-2.19c-0.21-0.04-0.48,0.03-0.59-0.39
		c10.76-1.15,21.54-0.19,32.3-0.67c-4.34-5.17-7-11.12-9.13-17.35c-0.47-1.38-0.85-2.79-1.27-4.18c-0.11-0.35-0.38-0.76-0.05-1.04
		c0.34-0.28,0.82-0.13,1.21,0.01c1.45,0.52,2.91,1.04,4.34,1.61c3.96,1.57,8.22,2.19,12.11,3.97c2.14,0.98,2.75,1.77,3.23,4.34
		c1.45-2.4,2.7-4.65,3.57-7.12c1.54-4.41,2.75-8.97,5.04-13.09c1.76-3.17,4.04-5.84,7.3-7.62c2.71-1.48,3.94-4.31,5.7-6.66
		c1.83-2.44,0.78-5.03,0.71-7.58c-0.01-0.5-0.15-1-0.27-1.77c-1.41,1.4-2.82,2.59-4.38,3.59
		C155.42,166.41,155.52,166.94,155.4,167.19z"/>
	<path class="st1" d="M155.4,167.19c-0.73-0.8,0.34-0.84,0.43-1.32c0.54,0.29-0.32,0.62,0.17,0.84
		C155.79,166.88,155.6,167.03,155.4,167.19z"/>
	<path class="st2" d="M132.51,74.33c-4.75,0.18-9.5,0.27-14.19-0.56c-5.1-0.9-10.03-2.28-14.06-5.82c-2.74-2.4-4.45-5.32-4.47-9.02
		c-0.04-5.39,0.78-10.6,3.03-15.6c3.91-8.68,14.39-14.22,24.73-9.26c0.46,0.22,0.9,0.98,1.61,0.46c0.25-0.76-0.17-1.27-0.64-1.77
		c-0.95-1.01-2.19-1.55-3.4-2.13c-1.21-0.43-2.43-0.85-3.75-1.32c3.92-2.85,8.23-4.65,12.58-6.39c6.89-2.75,14.01-4.72,21.33-5.8
		c7.57-1.11,15.16-1.36,22.66,0.71c3.03,0.84,5.74,2.23,8.15,4.41c-2.44,1.05-5.07,1.63-7.08,3.58c0.99-0.25,1.97-0.5,2.96-0.76
		c1-0.26,1.99-0.54,2.98-0.81c5.32-1.42,10.66-2.53,16.25-1.93c7.55,0.8,11.72,5.58,13.53,12.26c1.94,7.2,0.77,14.18-1.68,21.02
		c-0.97,2.7-3.11,4.38-5.41,5.93c-5.05,3.41-10.73,5.06-16.65,6.03c-4.49,0.74-8.99,1.35-13.49,2.02c-0.22,0.1-0.53,0.2-0.58-0.09
		c-0.09-0.53,0.46-0.29,0.68-0.45c-1.82-0.15-3.55-0.81-5.44-1.07c0.46,0.38,0.99,0.5,1.4,0.81c0.19,0.15,0.37,0.34,0.12,0.56
		c-0.15,0.12-0.36,0.04-0.54-0.01c-0.76,0.04-1.38-0.4-2.13-0.74c2.1,2.56,12.12,6.35,16.84,6.53c-3.94,1.75-8.09,2.07-12.34,1.74
		c0.29-0.89,1.06-0.55,1.65-0.61c1.14-0.13,2.33,0.21,3.43-0.48c-1.39-0.19-2.8-0.32-4.18-0.41c-3.14-0.21-6.23-0.6-9.21-1.62
		c-0.97-0.33-1.05,0.12-0.82,0.88c0.51,0.56,1.02,1.11,1.54,1.67c1.47,1.38,2.88,2.81,4.46,4.06c1.6,1.27,3.46,1.95,5.45,2.05
		c4.17,0.2,8.34,0.17,12.41-1.03c1.67-0.49,3.26-1.18,4.92-1.69c0.57-0.18,0.94-0.6,1.25-1.08c0.89-0.01,0.64,0.69,0.61,1.11
		c-0.41,5.25-0.69,10.51-0.85,15.77c-0.04,1.44-1.25,1.75-2.29,2.09c-3.18,1.03-6.5,1.48-9.79,1.89c-11.98,1.47-24,2.58-36.09,2.74
		c-5.36,0.07-10.69-0.56-16.02-1.1c-3.73-0.38-7.5-0.41-11.21-1c-2.08-0.33-4.14-0.84-6.26-0.91c-0.34-0.47-0.1-0.94,0.12-1.32
		c1.41-2.54,1.55-5.39,2.03-8.15c0.23-1.3,0.37-2.61,0.81-3.86c0.52-1.51,1.1-1.93,2.68-2c1.75-0.08,3.47,0.22,5.19,0.37
		c5.14,0.44,10.22,0.13,15.24-1.07c1.48-0.35,2.84-1,4-2c0.57-0.49,1.18-1.07,0.86-1.92c-0.31-0.81-1.09-0.76-1.81-0.73
		c-0.33,0.02-0.66,0.05-0.97-0.11c-6.23,0.49-12.46,0.43-18.68-0.08c-2.89-0.23-5.76-0.73-8.64-1.13c-0.35-0.05-0.68-0.26-1-0.51
		c1.53,0.17,3.05,0.34,4.58,0.51c3.12,0.34,6.03-0.73,9-1.35c1.74-0.36,3.46-0.82,5.19-1.24c0.78-0.65,1.85-0.5,2.56-0.92
		c0.31-0.13,0.05-0.35,0.16-0.19c0.03,0.05,0.01,0.09-0.06,0.13C134.7,74.05,133.61,74.2,132.51,74.33z"/>
	<path class="st1" d="M183.66,167.27c-0.66-1.15-1.98-1.22-3-1.65c-2.16-0.91-4.05-2.33-6.26-3.14c-2.15-0.79-4.25-1.7-6.38-2.54
		c-0.75-0.3-1.55-0.52-1.59-1.54c-0.04-0.96,0.73-1.21,1.38-1.58c5.44-3.11,11.02-5.98,16.07-9.74c1.49-1.11,3.08-2.09,4.47-3.33
		c0.21-0.18,0.81-0.35,0.11-0.9c-0.57-0.44,0.33-0.77,0.57-1.15c0.21-0.34,0.78-0.62,0.4-1.05c-0.35-0.39-0.65,0.17-0.93,0.34
		c-4.29,2.59-8.53,5.24-12.84,7.79c-3.98,2.36-7.96,4.73-12.03,6.94c-2.21,1.19-4.32,2.61-6.46,3.93c-5.18,3.2-10.5,6.1-16.86,6.27
		c-1.14,0.03-2.35,0.26-3.54,0.65c-1.77,0.58-3.67,0.04-5.33-0.72c-5.35-2.47-9.99-5.74-12.18-11.57c0.68-0.59,1.56-0.67,2.37-0.81
		c3.85-0.66,7.59-1.78,11.34-2.85c1.7-0.48,3.35-1.22,4.99-1.89c4.48-1.83,9.13-3.21,13.47-5.38c4.67-2.34,8.73-5.49,12.66-8.87
		c1.18-1.01,2.36-2.02,3.43-3.14c2.87-3.01,6.26-5.23,10.24-6.49c0.56-0.18,1.01-0.5,1.38-0.93c0.97-1.11,0.73-1.95-0.69-2.33
		c-0.27-0.07-0.56-0.11-0.74-0.36c0.94-1.19,2.35-1.29,3.66-1.37c3.61-0.22,7.21-0.09,10.67,1.14c0.35,0.12,0.7,0.28,1,0.49
		c3.87,2.63,7.66,5.37,10.99,8.69c0.53,0.53,1.15,0.96,1.71,1.45c1.31,1.13,2.19,2.46,2.48,4.23c0.54,3.22,2.28,6.11,2.68,9.39
		c0.52,4.2-0.11,8.01-3.24,11.15c-1.62,1.63-3.4,3.09-5.13,4.6c-0.75,0.66-1.83,1.25-1.42,2.59c0.12,0.33-0.07,0.55-0.29,0.72
		c-2.78,2.21-5.62,4.22-9.46,3.96c-1.77-0.12-3.56,0.07-5.33-0.07C185.21,168.14,184.15,168.37,183.66,167.27z"/>
	<path class="st1" d="M166.43,176.03c3.47,0.51,6.68,2.11,10.19,2.39c2.19,0.18,4.34,0.79,6.54,0.69c1.33-0.06,2.6,0.34,3.92,0.31
		c5.89-0.11,11.57-1.26,17.22-2.91c3.81-1.11,7.51-2.52,11.29-3.72c1.95-0.61,3.82-1.53,5.81-2.09c0.83-0.24,1.21-0.1,1.55,0.8
		c0.68,1.81,1.46,3.61,2.41,5.3c0.61,1.09,0.32,2.04-0.45,2.44c-1,0.52-1.55-0.57-1.95-1.33c-0.5-0.94-0.86-1.95-1.3-2.95
		c-0.65,0.36-0.34,0.76-0.26,1.14c0.36,1.68,0.7,3.37,0.49,5.11c-0.17,1.49-1.16,2.52-2.01,3.64c-0.88,1.15-1.75,2.31-2.61,3.48
		c-0.24,0.33,0.06,0.36,0.29,0.4c0.04,0.56-0.4,0.72-0.78,0.86c-4.88,1.82-9.66,3.91-14.62,5.53c-6.6,2.16-13.26,2.34-20.05,1.2
		c-3.3-0.55-6.57-1.21-9.8-2.04c-3.46-0.88-6.53-2.66-9.15-5.1c-1.51-1.41-2.33-3.28-2.96-5.23c-0.41-1.26,0.28-2.21,0.98-3.09
		C162.67,179,164.41,177.37,166.43,176.03z"/>
	<path class="st3" d="M176.59,116.88c-6.81,2.75-12.3,7.44-17.93,11.97c-4.64,3.72-9.21,7.58-14.73,10.03
		c-1.12,0.5-2.23,1.02-3.51,0.66c0.53-0.91,1.61-0.67,2.36-1.11c1.56-0.14,2.41-1.57,3.84-2.1c-0.95-0.33-1.53-0.94-1.82-1.83
		c0.14-0.87,0.84-1.35,1.42-1.87c2.34-2.09,3.75-4.8,5.14-7.51c0.71-1.39,0.45-1.73-1.04-2.18c-1.99-0.61-3.62-0.51-5.2,1.2
		c-1.51,1.65-3.51,2.81-5.41,4.03c-1.53,0.98-3.27,1.32-5.13,1.73c1.2,1.87,2.57,3.32,4.11,4.64c0.68,0.58,1.64,0.95,1.77,2.03
		c-0.22,0.23-0.49,0.35-0.8,0.36c-2.58,0.13-5.02-0.58-7.48-1.2c-2.71-0.69-5.2-1.9-6.89-4.13c-2.09-2.77-3.81-5.8-4.18-9.38
		c-0.16-1.58-0.54-3.13-0.68-4.72c-0.15-1.69,0.21-3.36-0.06-5.05c-0.15-0.96,0.61-1.54,1.52-1.44c3.32,0.4,6.59-0.45,9.96,0.04
		c3.98,0.59,8.08,0.32,12.11,0.1c4.92-0.27,9.84-0.69,14.7-1.61c1.43-0.27,2.86-0.54,4.31-0.76c0.92-0.14,1.79-0.06,2.5,0.63
		c2.83,2.78,6.38,4.44,9.79,6.33C175.76,116.04,176.41,116.18,176.59,116.88z"/>
	<path class="st4" d="M85.05,145.22c-0.27,0.57-0.54,1.14-0.81,1.71c-0.95,0.27-1.55,0.93-2.17,1.68c-3.69,4.46-7.93,8.1-13.77,9.51
		c-3.29,0.79-6.58,1.52-9.94,1.92c-3.71,0.59-7.45,1.06-11.19,1c-3.31-0.05-6.64-0.25-9.88-1.17c-1.89-0.54-3.83-0.92-5.74-1.38
		c-0.82-0.2-1.33,0.28-1.91,0.65c-1.66-2.44-4.4-3.9-5.85-6.56c-1.01-1.86-1.95-3.76-2.93-5.63c-0.48-0.93-0.2-1.31,0.88-1.25
		c2.02,0.12,3.96,0.81,5.97,0.98c1.64,0.14,3.22,0.66,4.87,0.72c4.6,0.67,9.25,0.75,13.88,1.06c3.09,0.21,6.21,0.06,9.31,0.04
		c2.64-0.01,5.27-0.05,7.9-0.01c5.6,0.1,11.04-0.87,16.45-2.2c0.92-0.23,1.7-0.82,2.64-0.95c0.5-0.21,1.17,0.88,1.55-0.21
		C84.58,145,84.83,144.99,85.05,145.22z"/>
	<path class="st5" d="M48.69,117.85c0.93-3.49,2.29-6.83,3.52-10.21c1.06-2.9,1.7-5.94,2.95-8.78c0.21-0.47,0.25-0.76,0.95-0.56
		c6.65,1.96,13.34,3.8,20.14,5.19c0.88,0.18,1,0.38,0.69,1.21c-2.98,7.86-4.11,16.15-5.42,24.39c-0.14,0.87-0.23,1.53-1.36,0.96
		c-0.27-0.14-0.65-0.09-0.98-0.09c-1.26,0-2.54,0.1-2.48-1.8c0.02-0.49-0.56-0.73-0.99-0.92c-2.49-1.11-5.11-1.54-7.82-1.47
		c-0.46,0.01-0.94,0.16-1.07,0.56c-0.44,1.36-1.08,0.66-1.84,0.33c-1.88-0.82-3.97-1.06-5.82-2c-0.97-1.06-0.1-1.88,0.37-2.75
		c3.06,0.49,5.96,1.66,9.02,2.2c2.72,0.48,5.41,1.08,8.09,0.97c-5.23-0.19-10.33-1.51-15.37-3.17c-0.3-0.08,0.14-0.49-0.15-0.46
		c-1.35,0.11-1.81-0.6-1.96-1.82C49.09,119.03,48.81,118.45,48.69,117.85z"/>
	<path class="st6" d="M142.98,138.74c-0.85,0.26-1.7,0.53-2.56,0.79c-3.02-0.69-5.93-1.72-8.85-2.72
		c-6.43-2.21-10.47-6.76-12.58-13.1c-1.87-5.59-2.76-11.4-3.54-17.22c-0.11-0.82-0.01-1.33,0.96-1.09c1.81,0.45,3.45-0.69,5.21-0.54
		c7.87,0.66,15.73,1.43,23.63,1.55c6.82,0.1,13.63-0.16,20.42-0.92c0.42-0.05,0.79-0.17,1.18,0.17c4.7,4.17,10.23,6.94,15.95,9.39
		c0.04,0.02,0.06,0.07,0.12,0.17c-2.12,0.56-4.22,1.11-6.31,1.66c-3.03-1.48-5.97-3.11-8.78-4.97c-0.47-0.31-1.06-0.56-1.35-1
		c-1.3-1.93-3.05-1.94-5.08-1.51c-5.22,1.11-10.51,1.7-15.84,2.03c-4.33,0.27-8.64,0.1-12.96,0.18c-0.55,0.01-1.12-0.1-1.66-0.25
		c-1.92-0.51-3.83-0.17-5.71,0.11c-1.16,0.17-2.22-0.22-3.34-0.14c-0.94,0.07-1.4,0.48-1.16,1.31c0.52,1.8-0.05,3.6,0.17,5.43
		c0.41,3.38,0.88,6.73,2.43,9.78c1.97,3.87,4.82,6.74,9.34,7.55c2.1,0.38,4.08,1.38,6.31,1.01c0.27-0.05,0.6,0.23,0.91,0.36
		c0.69,0.04,1.37-0.13,2.06-0.06C143.18,136.81,143.52,137.47,142.98,138.74z"/>
	<path class="st7" d="M225.75,94.11c2.96,1.06,5.77,2.2,7.91,4.79c1.21,1.46,3.39,1.79,5.31,1.91c4.55,0.29,9.1,0.44,13.54-1
		c0.99-0.32,1.91-0.77,2.78-1.31c0.6-0.37,0.82-0.26,0.94,0.38c0.05,0.27,0.2,0.53,0.23,0.81c0.26,2.54,0.32,2.41-1.87,2.72
		c-2.63,0.37-5.21,1.1-7.84,1.54c-4.68,0.8-9.39,1.43-14.1,0.31c-1.45-0.34-2.76-1.05-3.98-1.98c-2.95-2.24-5.4-5.06-8.57-7.04
		c-3.39-2.11-7-2.81-10.86-2.09c-1.91,0.36-3.78,0.95-5.83,0.9c0.57,1.48,1.78,2.08,2.93,2.61c5.33,2.47,10.66,4.94,16.06,7.28
		c1.83,0.79,3.64,1.7,5.6,2.18c2.52,0.61,4.25,2.49,6.26,3.92c3.63,2.59,7.42,4.59,12.07,4.45c1.91-0.05,3.79,0.42,5.63,1.08
		c-0.38,0-0.77,0.02-1.15,0c-2.6-0.16-5.16,0.19-7.68,0.77c-1.62,0.37-3.13,0.16-4.67-0.44c-3.17-1.24-6.48-2.23-9.25-4.26
		c-3.86-2.82-7.97-5.24-12.08-7.65c-4.22-2.47-8.66-4.2-13.72-3.46c-0.91,0.13-1.35-0.48-1.93-1.21c-1.69-2.14-2.23-4.47-2.01-7.09
		c0.06-0.71,0.2-1.04,1-1.19c4.12-0.82,8.25-1.13,12.45-0.97c3.15,0.12,5.91,1.29,8.63,2.68c0.25,0.13,0.53,0.18,0.79,0.27
		C223.36,93.72,224.57,93.86,225.75,94.11z"/>
	<path class="st1" d="M216.32,197.89c2.18-0.64,3.97-1.93,5.95-2.81c1.39-0.62,2.77-1.27,4.16-1.9c0.66-0.3,1.3-0.61,1.3-1.48
		c0-0.14,0-0.37,0.07-0.4c1.6-0.73,1.57-2.58,2.54-3.77c0.97-1.2,1.69-2.69,2.16-4.22c0.19-0.61,0.55-0.55,0.96-0.25
		c3.02,2.24,6.41,2.31,9.93,1.75c1.55-0.25,3.1,1.2,3.22,3.12c0.1,1.73,0.04,3.48,0.02,5.22c-0.01,1-0.7,1.64-1.39,2.19
		c-3.32,2.62-6.83,4.65-11.29,4.74c-4.17,0.09-8.27-0.2-12.33-1.15C219.87,198.52,218.09,198.23,216.32,197.89z"/>
	<path class="st8" d="M177.72,121.23c0.77,0.14,1.7-0.37,2.22,0.72c0.54,1.13-0.32,2.81-1.82,3.23c-3.84,1.07-7.05,3.16-9.84,5.95
		c-3.95,3.95-8.2,7.58-12.93,10.53c-3.54,2.2-7.39,3.91-11.38,5.25c-3.3,1.11-6.49,2.52-9.77,3.7c-1.62,0.59-3.32,0.94-4.97,1.46
		c-2.99,0.94-6.1,1.37-9.12,2.17c-0.27,0.07-0.56,0.03-0.84,0.04c-0.69-1.03-0.6-1.38,0.79-1.82c3.2-1.02,6.27-2.46,9.41-3.69
		c4.05-1.58,8.14-3.07,12.18-4.68c2.42-0.97,4.79-2.07,7.16-3.17c3.83-1.78,7.5-3.8,10.87-6.38c2.87-2.2,5.65-4.48,8.23-7
		c2.7-2.65,5.85-4.65,9.27-6.23C177.33,121.22,177.53,121.25,177.72,121.23z"/>
	<path class="st9" d="M153.72,184.5c0.7-0.42,0.53,0.2,0.56,0.5c0.35,4.23,1.02,8.43,1.51,12.65c0.42,3.66,2.02,6.98,4.91,9.49
		c0.88,0.76,0.96,1.13-0.29,1.6c-2.93,1.11-5.86,2.24-8.91,2.96c-2.73,0.64-5.49-0.09-8.22-0.42c-0.54-0.07-0.61-0.67-0.87-1.04
		c0.6-1.74,1.82-3.14,2.63-4.77c1.98-3.95,3.82-7.95,5.09-12.18c0.62-2.05,1.48-3.96,2.59-5.75
		C153.31,186.57,153.66,185.6,153.72,184.5z"/>
	<path class="st10" d="M81.47,141.33c-1.09,0.55-2.31,0.32-3.45,0.45c-3.12,0.35-6.27,0.46-9.4,0.65
		c-5.86,0.36-11.71,0.75-17.57,1.04c-4.04,0.2-8.07-0.2-12.11-0.34c-3.47-0.12-6.9-0.62-10.35-0.97c-4.05-0.42-8.1-0.79-12.03-1.99
		c-1.11-0.34-2.07-0.88-2.93-1.62c-0.41-0.35-1.06-0.74-0.71-1.37c0.38-0.7,1.06-1.15,1.95-1.01c0.16,0.02,0.29,0.27,0.47,0.04
		c0.53-0.11,0.72,0.34,0.99,0.62c0.66,0.66,1.44,0.98,2.37,0.99c7.38,1.06,14.78,1.47,22.23,1.35c8-0.13,15.99,0.51,23.99,0.25
		c4.6-0.15,9.2-0.54,13.8-0.74c1.97-0.09,3.93-0.31,5.91-0.29c0.29,0.1,0.84,0.23,0.68,0.5c-0.26,0.42-0.08,1.09-0.81,1.29
		c-1.04,0.29-1.92,1.11-3.11,0.94c0,0-0.03,0.09-0.02,0.13C81.39,141.27,81.44,141.3,81.47,141.33z"/>
	<path class="st11" d="M21.24,123.83c-2.36-3.76-4.71-7.53-7.1-11.28c-0.41-0.65-0.15-0.84,0.41-1.11
		c4.63-2.16,9.26-4.34,13.87-6.54c1.43-0.69,2.81-1.49,4.25-2.25c1.54,3.2,3.79,5.95,5.29,9.12c-0.03,1.59-1.24,2.93-2.68,2.72
		c-0.69-0.1-0.68,0.49-1.08,0.63c-0.52,0.19-1.04,0.4-1.53,0.67c-1.13,0.54-2.17,1.24-3.29,1.8c-0.42,0.21-0.79,0.5-0.83,1.03
		c-0.32,1.6-1.17,2.74-2.82,3.11c-0.62,0.14-0.92,0.58-1.29,0.97c-0.32,0.22-0.76-0.14-1.09,0.36
		C22.88,123.77,22.06,123.9,21.24,123.83z"/>
	<path class="st12" d="M166.43,176.03c0.02,0.51-0.39,0.68-0.71,0.95c-1.89,1.6-3.82,3.16-5.03,5.4c-0.22,0.4-0.34,0.74-0.2,1.17
		c0.75,2.34,1.77,4.46,3.75,6.1c3.61,3,7.86,4.35,12.35,5.26c5.56,1.14,11.16,2.12,16.84,1.68c4.02-0.31,7.91-1.45,11.7-2.84
		c3.81-1.4,7.56-2.95,11.33-4.43c0.39-0.15,0.81-0.25,1.1-0.58c3.87-2.12,7.57-4.49,10.9-7.41c0.2-0.18,0.38-0.49,0.7-0.38
		c0.42,0.14,0.26,0.55,0.27,0.86c0.03,1.12-0.7,1.96-1.35,2.67c-2.88,3.2-6.36,5.59-10.27,7.42c-5.92,2.77-12.2,4.05-18.6,5.1
		c-4.16,0.68-8.3,0.91-12.46,0.74c-5.11-0.22-10.09-1.19-14.95-2.88c-3.53-1.23-6.86-2.75-9.85-4.98c-2.23-1.66-3.93-3.68-4.37-6.58
		c-0.25-1.68,0.49-3.02,1.32-4.29c1.1-1.68,2.4-3.23,3.61-4.84c0.41-0.55,0.71-0.66,1.3-0.09
		C164.58,174.83,165.09,176.01,166.43,176.03z"/>
	<path class="st13" d="M88.7,105.43c2.07,0,4.03,2.86,3.3,4.6c-1.3,3.09-3.17,5.84-5.02,8.6c-2.06,3.08-3.92,6.27-5.44,9.66
		c-0.88,1.96-2.08,3.79-2.44,5.96c-0.12,0.72-0.55,0.73-1.11,0.33c-0.81-0.56-1.6-1.21-2.5-1.57c-1.22-0.48-1.4-1.23-1.14-2.37
		c1-4.47,1.72-9.02,3.84-13.17c1.77-3.46,4.13-6.48,6.79-9.29c0.92-0.97,1.58-2.26,3.05-2.59C88.3,105.57,88.57,105.47,88.7,105.43z
		"/>
	<path class="st14" d="M142.62,78.37c0.3-0.11,0.6-0.29,0.91-0.33c0.96-0.1,1.98-0.12,2.43,0.93c0.44,1.05-0.31,1.82-1.01,2.42
		c-1.34,1.15-2.93,1.87-4.64,2.24c-5.01,1.08-10.07,1.47-15.19,0.93c-1.72-0.18-3.46-0.19-5.18-0.33c-1.15-0.1-1.72,0.46-2.06,1.47
		c-0.78,2.32-0.9,4.77-1.33,7.15c-0.36,2.01-0.78,3.94-1.97,5.64c-0.12,0.16-0.06,0.45-0.09,0.68c-0.66-1.25-0.64-2.65-0.75-3.98
		c-0.38-4.34-0.91-8.68-1.02-13.05c-0.02-0.91,0.12-1.25,1.06-0.77c1.12,0.57,2.28,0.87,3.49,0.21c0.15-0.08,0.37-0.07,0.55-0.05
		c4.46,0.38,8.91,0.27,13.36-0.13c3.59-0.32,7.07-1.25,10.53-2.25C142.11,79.03,142.46,78.82,142.62,78.37z"/>
	<path class="st15" d="M18.97,143.88c2.69-0.07,5.28,0.69,7.93,0.93c1.3,0.12,2.59,0.36,3.9,0.43c7.71,0.42,15.42,0.47,23.13,0.23
		c7.04-0.21,14.07-0.56,21.11-0.83c3.37-0.13,6.73-0.56,10.09-0.84c0.08-0.01,0.19,0.04,0.24,0.1c0.04,0.04-0.01,0.15-0.01,0.23
		c-0.23,0.51-0.65,0.7-1.16,0.91c-4.01,1.61-8.23,2.17-12.47,2.63c-4.53,0.49-9.09,0.41-13.63,0.64
		c-5.45,0.28-10.89,0.19-16.32-0.02c-2.69-0.1-5.43-0.07-8.1-0.64c-3.9-0.35-7.72-1.16-11.55-1.9
		C20.86,145.5,19.76,144.94,18.97,143.88z"/>
	<path class="st16" d="M85.06,138.73c-7.7,0.41-15.4,1.18-23.1,1.16c-11.47-0.03-22.96,0.03-34.42-0.62
		c-3.13-0.18-6.25-0.73-9.37-1.11c-0.54-0.92-0.37-1.36,0.78-1.24c0.88,0.09,1.78-0.11,2.66,0.11c8.59,0.38,17.19,0.46,25.76,0.8
		c5.4,0.21,10.81,0.58,16.21,0.56c4.54-0.02,9.09-0.57,13.63-0.84c2.91-0.18,5.82-0.27,8.72-0.42c0.8-0.04,1.7,0.18,2.19-0.85
		c0.14-0.3,0.48-0.03,0.66,0.2c-0.1,1.45-0.6,1.97-2.09,2.28C86.15,138.86,85.61,138.67,85.06,138.73z"/>
	<path class="st17" d="M110.3,162.18c0.35,0.85,0.7,1.7,1.06,2.54c0.13,0.88,0.48,1.69,0.99,2.39c0.69,0.95,0.41,1.61-0.41,2.23
		c-4.53,2.55-10.58,1.15-12.76-3.06c-0.86-1.65-1.4-3.47-2.09-5.21c0.1-0.66-0.13-1.3-0.12-1.95c0.01-0.55-0.11-1.16,0.62-1.4
		c0.59-0.11,0.98,0.18,1.31,0.62c3.21,4.28,5.03,3.32,8.8,2.14c0.27-0.08,0.5-0.26,0.76-0.36c0.81-0.3,1.4-0.24,1.36,0.85
		C109.79,161.43,109.77,161.93,110.3,162.18z"/>
	<path class="st18" d="M196.62,114.2c-1.17-0.55-2.21-0.94-3.14-1.5c-3.24-1.95-6.92-2.84-10.35-4.33
		c-1.28-0.55-2.54-1.03-3.65-1.88c-0.07-0.06-0.19-0.16-0.24-0.14c-1.64,0.86-2.16-1.54-3.65-1.19c1.47-0.45,2.97-0.46,4.4-0.52
		c3.65-0.16,7.27-0.66,10.9-0.95c1.15-0.09,2.28-0.51,3.42-0.74c1.48-0.31,1.78-0.09,1.75,1.4
		C196.02,107.57,196.12,110.79,196.62,114.2z"/>
	<path class="st19" d="M29.45,159.08c0.48-1.27,1.36-1.24,2.51-0.92c4.79,1.35,9.66,2.47,14.64,2.51c2.76,0.02,5.59-0.04,8.35-0.6
		c1.18-0.24,2.4-0.28,3.6-0.41c0.43,1.87,1.5,2.53,3.47,2.13c0.59-0.12,1.25-0.33,1.32,0.65c-5.92,1.09-11.87,1.41-17.89,0.99
		c-3.51-0.25-6.97-0.67-10.39-1.46c-2.21-0.51-4.27-1.34-6.17-2.58C28.97,159.12,29.13,158.95,29.45,159.08z"/>
	<path class="st20" d="M110.3,162.18c-0.85,0.47-0.6-0.3-0.6-0.6c-0.03-1.11-0.05-1.77-1.48-0.92c-1.27,0.76-2.82,1.09-4.31,1.19
		c-2.36,0.17-3.92-1.28-5.18-3.05c-0.27-0.39-0.37-0.85-0.93-0.89c-0.28-1.4,0.96-2.12,1.68-2.64c1.19-0.86,2.01-2.03,3.04-3
		c0.98-0.92,2.11-1.17,3.28-1.36c0.96-0.16,1.96-0.03,2.94-0.03c0.95-0.01,1.35,0.37,0.9,1.3c-0.48,0.98-0.44,2.09-0.84,3.1
		c0.14-0.18,0.2-0.45,0.51-0.4C109.34,157.36,109.74,159.78,110.3,162.18z"/>
	<path class="st21" d="M183.66,167.27c0.98,0.48,2.04,0.57,3.11,0.57c1.78-0.01,3.57-0.03,5.35,0.01c2.14,0.04,4.03-0.66,5.74-1.88
		c1.1-0.78,2.19-1.58,3.28-2.38c3.4-1.77,6.76-3.63,10.22-5.28c1.63-0.78,3.02-1.86,4.51-2.81c0.58-0.37,2.46-0.09,2.85,0.46
		c0.32,0.45-0.06,0.61-0.35,0.71c-5.59,1.9-9.67,6.33-14.91,8.82c-3.97,1.88-8.07,3.17-12.46,3.48c-1.16,0.08-2.34,0.14-3.49,0.32
		c-4.02,0.61-7.89-0.2-11.76-1.17c-0.36-0.3-0.33-0.88-0.83-1.09c-0.41-0.17-1.05-0.26-0.82-0.88c0.2-0.55,0.73-0.81,1.37-0.57
		C178.11,166.58,180.84,167.12,183.66,167.27z"/>
	<path class="st22" d="M63.33,162.44c-0.42-0.8-0.97-0.43-1.53-0.2c-0.84,0.34-3-0.48-3.41-1.26c-0.25-0.48-0.07-0.9,0.15-1.31
		c4.67-0.64,9.39-1.3,13.67-3.29c3.91-1.83,7.16-4.71,9.76-8.23c0.54-0.72,0.93-1.91,2.26-1.2c-1.53,3.81-3.81,7.09-7.08,9.61
		C73.06,159.69,68.42,161.61,63.33,162.44z"/>
	<path class="st23" d="M196.36,78.58c0.48,0.8-0.06,1.1-0.68,1.33c-4.73,1.74-9.5,3.26-14.65,2.95c-1.59-0.1-3.17,0.07-4.77-0.29
		c-2.54-0.57-4.52-1.96-6.25-3.82c-0.75-0.8-1.94-1.21-2.15-2.48c2.47,1.2,4.76,2.8,7.6,3.2c3.62,0.52,7.21,0.31,10.81-0.17
		c2.09-0.28,4.17-0.52,6.23-1.08C193.73,77.88,195.1,78.17,196.36,78.58z"/>
	<path class="st24" d="M26.93,135.14c0.02-2.61,2.18-3.4,3.57-4.76c0.32-0.31,0.85-0.17,1.26,0.22c0.53,0.5,0.83,0.27,0.81-0.42
		c-0.04-1.27,0.6-1.18,1.4-0.69c2.25,1.38,4.54,1.92,7.22,1.14c1.38-0.4,2.93,0.22,4.22,1.07c0.46,0.31,0.89,0.81,1.46,0.78
		c1.2-0.06,0.92,0.81,0.95,1.43c0.04,0.89-0.7,0.59-1.13,0.58c-3.1-0.03-6.19,0.04-9.29-0.2C33.91,134.03,30.4,134.12,26.93,135.14z
		"/>
	<path class="st25" d="M248.63,85.67c-1.87,4.44-4.98,7.57-9.63,9.04c-0.98,0.31-1.98,0.55-2.99,0.76c-0.44,0.09-1.03,0.24-1.3-0.23
		c-0.26-0.46,0.31-0.75,0.56-1c3.64-3.67,7.07-7.57,11.18-10.76c0.74-0.57,1.44-1.18,2.16-1.77c0.98-0.52,1.18-0.42,1.15,0.58
		l0,0.01C249.32,83.39,249.05,84.55,248.63,85.67z"/>
	<path class="st26" d="M24.36,122.64c0.12-0.6,0.09-1.13,1.07-1.21c1.71-0.13,2.49-1.44,2.9-2.99c0.82-1.29,2.4-1.47,3.48-2.39
		c0.24-0.2,0.57-0.3,0.78-0.56c0.65-0.61,1.94-0.36,2.15-1.59c0.01-0.04,0.15-0.08,0.23-0.08c1.72,0.07,2.13-0.21,3.01-2.07
		c0.75,0.91,1.07,2.05,1.65,3.06c0.2,0.72-0.25,0.56-0.64,0.48c-0.57-0.18-0.67,0.05-0.5,0.55c0.21,0.63,0.7,1.1,0.99,1.68
		c0.09,0.51,0.2,0.98,0.86,1.04c0.53,0.05,0.73,0.33,0.41,0.83c-2.97,1.14-5.6,3.07-8.73,3.86c-0.72,0.01-1.44,0.14-2.13-0.19
		c-0.11-0.09-0.19-0.2-0.24-0.33c0-0.51,0.03-1-0.64-1.2c-0.3-0.09-0.3-0.42-0.18-0.71c1.56-1.14,3.44-1.64,5.08-2.63
		c0.67-0.4,1.36-0.77,1.96-1.28c-2.52,1.9-5.6,2.76-8.22,4.47c-0.76,0.33-1.48,0.74-2.18,1.18c-0.29,0.14-0.59,0.29-0.93,0.18
		C24.46,122.73,24.41,122.69,24.36,122.64z"/>
	<path class="st27" d="M153.72,184.5c0.51,0.81,0.37,1.57-0.15,2.33c-1.87,2.72-2.96,5.77-3.79,8.92c-0.53,2-1.61,3.76-2.37,5.66
		c-1.25,3.14-2.77,6.19-4.99,8.81c-1.93-2.59-1.92-2.63,0.03-5.29c2.88-3.92,4.54-8.43,6.28-12.92c0.79-2.03,1.46-4.13,2.98-5.82
		C152.31,185.52,153,185.01,153.72,184.5z"/>
	<path class="st28" d="M72.73,135.55c-7.49-0.16-14.9-0.31-22.36-0.46c0.15-0.69,0.66-1.07,1.19-1.46c0.49-0.36,1.03-0.73,1.24-1.32
		c0.27-0.76,0.35-1.54,1.43-0.66c0.41,0.34,1.07-0.07,1.35-0.47c0.57-0.81,1.07-0.47,1.64-0.07c1.51,1.06,3.09,1.93,4.97,2.14
		c0.95,0.1,1.86,0.03,2.73-0.43C68.11,131.13,71.11,132.17,72.73,135.55z"/>
	<path class="st29" d="M223.93,149.87c0.51,0.18,0.74,0.62,0.93,1.03c1.15,2.61,2.41,5.18,3.16,7.95c0.15,0.54,0.19,1.2,0.54,1.57
		c1.21,1.32,0.19,1.68-0.81,1.97c-0.91,0.27-1.74,1.52-2.53,0.95c-0.55-0.39-0.41-1.73-0.6-2.65c-0.53-2.48-1.4-4.86-2.34-7.2
		c-0.45-1.13-0.49-1.9,0.6-2.57C223.3,150.67,223.42,150.06,223.93,149.87z"/>
	<path class="st30" d="M33.44,147.47c10.66,1.03,21.32,0.53,31.99,0.23c4.98-0.14,9.92-0.82,14.83-1.68c1.8-0.32,3.49-1.02,5.1-1.91
		c-0.1,0.37-0.2,0.73-0.3,1.1c-0.27,0.02-0.54,0.04-0.82,0.06c-0.23,0.29-0.49,0.43-0.85,0.23c-7.8,3.05-15.95,3.57-24.21,3.42
		c-5.82-0.11-11.66,0.05-17.47-0.31c-3.13-0.2-6.27-0.39-9.38-0.86C32.54,147.02,33.03,147.42,33.44,147.47z"/>
	<path class="st31" d="M49.22,122.13c0.27,0.47,1,0.95-0.09,1.38c-0.29,0.12-0.22,0.4,0.28,0.74c0.16,0.11,0.36,0.07,0.15,0.29
		c-0.08,0.09-0.26,0.08-0.4,0.12c-0.43,0.02-1.01-0.27-1.06,0.51c-0.04,0.65,0.51,0.55,0.88,0.66c1.42,0.45,2.85,0.88,4.26,1.34
		c0.35,0.11,0.69,0.27,1.01,0.45c0.32,0.18,0.4,0.5,0.35,0.85c-0.07,0.48-0.46,0.4-0.76,0.39c-1.1-0.03-2.17-0.1-2.42,1.42
		c-0.08,0.52-0.58,0.28-0.91,0.08c-1.54-0.93-3.14-1.65-5.01-1.52c-0.46,0.03-0.61-0.23-0.43-0.62c1.58-3.33,2.25-6.97,3.61-10.37
		c0.61,0.24,0.54,0.84,0.63,1.31c0.24,1.2,0.58,2.23,2.11,2.13c0.17-0.01,0.21,0.15,0.04,0.1c-0.09-0.03-0.22,0.11-0.34,0.17
		C50.63,122.19,49.72,121.47,49.22,122.13z"/>
	<path class="st32" d="M21.24,123.83c0.77-0.53,1.84-0.5,2.38-1.51c0.27-0.51,0.32,0.59,0.74,0.32c0,0,0.04,0.04,0.04,0.04
		c0.02,0.57-0.48,0.72-0.82,0.99c-0.32,0.25-0.79,0.47-0.59,0.95c0.2,0.5,0.63,0.05,0.96,0.1c0.14,0.02,0.27,0.03,0.4,0.08
		c0.51,0.52,0.11,1.26,0.47,1.81c1.49,0.02,2.62-0.99,3.97-1.37c0.44-0.13,0.83-0.4,1.25-0.61c2.62-1.07,5.31-1.96,7.81-3.33
		c0.33-0.18,0.68-0.31,1.07-0.24c0.13,0.04,0.33,0.13,0.32,0.22c-0.12,0.99,0.1,1.88,0.69,2.68c0.01,0.01-0.04,0.07-0.07,0.1
		c-0.06,0.06-0.14,0.06-0.24,0c-2.24-0.12-4.28,0.95-6.48,1.08c-0.4,1.26-1.99,1.2-2.49,1.98c-0.83,1.28-1.68,1.76-3.08,1.45
		c-0.84-0.18-1.44,0.09-1.84,0.87c-0.23,0.45-0.56,0.85-0.93,1.4C23.94,128.24,22.32,126.18,21.24,123.83z"/>
	<path class="st33" d="M33.44,147.47c-0.36,0.13-0.81-0.08-1.11,0.28c-2.67-0.41-5.35-0.8-8.01-1.25c-1.13-0.19-2.24-0.51-3.56-0.46
		c1.56,2.8,2.74,5.66,4.58,8.15c0.93,1.26,2.33,2.03,3.4,3.16c0.48,0.51,0.85,1,0.72,1.73c-0.19,0.1-0.38,0.21-0.57,0.31
		c-3.97-2.48-8.2-6.69-10.92-15.57c0.36-0.3,0.68,0.1,1.02,0.06c4.4,2.38,9.27,2.8,14.09,3.42
		C33.19,147.31,33.31,147.41,33.44,147.47z"/>
	<path class="st34" d="M87.37,159.92c-0.08-0.6-0.22-1.2-0.22-1.81c0-1.38,0.5-2.38,1.94-2.89c2-0.7,3.98-1.44,6.37-1.73
		c-1.67,1.89-2.07,3.97-2.19,6.14c-1.77,0.77-3.63,0.77-5.51,0.65C87.58,160.28,87.46,160.09,87.37,159.92z"/>
	<path class="st35" d="M39.6,124.07c0.03-0.03,0.07-0.07,0.1-0.1c-1.02-0.7-1.11-1.63-0.65-2.69c0.18-0.67,0.83-0.68,1.32-0.9
		c0.59-0.27,0.78-0.63,0.37-1.19c-0.06-0.46-0.36-0.24-0.62-0.24c-1.01-0.01-1.17-0.54-0.79-1.37c-0.06-0.85-0.78-1.59-0.39-2.51
		c0.24-0.04,0.61,0.3,0.66-0.25c1.52,1.8,1.96,4.26,3.59,5.96c1.51,1.57,1.82,3.14,0.41,4.97c-0.79-0.57-1.69-0.75-2.83-0.34
		C39.77,125.78,40.16,124.4,39.6,124.07z"/>
	<path class="st36" d="M166.34,74.61c-0.57-0.21-1.17-0.6-0.85-1.19c0.22-0.4,1.06-0.42,1.55-0.22c3.03,1.24,6.21,1.51,9.42,1.76
		c1.4,0.11,2.79,0.26,4.19,0.25c0.33,0,0.73,0.01,0.85,0.36c0.19,0.6-0.46,0.43-0.69,0.66c-0.45,0.46-1.04,0.33-1.59,0.38
		c-1.24,0.11-2.52-0.28-3.74,0.24C172.28,76.73,169.24,75.94,166.34,74.61z"/>
	<path class="st37" d="M109.3,154.89c-0.42,0.51-0.02,1.2-0.33,1.73c-0.52,0.05-0.44-0.33-0.42-0.56c0.11-1.29,0-2.61,0.81-3.77
		c0.48-0.69,0.29-1.13-0.64-1.12c-1.67,0.02-3.4-0.24-4.92,0.61c-0.73,0.41-1.4,1.05-1.88,1.74c-0.41,0.59-0.85,1.13-1.42,1.49
		c-1.18,0.73-2.01,1.75-2.7,2.91c-0.8,0.21-0.48,0.88-0.55,1.38c-0.08,0.59,0.15,1.2-0.15,1.77c-0.89-3.83,1.35-8.09,5.03-9.54
		c2.46-0.97,5.04-0.98,7.63-0.89c0.84,0.03,0.48,0.49,0.36,0.84C109.73,152.59,109.44,153.72,109.3,154.89z"/>
	<path class="st38" d="M85.06,138.73c0.31-0.09,0.62-0.27,0.92-0.27c1.43,0.01,2.38-0.61,2.81-1.99c1.05,0.13,2.43,0,2.69,1.25
		c0.25,1.24-1.02,1.81-1.98,2.21c-2.56,1.07-5.27,1.44-8.03,1.41c-0.18-0.03-0.36-0.06-0.55-0.09c1.38,0,2.24-1.32,3.58-1.4
		c0.55-0.04-0.25-1.06,0.63-0.86c0.01-0.05,0.02-0.1,0.01-0.14C85.13,138.8,85.09,138.76,85.06,138.73z"/>
	<path class="st1" d="M175.47,165.57c-0.54,0.05-0.9,0.38-1.35,0.91c1.15,0.03,1.95,0.36,1.63,1.64c-3.7-0.55-7.11-1.75-10.05-4.23
		c0.34-0.41,0.66-0.29,0.94-0.17c1.89,0.84,3.94,0.71,5.92,0.98C173.6,164.84,174.58,165.02,175.47,165.57z"/>
	<path class="st1" d="M174.89,173.51c-2-0.12-4.01-0.15-5.99-0.4c-1.85-0.23-2.84-1.88-4.16-2.95c-0.52-0.42-0.52-1.29-0.01-1.79
		c0.69-0.68,0.87,0.3,1.27,0.56c2.33,1.54,4.68,3.03,7.44,3.74c0.52,0.13,1.02,0.36,1.52,0.54
		C174.93,173.32,174.91,173.41,174.89,173.51z"/>
	<path class="st39" d="M87.37,159.92c1.99,0.33,3.93-0.35,5.9-0.28c0.4,0.78,0.06,1.76,0.72,2.5c0.23,0.26-0.12,0.46-0.38,0.6
		C91.04,164.2,88.05,162.86,87.37,159.92z"/>
	<path class="st40" d="M84.72,156.16c-0.27,1.34-0.55,2.37-0.67,3.43c-0.11,0.88-0.49,1.26-1.36,1.2c-1.4-0.09-2.85,0.71-4.35-0.25
		C80.2,158.78,82.42,157.69,84.72,156.16z"/>
	<path class="st41" d="M62.94,131.93c-1.53-0.18-2.87-0.77-3.93-1.92c-0.21-0.23-0.43-0.55-0.21-0.89c0.19-0.3,0.52-0.17,0.77-0.08
		c1.52,0.51,3.05,0.72,4.67,0.68c0.82-0.02,1,0.59,0.49,1.27C64.28,131.59,63.74,132.01,62.94,131.93z"/>
	<path class="st42" d="M38.38,129.73c-1.07-0.12-2.03-0.45-2.84-1.14c-0.34-0.29-0.58-0.7-0.38-1.12c0.25-0.54,0.71-0.26,1.1-0.12
		c0.62,0.22,1.22,0.47,1.84,0.69c0.92,0.33,1.82,0.42,2.7-0.15c0.25-0.16,0.61-0.47,0.86-0.09c0.31,0.46-0.17,0.65-0.46,0.85
		C40.35,129.25,39.43,129.67,38.38,129.73z"/>
	<path class="st1" d="M204.4,170.31c-4.59,2.38-9.56,3.42-14.62,4.14C194.6,172.84,199.66,172.15,204.4,170.31z"/>
	<path class="st43" d="M173.12,69.33c0.02-0.16,0.67,0,0.23-0.3c-0.58-0.4-1.29-0.63-1.9-1.08c2.35-0.47,4.43,0.6,6.68,1.05
		c-0.3,0.46-0.69,0.22-0.96,0.38c0,0,0.03,0.1,0.06,0.11c0.08,0.04,0.17,0.07,0.26,0.1C176,70.06,174.55,69.89,173.12,69.33z"/>
	<path class="st1" d="M125.26,165.57c0.8,0.32,1.54,0.8,1.61,1.8c0.07,1-0.7,1.28-1.47,1.28c-1.06,0.01-1.21-0.93-1.28-1.67
		C124.06,166.34,124.37,165.7,125.26,165.57z"/>
	<path class="st44" d="M21.61,137.01c-0.51,0.02-1.01,0.04-1.52,0.07c-0.81,0.04-1.93-0.46-1.92,1.07
		c-1.37-0.03-2.13-0.95-2.84-1.95c-0.1-0.54,0.14-0.88,0.77-1.12c-0.17,1.65,1.05,1.54,2.05,1.66
		C19.3,136.88,20.48,136.64,21.61,137.01z"/>
	<path class="st45" d="M125.1,30.63c1.68,0.02,2.82,1.08,3.94,2.12c0.51,0.47,0.84,1.15,0.11,1.79
		C128.07,32.95,126.39,31.99,125.1,30.63z"/>
	<path class="st46" d="M111.94,169.34c0.89-0.92,0.37-1.84-0.14-2.62c-0.42-0.65-0.48-1.29-0.45-1.99c0.58,1.02,1.07,2.09,1.75,3.03
		c0.68,0.95,0.46,1.34-0.61,1.49C112.3,169.27,112.12,169.31,111.94,169.34z"/>
	<path class="st47" d="M248.63,85.67c-0.14-1.3,0.18-2.45,1.14-3.38C249.74,83.53,249.78,84.8,248.63,85.67z"/>
	<path class="st48" d="M252.35,193.86c-0.76,0.63-1.32,1.11-1.89,1.57c-0.2,0.16-0.4,0.49-0.7,0.31c-0.16-0.1-0.24-0.38-0.28-0.59
		c-0.07-0.38,0.24-0.44,0.51-0.53C250.7,194.39,251.4,194.16,252.35,193.86z"/>
	<path class="st47" d="M249.77,82.28c-0.04-0.87-0.63-0.66-1.15-0.58c0.22-0.77,1-0.98,1.64-1.78
		C250.22,80.95,250.77,81.75,249.77,82.28z"/>
	<path class="st49" d="M225.75,94.11c-1.28,0.07-2.57,0.17-3.41-1.1C223.56,93.11,224.67,93.55,225.75,94.11z"/>
	<path class="st50" d="M132.51,74.33c1.14-0.31,2.28-0.62,3.42-0.93c0.03,0.1,0.05,0.2,0.08,0.31c-0.98,0.29-1.96,0.58-2.93,0.87
		C132.89,74.5,132.7,74.42,132.51,74.33z"/>
	<path class="st51" d="M140.44,136.5c-2.37-2.04-4.82-4-6.42-6.76c0.07-0.1,0.11-0.22,0.16-0.23c4.67-0.22,7.85-3.23,11.16-5.97
		c1.7-1.41,4.61-1.7,6.43-0.51c0.73,0.48,0.43,1.15,0.19,1.63c-1.27,2.61-2.54,5.23-4.58,7.36c-0.81,0.85-1.62,1.69-2.43,2.53
		c-0.74,1.24-2.02,1.71-3.25,2.25C141.24,137,140.79,136.89,140.44,136.5z"/>
	<path class="st52" d="M130.58,113.34c1.99,3.31,1.98,6.86,1.07,10.44c-0.42,1.66-1.48,1.98-3.62,1.4
		c-1.13-0.37-1.51-1.33-1.82-2.33c-0.69-2.28-1.01-4.58-0.44-6.93c0.25-1.02,0.65-1.95,1.25-2.81
		C128.19,111.46,129.52,111.54,130.58,113.34z"/>
	<path class="st53" d="M140.44,136.5c1.32,0.49,2.14-0.56,3.13-1.05c0.49-0.24,0.93-0.6,1.39-0.9c0.73,0.44,0.95,1.54,2.14,1.45
		c0.53-0.04,0.31,0.57,0.01,0.63c-1.57,0.33-2.47,1.96-4.12,2.1c-0.07-1.25-0.53-2-1.97-1.69c-0.38,0.08-0.84,0.11-1.14-0.29
		C140,136.54,140.21,136.49,140.44,136.5z"/>
	<path class="st54" d="M130.58,113.34c-0.25-0.19-0.51-0.38-0.76-0.58c-0.93-0.74-1.74-0.73-2.49,0.3c-0.77,1.05-1.25,2.21-1.4,3.46
		c-0.39,3.14-0.24,6.18,2.11,8.66c-1.49,0.62-1.67-0.81-1.88-1.49c-0.86-2.86-1.37-5.79-0.4-8.77c0.37-1.14,1.04-2.14,1.8-2.97
		c0.7-0.77,1.91-0.4,2.72,0c0.4,0.2,0.89,0.02,1.2,0.41C131.36,112.84,130.97,113.08,130.58,113.34z"/>
	<path class="st22" d="M83.38,145.51c0.26-0.16,0.53-0.29,0.85-0.23c0.24,0.49,0.18,0.96-0.39,1.04
		C83.36,146.38,83.66,145.72,83.38,145.51z"/>
	<path class="st55" d="M56.59,108.63c0.47,0.68,1.21,0.76,1.84,0.98c0.55,0.19,0.44,0.54,0.38,0.87c-0.08,0.4-0.4,0.25-0.68,0.19
		c-1.11-0.25-2.12-0.7-2.92-1.65c-0.18,0.62,0,1.24-0.55,1.66c-0.6-0.59-0.97-1.33-1.29-2.1c-0.17-0.42-0.36-0.81,0.33-0.92
		c0.37-0.06,0.56-0.32,0.6-0.68c0.07-0.61,0.03-1.3,0.94-1.26c1.04,0.05-0.03,1,0.59,1.28c0.43-0.02,0.78-0.3,1.07-0.68
		c0.45-0.59,1.14-0.79,1.77-1.06c0.69-0.29,1.39-0.04,1.75,0.48c0.4,0.58-0.39,0.82-0.7,1.16
		C58.88,107.81,57.76,108.26,56.59,108.63z"/>
	<path class="st56" d="M68.9,122.11c-2.61-0.07-5.02-0.33-7.4-0.85c-3.2-0.71-6.4-1.43-9.6-2.17c-0.36-0.08-0.93,0-0.74-0.72
		c0.18-0.69,0.67-0.59,1.11-0.45c4.98,1.56,10.16,2.24,15.24,3.36C67.94,121.38,68.45,121.39,68.9,122.11z"/>
	<path class="st57" d="M49.22,122.13c-0.34-0.27-0.45-0.54,0.11-0.59c0.6-0.05,1.2,0.01,1.81,0.02c5.52,1.66,11.09,3.05,17.07,3.29
		c-0.49,0.86-1,0.7-1.48,0.68c-4.49-0.16-8.85-1.01-13.16-2.24C52.12,122.87,50.67,122.51,49.22,122.13z"/>
	<path class="st58" d="M67.96,108.74c0.31-0.29,0.57-0.56,0.85-0.8c0.31-0.27,0.66-0.34,1.03-0.11c0.44,0.28,0.41,0.71,0.3,1.13
		c-0.41,1.53-2.22,2.98-3.82,3.09c-1.4,0.09-1.92-0.4-1.81-1.78c0.03-0.41,0.1-0.86,0.29-1.21c0.36-0.64,0.26-1.66,1.35-1.74
		C66.86,107.27,67.1,107.45,67.96,108.74z"/>
	<path class="st59" d="M71.87,111.24c0.34,0.26,0.59,0,0.85-0.02c0.47-0.02,1.13-0.36,1.27,0.38c0.12,0.6-0.09,1.21-0.77,1.48
		c-0.95,0.38-1.92,0.3-2.88,0.14c-0.27-0.04-0.48-0.18-0.48-0.56c0.02-1.76,1.57-3.81,3.28-4.23c0.43-0.1,1.12-0.55,1.23,0.26
		c0.1,0.71,0.27,1.63-0.77,1.99C73.04,110.86,72.35,110.6,71.87,111.24z"/>
	<path class="st60" d="M62.66,105.94c1.1-0.12,1.89,0.51,2.02,1.68c0.13,1.16-0.72,1.7-1.76,1.95c-0.45,0.11-0.89,0.25-1.35,0.35
		c-0.49,0.11-1.03,0.66-1.44,0.3c-0.49-0.42-0.23-1.16-0.12-1.73C60.36,106.62,61.11,105.89,62.66,105.94z"/>
	<path class="st61" d="M54.17,115.49c2.53,0.24,5,0.7,7.28,1.86C58.89,117.23,56.44,116.71,54.17,115.49z"/>
	<path class="st62" d="M63.33,114.47c1.16-0.02,2.02,0.72,3.03,0.96c0.68,0.16,1.35,0.37,2.02,0.57c0.23,0.07,0.42,0.21,0.38,0.5
		c-0.03,0.22-0.2,0.26-0.39,0.32C66.81,117.27,64.04,116.03,63.33,114.47z"/>
	<path class="st63" d="M26.4,115.17c-3.03-2.09-3.01-2.36,0.21-3.95c0.29-0.14,0.59-0.28,0.9-0.39c0.44-0.15,0.89-0.15,1,0.41
		c0.08,0.42-0.01,0.85-0.56,0.96c-0.09,0.02-0.19,0.01-0.28,0.03c-0.48,0.09-1.1,0.34-0.96,0.8c0.17,0.57,0.88,0.4,1.3,0.19
		c0.48-0.24,0.8-0.19,1.1,0.19c0.49,0.63,1.05,1.31,0.37,2.11c-0.83,0.98-1.24-0.14-2.02-0.6c0.42,0.86,0.38,1.62-0.45,1.65
		c-0.95,0.04-2.05,1.14-2.9-0.22c-0.07-0.12-0.22-0.22-0.24-0.34c-0.06-0.51-0.94-1.02-0.33-1.42c0.5-0.33,1.09,0.24,1.48,0.73
		C25.26,115.63,25.27,115.62,26.4,115.17z"/>
	<path class="st64" d="M18.78,114.72c0.98-0.03,1.9,0.09,1.97-1.26c0.03-0.69,0.55-0.53,0.84-0.08c0.6,0.94,1.2,1.89,1.72,2.87
		c0.43,0.81,0.41,1.7-0.33,2.3c-0.79,0.64-1.59,0.2-2.29-0.34C19.58,117.37,19.23,116.09,18.78,114.72z"/>
	<path class="st65" d="M29.52,109.6c0.73-0.6,1.02-1.68,2.17-1.12c1.06,0.51,1.59,1.78,1.24,2.82c-0.28,0.83-0.88,1.42-1.54,1.95
		c-0.65,0.52-1.17,0.1-1.55-0.36c-0.46-0.54,0.1-0.78,0.44-1.08c0.53-0.47,1.52-0.76,1.32-1.63
		C31.38,109.22,30.34,109.89,29.52,109.6z"/>
	<path class="st66" d="M32.58,115.5c-0.64,1.05-1.82,1.34-2.74,2c-0.48,0.35-1.01,0.64-1.52,0.95c-0.37-0.59,0.26-0.74,0.51-0.89
		C30.05,116.83,31.33,116.18,32.58,115.5z"/>
	<path class="st67" d="M82.78,116.88c0.09-2.52,1.75-4.44,2.93-6.53c0.34-0.61,0.79-1.16,1.22-1.72c0.25-0.33,0.53-0.81,1.01-0.57
		c0.5,0.25,0.65,0.75,0.42,1.32c-0.72,1.78-1.37,3.59-2.12,5.35c-1.67,3.92-3.36,7.84-5.13,11.71c-0.36,0.78-0.86,2.27-1.59,1.95
		c-0.89-0.39,0.29-1.37,0.5-2.1c0.57-1.97,1.49-3.84,1.68-5.92c0.02-0.25,0.12-0.31,0.32-0.11c0.31,0.3,0.25-0.03,0.28-0.14
		c0.31-1.03,0.61-2.06,0.92-3.09C83.06,116.99,82.92,116.93,82.78,116.88z"/>
	<path class="st68" d="M40.74,119.19c0.38-0.25,0.68-0.24,0.8,0.27c0.11,0.46-0.01,0.84-0.46,1.03c-0.67,0.28-1.35,0.54-2.03,0.8
		c-3.03,1.14-5.88,2.72-8.99,3.66c-0.63,0.2-0.93,0.08-0.41-0.53c0.34-0.41,0.88-0.63,1.27-1.01c0.31-0.27,0.75-0.24,1.09-0.45
		c1.83-0.58,3.58-1.36,5.25-2.31C38.36,119.99,39.54,119.56,40.74,119.19z"/>
	<path class="st69" d="M32.01,122.94c-0.29,0.19-0.57,0.38-0.86,0.57c-1.72,1.06-3.35,2.29-5.26,3.02c-0.4,0.15-0.75,0.59-1.26,0.3
		c-0.74-0.57-0.22-1.31-0.27-1.97c0.86-1.29,3.86-2.51,5.37-2.18C30.44,123.2,31.26,122.8,32.01,122.94z"/>
	<path class="st70" d="M29.74,122.67c-1.92,0.4-3.7,1.16-5.37,2.18c-0.26,0.1-0.51,0.24-0.77,0.28c-0.36,0.06-0.78,0.42-1.01-0.32
		c-0.17-0.53-0.28-0.8,0.31-1.09c0.54-0.27,1.01-0.69,1.51-1.04c0.34,0.13,0.52-0.23,0.81-0.26c1.32,0.14,2.51-0.33,3.7-0.8
		c0.77-0.06,1.16,0.19,0.86,1.02L29.74,122.67z"/>
	<path class="st71" d="M27.46,121.22c1.89-1.56,4.29-2.18,6.36-3.39c0.93-0.54,1.71-1.38,2.99-1.72c-0.3,1.01-1.01,1.37-1.65,1.78
		c-1.97,1.27-4.17,2.09-6.27,3.11c-0.19,0.18-0.31,0.44-0.57,0.55C27.97,121.62,27.5,121.98,27.46,121.22z"/>
	<path class="st72" d="M27.46,121.22c0.27,0.43,0.58,0.03,0.87,0.04c0.22,0.15,0.3,0.38,0.3,0.64c-1.06,0.7-2.13,1.29-3.42,0.52
		C25.94,121.98,26.57,121.35,27.46,121.22z"/>
	<path class="st73" d="M38.95,115.07c0.12,0.84,0.94,1.57,0.39,2.51c-0.82-0.41-1.03-1.26-1.36-1.99c-0.14-0.32-0.26-0.91,0.16-1.11
		C38.54,114.29,38.63,114.92,38.95,115.07z"/>
	<path class="st69" d="M28.63,121.9c-0.34-0.1-0.33-0.36-0.3-0.64c0.19-0.08,0.38-0.17,0.57-0.25c0.37,0.51,1.93,0.38,0.87,1.64
		C30.03,121.41,29.28,121.73,28.63,121.9z"/>
	<path class="st74" d="M57.54,134.72c-0.77-0.52-0.87-1.18-0.66-1.81c0.13-0.39,0.62-0.19,0.83,0.02
		C58.32,133.55,57.87,134.12,57.54,134.72z"/>
	<path class="st75" d="M24.63,126.83c2.17-1.1,4.35-2.21,6.52-3.31c-0.25,0.59-0.87,0.74-1.31,1.1c-0.4,0.34,0.17,0.19,0.22,0.32
		c-1.74,0.86-3.43,1.82-5.36,2.22c-0.05,0.01-0.18-0.07-0.19-0.13C24.51,126.97,24.59,126.9,24.63,126.83z"/>
	<path class="st76" d="M146.4,131.07c-1.44-1.01-3.31-1.3-4.62-2.57c-0.28-0.27-0.26-0.49,0.14-0.76c1.78-1.21,3.43-2.6,4.9-4.18
		c0.33-0.35,0.57-0.43,0.94-0.13c0.11,0.09,0.24,0.14,0.36,0.23c0.71,0.51,2.09,0.37,2.21,1.14c0.11,0.68-0.74,1.53-1.21,2.28
		c-0.71,1.15-1.11,2.49-2.08,3.48C146.85,130.75,146.75,131.04,146.4,131.07z"/>
	<path class="st77" d="M145.34,132.16c-0.11,0.23-0.12,0.29-0.15,0.31c-1.21,0.93-2.47,2.88-3.68,2.45
		c-1.89-0.66-3.27-2.56-4.57-4.23c-0.27-0.34-0.2-0.57,0.27-0.68c0.82-0.2,1.62-0.49,2.29-1.02c0.54-0.43,0.72,0.08,1.01,0.34
		C141.89,130.6,143.32,131.78,145.34,132.16z"/>
	<path class="st78" d="M66.83,109.9c-0.05,0.3,0.06,0.76-0.35,0.78c-0.53,0.03-0.64-0.41-0.61-0.87c0.02-0.31-0.09-0.73,0.35-0.77
		C66.87,108.97,66.68,109.58,66.83,109.9z"/>
	<path class="st79" d="M63.2,108.04c-0.61,0.26-1.04,0.45-1.46,0.1c-0.04-0.03,0.02-0.28,0.1-0.33
		C62.26,107.52,62.66,107.56,63.2,108.04z"/>
	<path class="st80" d="M21.75,116.81c-0.72-0.11-1.29,0.09-1.45-0.57c-0.06-0.25,0.18-0.56,0.48-0.58
		C21.41,115.61,21.34,116.22,21.75,116.81z"/>
</g>
</svg>
