<?xml version="1.0" encoding="utf-8"?>
<!-- Generator: Adobe Illustrator 26.0.2, SVG Export Plug-In . SVG Version: 6.00 Build 0)  -->
<svg version="1.1" id="Layer_1" xmlns="http://www.w3.org/2000/svg" xmlns:xlink="http://www.w3.org/1999/xlink" x="0px" y="0px"
	 viewBox="0 0 379.6 275.8" style="enable-background:new 0 0 379.6 275.8;" xml:space="preserve">
<style type="text/css">
	.st0{opacity:0.42;}
	.st1{fill:#CCCCCC;}
	.st2{fill:#FDFDFD;}
	.st3{fill:#EEEEEE;}
	.st4{fill:#666666;}
	.st5{fill:#5A5A5A;}
	.st6{fill-rule:evenodd;clip-rule:evenodd;fill:#666666;}
	.st7{fill:#FFFFFF;}
</style>
<g class="st0">
	<ellipse class="st1" cx="180.7" cy="126.7" rx="123.2" ry="122.3"/>
	<circle class="st2" cx="180.7" cy="127.6" r="96.3"/>
	<path class="st3" d="M181.3,249c-11.3,11.6-27.1,18.7-44.5,18.7c-20.8,0-39.3-10.2-50.6-25.9C80.6,257,66.1,267.8,49,267.8
		c-21.9,0-39.6-17.7-39.6-39.6s17.7-39.6,39.6-39.6c9.9,0,19,3.6,25.9,9.6c3.6-30.9,29.9-54.9,61.9-54.9c21.5,0,40.5,10.9,51.7,27.5
		c9.3-7.4,21.1-11.9,34-11.9c23.7,0,43.9,15.2,51.4,36.3c5.7-3.3,12.3-5.2,19.4-5.2c20.7,0,37.7,16.2,38.9,36.6
		c2.2-0.8,4.6-1.2,7.1-1.2c11.7,0,21.2,9.5,21.2,21.2c0,11.7-9.5,21.2-21.2,21.2c-8.1,0-15.1-4.5-18.7-11.2
		c-7,6.9-16.7,11.2-27.3,11.2c-13.1,0-24.7-6.5-31.8-16.4c-9.9,10.1-23.7,16.4-39,16.4C206,267.8,191.3,260.5,181.3,249z"/>
	<path class="st4" d="M360.5,250.5c-2.2,0-3.9-1.8-3.9-3.9c0-9.5-7.8-17.3-17.3-17.3c-2,0-4,0.3-5.8,1l-4.9,1.8l-0.3-5.2
		c-1.1-18.5-16.4-32.9-35-32.9c-6.1,0-12.2,1.6-17.4,4.6l-4.1,2.3l-1.6-4.4c-7.1-20.2-26.3-33.7-47.7-33.7c-11.6,0-22.5,3.8-31.5,11
		l-3.3,2.7l-2.4-3.5c-10.9-16.1-29-25.7-48.4-25.7c-29.6,0-54.5,22.1-58,51.5l-0.9,7.3l-5.6-4.8c-6.5-5.6-14.8-8.7-23.3-8.7
		c-11.4,0-22.1,5.5-28.8,14.7c-1.3,1.7-3.7,2.1-5.5,0.8c-1.7-1.3-2.1-3.7-0.8-5.5c8.2-11.2,21.3-17.9,35.2-17.9
		c8.2,0,16.2,2.3,23.1,6.6c6.6-30,33.3-51.9,64.7-51.9c20.7,0,40,9.6,52.5,25.9c9.7-6.7,21.3-10.3,33.1-10.3
		c23.2,0,44.2,13.8,53.5,34.8c5.4-2.4,11.3-3.7,17.3-3.7c21.1,0,38.8,15.3,42.3,35.7c1.2-0.2,2.5-0.3,3.8-0.3
		c13.9,0,25.2,11.3,25.2,25.2C364.4,248.7,362.6,250.5,360.5,250.5z"/>
	<path class="st4" d="M231.3,75.4c-4,0-7.2-3.2-7.2-7.2c0-4,3.2-7.2,7.2-7.2c4,0,7.2,3.2,7.2,7.2C238.4,72.2,235.2,75.4,231.3,75.4z
		 M231.3,66.9c-0.7,0-1.3,0.6-1.3,1.3c0,0.7,0.6,1.3,1.3,1.3c0.7,0,1.3-0.6,1.3-1.3C232.6,67.5,232,66.9,231.3,66.9z"/>
	<path class="st4" d="M306.6,155.4c-3.2,0-5.8-2.6-5.8-5.8c0-3.2,2.6-5.8,5.8-5.8c3.2,0,5.8,2.6,5.8,5.8
		C312.4,152.8,309.8,155.4,306.6,155.4z M306.6,149.5c-0.1,0-0.1,0-0.1,0.1c0,0.1,0.2,0.1,0.2,0
		C306.7,149.5,306.6,149.5,306.6,149.5z"/>
	<path class="st4" d="M57.6,148.9c-5.1,0-9.3-4.2-9.3-9.3c0-5.1,4.2-9.3,9.3-9.3s9.3,4.2,9.3,9.3C66.9,144.8,62.7,148.9,57.6,148.9z
		 M57.6,136.2c-1.9,0-3.4,1.5-3.4,3.4c0,1.9,1.5,3.4,3.4,3.4s3.4-1.5,3.4-3.4C61,137.7,59.5,136.2,57.6,136.2z"/>
	<path class="st4" d="M121.2,113.6h-14.1c-1.6,0-2.9-1.3-2.9-2.9c0-1.6,1.3-2.9,2.9-2.9h14.1c1.6,0,2.9,1.3,2.9,2.9
		C124.1,112.3,122.8,113.6,121.2,113.6z M131.1,101.4c-1.6,0-2.9-1.3-2.9-2.9V86.6c0-1.6,1.3-2.9,2.9-2.9s2.9,1.3,2.9,2.9v11.9
		C134.1,100,132.8,101.4,131.1,101.4z"/>
	<path class="st4" d="M122,103.9c-0.8,0-1.5-0.3-2.1-0.9l-9.4-9.4c-1.1-1.1-1.1-3,0-4.2c1.1-1.1,3-1.1,4.2,0l9.4,9.4
		c1.1,1.1,1.1,3,0,4.2C123.5,103.6,122.8,103.9,122,103.9z"/>
	<circle class="st1" cx="177.1" cy="152.4" r="40.3"/>
	<path class="st5" d="M223.2,179.8l35.8,35.8c5.5,5.5,5.5,14.5,0,20l0,0c-5.5,5.5-14.5,5.5-20,0l-35.8-35.8c-5.5-5.5-5.5-14.5,0-20
		l0,0C208.8,174.3,217.7,174.3,223.2,179.8z"/>
	<path class="st5" d="M177.4,205.4c-13.2,0-26.4-5-36.4-15.1c-9.7-9.7-15.1-22.7-15.1-36.4c0-13.8,5.4-26.7,15.1-36.4
		c20.1-20.1,52.8-20.1,72.8,0l0,0c9.7,9.7,15.1,22.7,15.1,36.4c0,13.8-5.4,26.7-15.1,36.4C203.8,200.4,190.6,205.4,177.4,205.4z
		 M177.4,125.5c-7.6,0-14.8,3-20.2,8.3c-5.4,5.4-8.3,12.5-8.3,20.2s3,14.8,8.3,20.2c11.1,11.1,29.2,11.1,40.3,0
		c5.4-5.4,8.3-12.5,8.3-20.2s-3-14.8-8.3-20.2l0,0C192.2,128.4,185,125.5,177.4,125.5z"/>
	<path class="st4" d="M189.5,161.9L169.5,142c-1.1-1.1-3-1.1-4.1,0l0,0c-1.1,1.1-1.1,3,0,4.1l19.9,19.9c1.1,1.1,3,1.1,4.1,0l0,0
		C190.6,164.9,190.6,163,189.5,161.9z"/>
	<path class="st4" d="M185.3,142l-19.9,19.9c-1.1,1.1-1.1,3,0,4.1l0,0c1.1,1.1,3,1.1,4.1,0l19.9-19.9c1.1-1.1,1.1-3,0-4.1v0
		C188.3,140.8,186.5,140.8,185.3,142z"/>
	<path class="st6" d="M181.7,86.8c-1.7-0.1-3.2,1.2-3.3,2.9c-0.1,1.7,1.2,3.2,2.9,3.3c14.3,0.9,28.4,6.8,39.3,17.8
		c7.8,7.8,13.1,17.3,15.8,27.2c0.5,1.7,2.2,2.7,3.9,2.2c1.7-0.5,2.7-2.2,2.2-3.9c-3-11-8.8-21.4-17.4-30.1
		C213,94.3,197.5,87.8,181.7,86.8z M170.2,92.4c1.7,0,3.2-1.4,3.2-3.2s-1.4-3.2-3.2-3.2c-1.7,0-3.2,1.4-3.2,3.2
		S168.4,92.4,170.2,92.4z"/>
	<path class="st7" d="M254,227.3c-1.1,0-2.2-0.4-3.1-1.3l-32.1-32.1c-1.7-1.7-1.7-4.5,0-6.2c1.7-1.7,4.5-1.7,6.2,0l32.1,32.1
		c1.7,1.7,1.7,4.5,0,6.2C256.2,226.9,255.1,227.3,254,227.3z"/>
</g>
</svg>
