<?xml version="1.0" encoding="utf-8"?>
<!-- Generator: Adobe Illustrator 26.0.2, SVG Export Plug-In . SVG Version: 6.00 Build 0)  -->
<svg version="1.1" id="Layer_1" xmlns="http://www.w3.org/2000/svg" xmlns:xlink="http://www.w3.org/1999/xlink" x="0px" y="0px"
	 viewBox="0 0 1125 1099" style="enable-background:new 0 0 1125 1099;" xml:space="preserve">
<style type="text/css">
	.st0{fill:#BB825F;}
	.st1{fill:#F6D488;}
	.st2{fill:#F0A923;}
	.st3{fill:#F18A7B;}
	.st4{fill:#4F837B;}
	.st5{fill:#EB6496;}
	.st6{fill:#9A5224;}
	.st7{fill:#C56E29;}
	.st8{fill:#EDCA73;}
	.st9{fill:#FAFBFA;}
	.st10{fill:#4F473A;}
	.st11{fill:#16695D;}
	.st12{fill:#BB7B47;}
	.st13{fill:#8C7A67;}
	.st14{fill:#1DB498;}
	.st15{fill:#351A13;}
</style>
<g>
	<g>
		<polyline class="st0" points="718.44,730.97 566.89,748.87 467.95,729.56 397.06,685.77 395.87,668.08 394.17,612.02 
			382.72,474.81 400.41,453.81 691.54,444.77 798.46,464.47 809.17,488.49 809.17,623.77 731.59,712.36 717.85,728.06 		"/>
		<polygon class="st1" points="842.58,464.8 829.07,392.67 699.98,349.09 519.2,340.77 378.99,363.11 362.96,383.59 349.33,408.78 
			346.94,450.7 358.37,456.52 521.77,445.1 625.33,445.1 774.57,457.11 		"/>
		<polygon class="st2" points="813.97,376.56 788.89,307.83 703.1,216.66 655.94,182.69 579.82,174.3 521.77,199.36 412.72,299.88 
			390.28,327.53 381.37,356.87 400.3,362.58 481.61,344.35 556.76,342.56 625.33,341.36 700.58,346.14 		"/>
		<ellipse class="st3" cx="230.54" cy="563.92" rx="92.05" ry="69.21"/>
		<path class="st1" d="M411.7,592.31c-24.69-9.9-16.63-82.71-6.65-84.73c3.73-0.76,4.66-1.35,16.09-7.04
			c38.17-19,82.36,21.21,126.82,5.89c49.95-3.78,113.06,14.07,156.85-13.6c8.54-3.93,27.97-6.46,32.45,6.27
			c-15.7-13.71-147.69,69.49-83.39,71.47c24.61-22.16,82.35-35.7,83.34-71.53c8.93,19.23,38.75,112.28,4.4,87.24
			c-62.03-34-62.64,81.67,0.95,55.05c29.65-3.43-38.81,69.44-61.61,78.37c-79.06,40.02-256.94,27.12-265.73-76.2
			C487.6,652.24,473.95,571.54,411.7,592.31z M599.48,608.09c-114.59-25.72-169.04,128.68-25.59,116.67
			C680.11,742.42,711.22,621.97,599.48,608.09z M514.47,545.29c-10.74-23.86-68.32-68.87-88.35-36.45
			C432.04,527.81,537.81,597.12,514.47,545.29z M482.74,601.49c5.98-5.85-1.97-12.08-8.32-10.53
			C454.17,591.08,471.67,610.17,482.74,601.49z M665.59,603.2c8.27,2.3,19.81-9.62,7.27-12.05
			C663.55,589.62,653.37,598.6,665.59,603.2z"/>
		<path class="st2" d="M528.69,295.93c14.25,12.83,33.16,7.61,38.22-10.91c4.08-14.91,3.34-29.6-6.24-42.51
			c-3.55-4.78-9.02-7.49-15.28-7.5c-5.05,0-8.32,3.06-8.87,7.68c-0.55,4.53,1.31,8.84,5.24,11.71c0.7,0.51,2.21,0.75,2.89,0.34
			c6.8-4.01,7.13,1.19,8.26,5.57c2.25,8.73,0.92,17.05-3.2,24.84c-2.9,5.48-6.3,5.65-10.51,0.99c-7.94-8.79-11.77-19.46-13.39-30.93
			c-0.64-4.55,1.85-8.65,3.74-12.73c1.46-3.14,3.22-6.62-0.32-9.48c-3.22-2.58-6.98-2.15-10.38-0.35
			c-8.14,4.32-8.96,11.97-8.66,23.4C511.63,269.11,515.86,284.38,528.69,295.93z"/>
		<path class="st2" d="M351.17,453c69.68-13.19,121.08-19.04,202.63-18.12c34.7,0.39,69.27-3.95,109.01-1.92
			c57.64,5.45,117.05,2.82,172.61,21.19c6.81-10.42-8.68-39.3-7.92-56.03c-38.59-25.02-7.91,28.62-37.5,24.54
			c-139.31-19.24-275.16-28.82-408.27-3.9c-7.27-20.49,9.49-25.6,0.31-38.32C351.17,381.83,345.77,437.12,351.17,453z"/>
		<path class="st4" d="M284.95,683.27c1.14-0.03,2.28-0.06,3.41-0.09c0.42-0.28,0.84-0.55,1.26-0.82c1.62-1.65,3.54-2.28,5.61-2.75
			c18.88-4.26,37.94-7.55,56.29-14.72c13.72-5.36,28.07-8.29,41.23-15.89c2.44-1.41,4.15-5.44,8.3-4.32
			c-2.93,4.31-6.37,6.27-9.73,8.63c-3.2,2.24-8.41,2.15-8.66,8.75c7.71-3.49,15.35-6.83,19.84-16.28c7.66-16.12,5.62-32-0.64-47.58
			c-2.21-5.5-5.8-10.23-8.97-15.1c-0.8-1.23-2.45-2.38-3.67-2.33c-2.04,0.09-4.78,3.47-4.91,5.02c-0.66,8.14-2.36,12.1-1.95,20.32
			c0.09,1.72-0.58,5.58,0,7.06c4.95,12.67-1.51,12.29-8.68,18.34c-10.34,8.72-16.83,4.74-28.38,9.01
			c-13.42-4.59-36.21-25.16-33.21-9.01c-9.83-8.97-15.06-2.35-25.63,4.32c-11.38,7.18-24.12,3.75-36.65,4.7
			c-51.49,3.88-97.25,4.74-147.63-9.81c-13.21-3.81-28.01-7.51-40.95-12.43c-9.65-3.67-10.74-5.13-22.56-14.06
			c-3.73,5.43-4.58,11.05-3.88,17.43c1.88,17.09,11.25,27.3,22.24,36.36c15.46,12.76,33.4,16.12,51.16,20.14
			c5.05,1.14,10.21,1.54,15.32,2.27c2.25-0.13,4.53-0.6,6.76-0.35c19.42,2.22,38.88,3.04,58.38,2.98c4.31-0.01,8.65,0.57,12.92,0.69
			c17.93,0.49,35.89,0.69,53.8-0.05C265.24,683.28,275.08,682.53,284.95,683.27z"/>
		<path class="st5" d="M234.85,631.13c-2.53-14.6-4.73-29.96-18.02-39.29c-1.47-1.03-2.31-2.4-1.02-4.55
			c3.54-5.88,6.06-12.68,10.42-17.73c20.73-24.03,49.16-33.45,79.99-24.9c17.79,4.93,32.45,14.12,40.45,32.82
			c3.3,7.7,3.19,15.17,0.97,22.99c-2.33,8.19-5.66,16.01-7.53,24.39c-2.32,10.44-4.35,11.53-12.94,5.73
			c-12.58-8.51-25.21-9.23-38.82-3.3c-14.08,6.14-28.04,13.15-43.49,11.46C237.92,640.83,236.08,638.23,234.85,631.13z"/>
		<path class="st3" d="M157.14,540.39c-3.55,7.03-2.06,14.9-3.41,22.3c-0.49,2.66,1.63,3.21,3.55,3.08
			c18.33-1.29,33.62,7.14,48.69,16.24c1.43,0.86,2.91,2.37,3.69-0.44c3.08-11.13,11.38-18.09,19.71-24.24
			c19.63-14.5,40.87-24.46,66.12-21.16c5.94,0.78,11.27,2.45,16.61,5.44c-5.56-8.84-11.76-16.8-18.85-24.01
			c-2.14,0.11-4.18,0.31-6.34,0.95c-9.42,2.76-17.92,0.33-25.44-6.04c-6.35,6.11-13.26,3.83-16.88-5.56
			c-2.27-0.48-0.65-4.74-3.44-4.25c-5.05,0.88-9.09-2.62-14-2.74c-14.9-0.37-26.57,5.45-35.19,17.95c-0.71,1.02-1.19,2.23-2.66,2.24
			c-5.32,8.84-12.84,15.15-21.91,19.29C164.35,540.8,160.8,543.14,157.14,540.39z"/>
		<path class="st6" d="M187.59,640.51c1.56-0.31,3.76-0.08,4.54-1.03c1.54-1.87-1.02-3.17-1.7-4.76
			c-7.84-18.12-19.76-34.29-25.59-53.38c-0.99-3.25-2.97-5.41-6.26-6.96c-4.61-2.18-9-4.8-13.89-6.41
			c-10.59-3.49-18.41-0.35-22.26,10.33c-4.64,12.89-13.07,22.72-22.71,31.91c-3.48,3.32-8.84,7.07-8.06,11.45
			c0.78,4.36,7.49,3.36,11.61,4.3c26.68,6.1,53.38,12.15,80.78,14.13c1.16,0.08,2.33,0.01,3.49,0.01
			C187.55,640.24,187.57,640.37,187.59,640.51z"/>
		<path class="st7" d="M576.4,98.53c-7.01,12-8.93,25.14-12.1,37.98c-2.67,10.81-4.29,21.79-7.14,32.56
			c-1.29,4.86,0.45,5.77,5.49,4.99c22.05-3.44,44.31-3,66.57-2.55c1.28,0.03,2.56,0,3.84,0.08c13.37,0.78,13.13,0.82,10.83-9.92
			c-5.25-24.5-12.16-48.65-21.45-72.32c-0.3-0.76-0.95-1.42-1.43-2.13c1.2,11.54,0.79,23.2,3.63,34.6
			c2.11,8.45-0.56,14.44-8.19,17.05c-9.76,3.35-25.7,0.41-28.58-6.41C583.19,121.39,580.14,109.86,576.4,98.53z"/>
		<path class="st2" d="M576.4,98.53c3.74,11.33,6.79,22.86,11.46,33.92c2.88,6.82,18.82,9.75,28.58,6.41
			c7.62-2.62,10.29-8.6,8.19-17.05c-2.84-11.4-2.43-23.07-3.63-34.6c-3.82-9.83-7.44-19.72-11.56-29.47
			c-1.48-3.51-3.49-7.27-9.37-7.19c-5.73,0.08-7.73,3.5-9.31,7.21C585.06,71.12,580.17,84.69,576.4,98.53z"/>
		<path class="st1" d="M352.17,776.59c8.33-7.35,14.97-16.79,21.76-26.25c5.73-7.98,4.98-23.71,1.15-23.81
			c-3.02-0.08-21.8,2.65-23.99-0.54c-2.77-4.04,4.35-5.75,4.26-10.43c-0.74,0.01-1.49,0.02-2.23,0.03
			c-11.5,11.02-22.95,22.04-38.43,22.47c-7.39,0.21-14.15-1.77-20.21-7.18c-3.7,1.8-1.18,4.75-0.36,6.48
			c9.93,21.19,24.33,34.68,43.77,39.2c0.42,0.35,0.84,0.7,1.26,1.05c0.64,0.72,1.29,1.44,1.93,2.16c0.71-0.08,1.43-0.16,2.15-0.25
			C345.78,776.54,348.99,776.65,352.17,776.59z"/>
		<path class="st0" d="M51.84,593.43c1.28,5.57,2.43,12.27,5.24,18.55c1.2,2.68,3.46,3.77,5.96,4.51
			c6.98,2.07,14.02,3.97,20.99,6.07c2.3,0.69,3.87,0.96,4.8-2.02c3.12-9.98,10.04-17.38,17.21-24.59c7.76-7.8,7.75-9.04,0.02-17.09
			c-3.1-3.23-6.74-6.34-8.09-10.56c-2.69-8.42-7.48-8.55-14.65-5.71c-7.43,2.95-14.82,5.63-21.7,9.93
			C53.99,577.3,52.19,584.28,51.84,593.43z"/>
		<path class="st2" d="M372.78,564.63c-11.92-27.92,13.04-74.25-5.49-93.88c-34.02-2.39-15.35,55.95-26.76,77.06
			C336.97,561.92,362.9,565.72,372.78,564.63z"/>
		<path class="st6" d="M645.35,1049.62c-23.39-2.13-19.92,2.06-27.09-21.94c-2.44-14.06,36.71-10.07,46.21-11.16
			c13.17-0.12,21.26-15.62,21.01,8.26C687.05,1046.8,660.76,1049.95,645.35,1049.62z M649.24,1020.2c-4.82,0.1-6.98,2.8-7.38,7.59
			C645.14,1051.65,665.8,1020.58,649.24,1020.2z"/>
		<path class="st7" d="M738.64,262.21c-4.21,11.32,48.21,50.62,14.48,40.88c9.81,33.9,13.27,40.73,47.87,50.36
			C787.19,318.14,768.11,285.77,738.64,262.21z"/>
		<path class="st7" d="M167.01,496.01c-9.1,1.56-18.01,3.98-26.87,6.75c-13.4,4.19-26.75,8.41-39.2,15.33
			c-3.49,1.94-6.1,4.34-5.59,8.65c0.59,4.96,3.87,8.55,7.16,11.69c1.47,1.4,3.58-0.77,5.14-1.72c14.32-8.71,29.53-12.19,45.88-8.95
			c3.65,0.72,5.84-1.53,8.04-3.79c5.8-5.94,11.49-12,17.26-17.98c2.68-2.78,2.62-4.78-0.82-7.07
			C174.55,496.62,170.63,497.34,167.01,496.01z"/>
		<path class="st7" d="M563.18,430.89c-0.46-1.06-5.74,1.57-2.11-2.9c-4.71-4.97-16.73-4.73-23.98-5.8
			c-25.25,1.17-120.97,3.89-99.53,13.55C441.52,437.53,518.08,434.27,563.18,430.89z"/>
		<g>
			<path class="st6" d="M772.79,797.64c-1.13,11.45,4.07,21.54,7.04,32.08c1.68,5.94,3.98,11.79,6.69,17.35
				c4.42,9.09,21.31,14.28,30.11,9.63c2.82-1.49,4.12-3.35,3.02-6.99c-5.57-18.4-8.36-37.31-9.77-56.44
				C797.8,797.26,785.22,796.78,772.79,797.64z"/>
			<path class="st8" d="M774.45,805.31c11.93-0.82,24-0.37,35.57-4.2c0.19-9.65-0.15-19.38,3.47-28.58
				c0.99-2.51-0.94-3.09-1.91-4.51c-6.2-9.13-14.18-10.07-24.32-7.03c-11.28,3.38-11.71,2.66-13.16,14.23
				C772.85,785.23,771.37,795.32,774.45,805.31z"/>
		</g>
		<path class="st6" d="M219.98,641.8c10.27-0.13,9.67-0.01,8-9.03c-6.22-33.75-29.41-49.66-58.76-59.46
			c-4.17-1.39-5.18-0.14-5.13,4.01c0.11,9.25,3.68,14.36,11.72,17.92c16.61,7.36,28.19,19.69,33.34,37.62
			C211.01,639.3,213.18,644.35,219.98,641.8z"/>
		<path class="st9" d="M500.64,1001.32c22.74,2.69,45,1.02,67.33,2.58c-5.62-3.05-10.35-7.26-15.56-10.79
			c-4.94-3.35-9.47-7.14-12.67-12.25c-1.68-2.68-4.02-2.88-7-3.46c-12.51-2.41-20.43,2.21-25.2,13.79
			C506.06,994.8,503.09,997.8,500.64,1001.32z"/>
		<path class="st3" d="M416.78,631.59c-0.57,2.93-1.9,5.61-2.17,8.56c21.51,2.94,69.42-12.54,45.85-39.73
			c-12.38-12.06-26.2-15.85-44.28-14.33C404.52,587.07,423.25,612.71,416.78,631.59z"/>
		<g>
			<path class="st2" d="M800.54,639.22c-6.85,17.25-12.57,34.86-23.5,50.82c-2.86,4.18-5.75,8.34-8.94,12.97
				c11.12,2.75,23.34,4.09,27.14,15.63c13.73-6.29,27.55-6.97,41.32-0.21c2.41,1.18,3.04,0.25,3.82-1.54
				c6.53-14.91,10.53-29.87,10.34-46.12c-0.42-35.19-2.16-70.26-6.21-105.27c-0.34-2.9-0.99-5.63-2.66-8.18
				c-4.7-2.43-14.95-6.03-15.47-6.4l0.02-0.12c-1.8,1.01-1.58,2.61-1.83,4.12c-2.63,15.79-2.7,31.75-4.53,47.61
				c-1.99,17.32-5.6,34.3-10.13,51.16c-4.59-3.36-8.85-6.56-6.16-12.28C804.37,640.08,802.27,639.33,800.54,639.22z"/>
			<path class="st7" d="M800.54,639.22c1.73,0.11,3.84,0.85,3.21,2.19c-2.69,5.71,1.57,8.92,6.16,12.28
				c4.54-16.86,8.14-33.83,10.13-51.16c1.82-15.86,1.9-31.82,4.53-47.61c0.25-1.51,0.04-3.1,1.83-4.12
				c-0.73-2.96-1.81-5.89-2.13-8.88c-1.03-9.56-1.6-19.15-2.67-28.7c-1.54-13.67-3.49-27.31-4.99-40.98
				c-0.28-2.56-1.72-5.85,2.69-7.44c-8.39-0.1-11.42,2.26-10.39,8.26c0.8,4.66,1.77,9.3,2.67,13.94c0.89-1.86-0.64-4.13,2.11-6.58
				c-0.83,7.33,1.4,13.93-1.43,20.4c-0.28,2.04-0.2,4.03,0.91,5.92c0.66-0.98-0.57-2.63,2.05-3.2c0,3.85-0.43,7.6,0.07,11.26
				c3.16,23.35,0.79,46.76,1.34,70.14c0.03,1.23,1.53,4.11-2.71,2.85c-1.45,15.92-5.94,31.3-12.05,46.39
				C801.22,635.8,800.97,637.54,800.54,639.22z"/>
			<path class="st1" d="M817.31,464.81c-7.72,22.32,4.62,53.33,5.4,78.72c0.38,12.45,6.85,12.16,19.13,15.71
				C833.74,537,846.24,461.57,817.31,464.81z"/>
		</g>
		<path class="st3" d="M115.35,580.54c5.47-10.52,14.05-15.96,25.44-16.68c3.9-0.25,4.53-2.04,4.34-5.41
			c-0.46-7.9-0.64-15.82-0.89-23.73c-0.07-2.14-0.04-4.58-3.15-3.7c-12.52,3.54-24.95,7.57-34.27,17.25
			c-5.91,6.15-6.25,14.41-1.7,21.71C107.57,573.9,110.65,577.31,115.35,580.54z"/>
		<path class="st7" d="M684.63,335.15c-6.63,0.52-13,2.93-19.73,2.64c47.37,3.88,93.52,14.02,139.26,25.32
			c-12.52-13.07-40.61-10.56-49.54-20.46C730.98,342.1,708.28,334.24,684.63,335.15z"/>
		<path class="st10" d="M278.91,671.22c-43.83,0.82-87.72,0.29-131.49-1.46c-1.52-0.06-1.73,2.17-0.23,2.38
			c43.32,6.14,94.4,10.1,131.93,0.59C280.01,672.5,279.82,671.21,278.91,671.22z"/>
		<path class="st11" d="M383.63,653.84c0.34-0.13,0.58-0.41,0.69-0.75c2.66-8.08,13.35-6.11,18.03-13.74
			c-32.67,15.16-69.71,20.98-104.77,29.62c-1.28,0.31-1.17,2.21,0.13,2.38C325.11,675.04,357.64,663.65,383.63,653.84z"/>
		<path class="st6" d="M357.08,556.47c-2.62,13.42-2.68-11.33-3.58,1.03c6.57-9.24,11.02,7.98,19.89-1.03
			c3.43,5.11,0.24,16.6-0.37,22.94c-0.26,2.67-0.67,5.88,3.28,6.47c-1.56,32.9-0.32,44.32-34.73,50.54
			c9.56-24.45,2.77-78.33,4.73-76.84C348.95,558.21,354.07,559.07,357.08,556.47z"/>
		<path class="st6" d="M352.95,701.66c-17.83,6.87-36.21,9.71-54.61,12.43c-6.16,0.91-7.72,3.14-4.94,8.73
			c8.77,17.65,11.01,18.52,30.18,9.88c10.06-4.53,19.71-9.44,25.8-18.65C351.85,710.33,353.65,706.59,352.95,701.66z"/>
		<path class="st6" d="M418.25,312.34c3.96-6.69,10.66-10.32,16.64-14.71c5.33-3.92,9.39-8.81,12.54-14.59
			c2.76-5.07,3.46-10.28,1.72-15.8c-9.38,8.35-18.43,16.88-25.43,27.56c-3.64,5.55-7.8,10.78-10.99,16.66
			C414.56,311.75,416.41,312.04,418.25,312.34z"/>
		<path class="st7" d="M430.25,1017.79c-9.87-4.88-15.46-0.83-14.48,10.07c-0.45,5.97,1.52,9.12,7.41,9.48
			c5.73,0.35,12.69,1.25,12.67-6.95C435.83,1024.38,434.39,1019.25,430.25,1017.79z"/>
		<path class="st1" d="M864.5,769.91c4.87-0.56,10.97,0.5,13.68-7.96c1.37-4.28,1.45-7.78-3.63-6.45
			c-13.74,3.58-26.45-0.19-38.45-8.85c-0.78-0.56-1.43-1.86-2.22-0.6c-0.51,0.82-0.73,2.21-0.67,3.31c0.17,3.25,1.97,5.35,3.75,7.24
			C844.74,764.88,853.54,769.91,864.5,769.91z"/>
		<path class="st7" d="M418.25,312.34c-1.84-0.3-3.68-0.59-5.52-0.89c-4.01,4.92-6.72,10.65-9.5,16.24
			c-3.89,7.84-8.97,14.95-12.95,22.71c0.81,1.63,2.45,1.07,3.74,1.44c0,0,0.04,0.13,0.04,0.13
			C408.48,342.65,411.11,326.12,418.25,312.34z"/>
		<path class="st6" d="M205.09,638.91c-4.72-11.52-10.38-21.98-19.52-30.13c-1.19-1.06-2.34-3.26-4.23-1.61
			c-1.35,1.18-0.11,2.84,0.58,4.09c4.36,7.87,8.68,15.76,13.23,23.51C197.15,638.16,199.97,640.56,205.09,638.91z"/>
		<path class="st8" d="M353.79,723.37c0.09,4.69-7.03,6.4-4.26,10.43c2.2,3.2,4.44-4.66,7.47-4.57c3.83,0.1,8.23-2.16,11.21,3.55
			c0.88,1.69,2.28,5.18,4.64,3.42c2.03-1.51-0.25-3.98-0.3-6.06c-0.04-1.35-0.71-2.67,0.57-3.64c-3.19-3.08-6.52-5.95-9.52-9.29
			c-3.86-4.3-6.65-3.7-8.81,2.13c0.15,0.27,0.3,0.54,0.43,0.81c1.85,2.65,0.32,2.98-1.39,3.18L353.79,723.37z"/>
		<g>
			<path class="st2" d="M839.19,872.31c-4.73,7.11-8.14,15.4-18.38,16.67c-6.89,0.85-12.78-0.06-17.7-5.22
				c-1.1-1.15-2.28-3.29-3.05,0.22c4.07,2.67,3.05,5.9,1.28,9.51c-4.27,8.7-9.12,17.2-11,26.88c-0.87,4.51-1.09,9.6,4.74,10.43
				c7.13,1.01,14.71,1.49,20.77-3.69c6.89-5.89,13.38-12.27,20.04-18.43c3.87-10.73,6.43-21.81,8.69-32.97
				C843.68,873.09,840.2,874.71,839.19,872.31z"/>
			<path class="st7" d="M836.52,879.08c0.96,2.17,4.29,0.71,5.14,3.06c0.67-3.71,4.52-5.72,4.79-10c0.96-15.13,2.72-30.2,3.94-45.32
				c0.26-3.21,0.97-6.66-1.24-9.66c-6.05-1.19-12.14-2.24-18.14-3.61c-7.63-1.74-9.6-0.35-7.62,7.03
				c3.24,12.12,6.7,24.23,10.95,36.05C837.04,864.13,838.61,871.34,836.52,879.08z"/>
			<path class="st7" d="M835.88,908.67c-6.66,6.16-13.15,12.54-20.04,18.43c-6.05,5.18-13.63,4.7-20.77,3.69
				c-5.83-0.83-5.61-5.92-4.74-10.43c1.88-9.68,6.72-18.18,11-26.88c1.77-3.61,2.8-6.83-1.28-9.51
				c-5.83,9.72-11.81,19.34-17.44,29.17c-8.17,14.26-0.68,27.67,15.63,29.65c11.36,1.38,19.73-2.54,26.14-11.58
				c4.61-6.5,9.53-12.84,12.09-20.59C836.27,909.97,836.07,909.32,835.88,908.67z"/>
			<path class="st6" d="M833.36,910.97c0.19,0.61,0.38,1.22,0.57,1.84c4.6-2.46,6.2-7.01,7.95-11.38
				c9.16-22.84,12.34-46.85,14.2-71.13c0.24-3.16,0.99-6.28,1.23-9.44c0.62-8.2,0.56-8.2-8.14-7.8c2.21,3.1,1.5,6.67,1.24,9.98
				c-1.23,15.61-2.98,31.18-3.95,46.79c-0.27,4.42-4.12,6.5-4.79,10.32C839.5,890.59,837.06,900.95,833.36,910.97z"/>
			<path class="st6" d="M823.07,861.35c-6.59,2.04-12.77,3.83-18.84,5.9c-2.67,0.91-2.36,3.33-1.12,4.96
				c2.12,2.78,4.71,5.25,7.19,7.76c0.92,0.93,2.36,1.62,3.4,0.45c4.46-5.04,10.01-9.43,11.53-16.35
				C825.63,862.21,824.48,861.38,823.07,861.35z"/>
		</g>
		<path class="st0" d="M272.11,719.84c5.05,12.1,9.02,25.07,16.96,34.97c6.36,11.24,13.79,21.14,23.14,28.59
			c4.3-2.44,9.25,3.11,13.34-1.69h2.84c1.31-3.56,3.64-3.97,6.15-2.7c2.18,1.05,4.3,1.16,6.54,0.75c-0.66-0.71-1.28-1.42-1.94-2.14
			c-0.42-0.37-0.84-0.71-1.25-1.05c-19.46-4.53-33.85-18.03-43.76-39.2c-0.84-1.76-3.34-4.68,0.36-6.48
			c-5.1-2.44-4.21-8.84-4.89-14.46c-1.07-8.54-5.97-10.76-13.05-8.03C268.71,711.44,268.32,710.8,272.11,719.84z"/>
		<path class="st8" d="M326.44,777.4c-3.73,3.48-8.22-0.55-12.12,1.22c12.42,8.03,21.89,6.75,36.27-4.92
			c-2.89,0.04-5.8-0.04-8.13,2.12c-4.07,4.03-8.82,2.28-13.45,1.58C328.15,777.41,327.29,777.41,326.44,777.4z"/>
		<path class="st12" d="M813.92,587.79c4.24,1.26,2.73-1.61,2.71-2.85c-0.55-23.38,1.82-46.79-1.34-70.14
			c-0.5-3.66-0.07-7.41-0.07-11.26c-2.62,0.57-1.39,2.23-2.05,3.2c0,20.72,2.59,41.39,1.65,62.12
			C814.53,575.18,814.22,581.48,813.92,587.79z"/>
		<g>
			<path class="st7" d="M193.5,735.05c-3.74,17.05-3.02,34.38-4.88,51.55c-0.87,8.03-1.2,16.13-4.27,23.9
				c-0.53,1.34-2.49,3.18-0.09,3.99c3.88,1.3,7.6,3.68,12,3.14c3.39-0.42,2.14-3.13,2.11-4.91c-0.22-18.79-0.52-37.56,1.1-56.34
				c1.16-13.49,2.71-26.94,4.45-40.38c0.37-2.84,4.13-7.88-4.12-8.29c-1.73,2.78-3.76,5.34-3.38,8.84
				c0.48,4.46,0.18,8.99,0.05,13.49C196.41,732,197.52,734.59,193.5,735.05z"/>
			<path class="st12" d="M188.76,736.68c11.26-0.51,8.14-3.44,8.3-5.65c0.37-5.07,1.23-10.18-0.13-15.22
				c-1.06-3.95,4.61-6.84,9.46-9.98c-2.38-2.01-4.52-4.24-10.79-5.16c-2.12-0.31-3.18,1.28-3.11,2.24
				c-0.69,5.88,4.15,11.86-2.86,17.64C189.34,725.93,189.05,731.31,188.76,736.68z"/>
		</g>
		<g>
			<path class="st13" d="M1065.22,324.89c-67.56-23.88-182.33,147.61-109.21,194.71C1029.59,566.98,1154.81,356.55,1065.22,324.89z"
				/>
			<path class="st10" d="M1056.89,322.69c14.11,16.76,28.99,28.02,27.75,53.09c-4.52,48.86-31.21,101.28-74.03,127.59
				c-26.86,14.32-76.55,12.63-78.01-27.51c-13.06-0.46,5.02,45.04,5.15,54.22c0.15,10.56-9.64,28.83-9.64,28.83l19.12,8.67
				c33.4-34.2,68.96-3.45,116.88-81.97C1088.83,451.96,1130.42,319.02,1056.89,322.69z"/>
			<path class="st6" d="M950.85,563.78c-22.07-16.55-20.19-10.52-27.85,2.4c-6.33,10.67-47.38,60.73-2.24,50.77
				C939.7,612.76,936.56,578.99,950.85,563.78z"/>
			<path class="st0" d="M912.47,618c-10.87-8.4,15.15-40.43,20.05-48.61c4.96-8.29,5.83-13.66,12.06-11.76
				c-9.76-5.34-10,0.38-15.77,10.08C923.5,576.62,893.2,613.69,912.47,618z"/>
			<path class="st10" d="M889.63,651.78c6.77,13.36,52.15,4.05,37.16-18.5c-4.38-6.58-22.81-15.29-33.67-0.43
				C889.07,638.38,886.77,646.14,889.63,651.78z"/>
			<path class="st12" d="M899.19,639.62c3.43-4.1,1.23-5.64-0.46-6.91c-6.96-5.22-11.26,12.84-10.48,16.26
				c0.69,3.04,1.62,4.85,4.77,5.1C894.66,649.07,895.42,643.7,899.19,639.62z"/>
		</g>
		<path class="st12" d="M677.43,207.12c0.17,3.37,5.04,7.1-1,10.08c-1.04,0.51,1.38,1.38,1.53,2.49c0.35-0.21,0.75-0.35,1.05-0.62
			C685.8,212.82,685.7,212.08,677.43,207.12z"/>
		<g>
			<path class="st8" d="M827.24,748.96c2.75-1.46,2.14-4.15,2.31-6.5c0.49-6.9,1.61-13.62,5.88-19.34c2.66-3.57,2.09-5.55-2.48-6.08
				c-4.62-0.53-9.21-1.24-13.84-1.65c-5.7-0.51-9.96,1.63-12.06,7.25c0.44,8.65-0.82,17.49,2.82,25.8
				C815.66,748.61,821.45,748.79,827.24,748.96z"/>
			<path class="st12" d="M827.24,748.96c-5.79-0.17-11.58-0.35-17.37-0.52c-0.42,0.17-0.84,0.35-1.26,0.52
				c0.1,0.22,0.2,0.45,0.31,0.66c1.93,3.5,0.77,9.65,5.17,10.43c3.69,0.66,5.26-4.84,7.83-7.57
				C823.33,750.97,825.44,750.11,827.24,748.96z"/>
			<path class="st1" d="M808.61,748.96c0.42-0.17,0.84-0.35,1.26-0.52c-3.65-8.3-2.38-17.14-2.82-25.8
				C803.64,731.64,803.21,740.47,808.61,748.96z"/>
		</g>
		<path class="st8" d="M556.76,335.38c-9.55-0.54-19.12-2.08-28.6,0.61C537.69,335.79,547.22,335.59,556.76,335.38z"/>
		<path class="st6" d="M370.81,567.59c-0.02,8.64-0.03,17.28-0.05,25.92C372.62,584.87,372.44,576.23,370.81,567.59z"/>
		<path class="st12" d="M812.25,500.83c2.83-6.47,0.6-13.07,1.43-20.4c-2.74,2.45-1.22,4.72-2.11,6.58
			C811.8,491.62,812.03,496.22,812.25,500.83z"/>
		<path class="st7" d="M194.34,727.11c1.92-4.78,0.59-9.73,0.78-14.6C193.51,717.31,194.44,722.24,194.34,727.11z"/>
		<path class="st2" d="M394.01,351.84c-1.29-0.37-2.93,0.19-3.74-1.44c-0.75,1.06-1.49,2.11-2.54,3.6
			C390.45,353.78,392.52,353.66,394.01,351.84z"/>
		<path class="st8" d="M351.44,729.6c0.68-0.01,1.35-0.02,2.03-0.02c0,0,0.03-0.03,0.03-0.03c0.42-0.77,0.84-1.53,1.26-2.3
			c-0.12-0.2-0.26-0.4-0.39-0.59C353.04,727.29,351.95,728.15,351.44,729.6z"/>
		<path class="st12" d="M679.89,222.85c0.35,1.11,1.19,1.36,2.22,1.28C681.64,223.23,680.87,222.85,679.89,222.85z"/>
		<path class="st0" d="M797.53,523.77c0.06,0.27,0.07,0.54,0.02,0.81c0,0,0.35-0.43,0.35-0.43L797.53,523.77z"/>
		<path class="st11" d="M768.1,826.41c-0.71,0.42-0.84,0.87-0.07,1.36C768.05,827.32,768.07,826.86,768.1,826.41z"/>
		<path class="st2" d="M793.7,383.59c0.3,1.06,0.83,1.24,1.64,0.45C794.8,383.89,794.25,383.74,793.7,383.59z"/>
		<g>
			<path class="st11" d="M363.52,780.16c-5.88,4.37-18.89,3.78-24.77,8.15c-5.38-1.39-0.68,5.38-3.04,4.96
				c-12.34-2.2-8.53,6.69-6.7,10.17c11.09,8.4,32.96,19.78,45.99,24.33c11.75,4.1,20.38,4.63,36.46,4.47
				c4.03,0.99,4.75-2.81,5.34-5.32c2.05-8.71,8.66-15.29,12.21-23.49c4.5-10.37,5.01-22.65,9.84-32.87
				c2.34-4.95,5.01-9.74,7.43-14.65c1.22-2.48-0.26-7.37-1.95-8.07c-6.56-2.69-13.48-2.55-20.56-3.54
				c-5.97-0.83-8.25,1.89-9.02,10.4c-0.49,5.44-0.55,10.93-2.59,16.11c1.01,0.1,2.01,0.25,3.02,0.3c6.78,0.3,7.62,1.23,5.72,7.52
				c-1.88,6.22-3.9,12.41-6.3,18.45c-1.91,4.81-5.2,7.42-11.12,7.66c-16.03,0.66-28.41-6.45-40-16.38
				C359.61,785.06,362.4,782.87,363.52,780.16z"/>
			<path class="st14" d="M360.6,776.55c-1.32,3.36-4.59,6.09-0.06,10.2c13.61,12.34,28.15,21.18,46.97,20.36
				c6.95-0.3,10.81-3.54,13.06-9.52c2.82-7.49,5.19-15.19,7.4-22.92c2.24-7.81,1.24-8.97-6.72-9.34c-1.18-0.06-2.36-0.24-3.55-0.37
				c-5.59-1.28-6.02-6.4-7.05-10.91c-0.73-3.17-0.99-6.46-1.46-9.7c-4.88-1.01-9.89-1.61-14.6-3.19c-2.95-0.99-10.3-4.42-13.03-3
				c-5.44,13.41-9.11,27.42-19.62,36.7c-0.42,0.5-0.85,1.01-1.27,1.51L360.6,776.55z"/>
			<path class="st11" d="M363.59,780.01c0.36-0.41,0.72-0.81,1.08-1.22C363.91,778.84,363.51,779.22,363.59,780.01z"/>
		</g>
		<path class="st0" d="M678.01,729.63c-0.63,0.33-1.26,0.66-1.89,0.99C676.95,730.67,677.66,730.49,678.01,729.63z"/>
		<path class="st0" d="M504.33,730.78c-0.53-0.23-1.06-0.47-1.59-0.7C503.28,730.32,503.81,730.55,504.33,730.78z"/>
		<path class="st12" d="M419.77,465c0.42,0.48,0.79,0.42,1.12-0.1C420.5,464.75,420.13,464.78,419.77,465z"/>
		<path class="st0" d="M797.82,615.92c-0.11,0.27-0.2,0.54-0.27,0.81c0,0,0.38-0.35,0.38-0.35L797.82,615.92z"/>
		<path class="st15" d="M559.18,724.67c-16.51-1.18-33.02-2.4-48.27-9.86c-18.97-9.28-29.84-30.46-24.7-50.4
			c5.62-21.79,18.99-38.37,38.62-48.88c23.36-12.51,48.9-13.31,74.64-10.37c12.49,1.43,25.05,3.56,35.99,9.95
			c16.98,9.92,28.89,24.44,34.86,43.36c2.19,6.95,3.65,14.47,1.46,21.42c-6.47,20.53-21.5,32.49-41.49,38.8
			c-18.38,5.8-37.43,5.66-56.41,6.02C568.99,724.72,564.06,725.02,559.18,724.67z M597.62,622.04c-15.41-2.23-30.9-2.2-46.36-0.23
			c-4.69,0.6-9.13,1.99-13.44,3.89c-3.97,0.77-6.48,4.07-9.93,5.78c-1.29,0.64-2.33,1.75,0.13,2.63
			c12.39,4.48,24.59,9.44,37.27,13.14c13.96,4.08,27.54,2.08,41.01-1.91c6.55-1.94,13.14-3.81,19.33-6.91
			c3.5-1.75,5.97-4.35,9.31-7.6c-5.25-0.95-9-4.31-13.95-3.05C614.02,622.53,605.55,623.19,597.62,622.04z M528.08,706.84
			c15.57,7.76,71.07,7.59,96.45-0.43C607.95,680.9,539.48,677.67,528.08,706.84z"/>
		<path class="st15" d="M737.26,501.27c-8.4-6.3-15.76-3.17-23.52,1.87c-24.01,15.58-48.29,30.77-72.43,46.15
			c-6.03,3.84-7.68,9.62-4.71,15.81c3.15,6.57,10.28,9.64,17.25,7.63c6.79-1.96,11.44-7.21,17.12-10.87
			c14.73-9.5,29.44-19.05,43.86-29c3.96-2.73,7.81-5.7,11.81-8.41c8.3-5.6,14.93-11.91,10.56-23.24
			C737.21,501.21,737.26,501.27,737.26,501.27z"/>
		<path class="st15" d="M424.36,513.07c-0.49,6.26,4.66,9.63,9.08,12.72c18.55,12.98,37.12,25.93,55.66,38.93
			c2.84,1.99,5.55,4.15,8.34,6.22c7.22,5.36,15.12,4.52,19.92-2.11c4.81-6.63,2.97-14.12-4.65-19.3
			c-21.26-14.46-42.46-29.01-63.75-43.42c-7.75-5.25-13.92-5.19-20.34-0.88C425.53,507.31,424.58,510.22,424.36,513.07z"/>
		<path class="st3" d="M691.87,622.04c21.44,22.49,58.48-3,48.04-28.71C714.05,567.86,672.48,578.43,691.87,622.04z"/>
		<path class="st3" d="M474.61,589.72c-2.02,0.03-4.04-0.16-6,0.73c-3.97,1.81-4.77,5.68-1.73,8.83c3.07,3.19,12.62,3.76,16.05,0.97
			c3.15-2.57,2.5-7.76-1.13-9.62C479.48,589.45,477.03,589.83,474.61,589.72z"/>
		<path class="st3" d="M670.41,590.76c-2.83,0.37-5.04,0.78-7.26,0.91c-2.87,0.17-5.52,0.6-5.41,4.27c0.1,3.52,1.2,6.49,5.4,6.87
			c3.35,0.31,6.58-0.38,9.38-2.12c2.25-1.4,4.39-3.37,3.3-6.54C674.86,591.36,672.13,591.31,670.41,590.76z"/>
		<path class="st6" d="M571.42,293.92c-8.65-8.4-15.95-17.45-15.03-30.55c4.3-21.06,27.87-32.68,48.24-24.07
			c10.44,4.41,21.85,17.35,20.6,29.57c-1.01,9.86-6.86,16.65-13.84,22.81C598.46,299.37,585.24,302,571.42,293.92z M569.93,267.65
			c0.08,9.45,8.63,16.8,19.57,16.85c12.2,0.05,20.01-6.97,20.05-18.01c0.04-9.86-8.47-17.66-19.35-17.74
			C578.59,248.67,569.83,256.83,569.93,267.65z"/>
		<path class="st0" d="M766.85,676.81c0.17-0.09,0.33-0.19,0.5-0.28c-0.16,0.1-0.33,0.19-0.49,0.29
			C766.86,676.82,766.85,676.81,766.85,676.81z"/>
		<path class="st2" d="M703.1,283.03c-3.11-4.41-6.4-8.66-10.68-12.03c-3.01-2.36-6.38-3.99-9.96-1.71
			c-3.72,2.36-4.5,5.93-2.58,9.97c3.5,3.69,7.44,6.81,12.44,8.08C696.8,288.49,701.24,288.79,703.1,283.03z"/>
		<path class="st2" d="M604.92,301.45c0.89-0.14,1.78-0.28,2.68-0.43c-0.1-0.16-0.18-0.41-0.32-0.45c-1.01-0.32-1.82-0.07-2.33,0.91
			C604.95,301.48,604.92,301.45,604.92,301.45z"/>
		<path class="st0" d="M329.01,777.41c4.63,0.7,9.37,2.44,13.45-1.58c-0.65,0.06-1.3,0.12-1.95,0.18c-2.02,0.3-3.95,0.21-5.93-0.56
			C332.29,774.55,330.18,774.84,329.01,777.41z"/>
		<path class="st8" d="M337.61,773.68c0.38,0.25,0.77,0.51,1.15,0.76C338.37,774.19,337.99,773.94,337.61,773.68z"/>
		<path class="st7" d="M641.87,1027.79c3.28,23.86,23.94-7.21,7.38-7.6C644.43,1020.3,642.26,1023,641.87,1027.79z"/>
		<path class="st0" d="M407.45,684.18c3.77-3.86,2.09-8.3,1.47-12.63C406.79,675.58,407.75,679.94,407.45,684.18L407.45,684.18z"/>
		<path class="st1" d="M354.76,727.24c-0.42,0.77-0.84,1.53-1.26,2.3C355.06,729.4,356.44,729.16,354.76,727.24z"/>
		<path class="st5" d="M624.53,706.41c-16.58-25.51-85.05-28.74-96.45,0.43C543.65,714.6,599.16,714.43,624.53,706.41z"/>
		<path class="st9" d="M620.97,626.17c-6.96-5.25-15.42-4.6-23.36-5.75c-15.41-2.23-30.9-2.2-46.36-0.23
			c-4.69,0.6-9.13,1.99-13.44,3.88c6.06,11.85,16.78,17.25,29.02,19.32c14.98,2.54,29.6,0.24,43.75-5.62
			C616.22,635.45,619.79,632.1,620.97,626.17z"/>
		<path class="st1" d="M590.2,248.75c-11.61-0.08-20.37,8.08-20.28,18.9c0.08,9.45,8.63,16.8,19.57,16.85
			c12.2,0.05,20.01-6.97,20.05-18.01C609.59,256.63,601.08,248.83,590.2,248.75z"/>
		<g>
			<path class="st12" d="M480.64,766.62c0.14,0.08,0.29,0.17,0.43,0.25c-0.15-0.09-0.3-0.18-0.46-0.27
				C480.61,766.6,480.64,766.62,480.64,766.62z"/>
			<g>
				<path class="st14" d="M770.12,798.02c-1.05-13.22-1.09-26.36,3.03-39.06c1.3-4.01-1.15-3.25-3.08-3.3
					c-11.94-0.33-23.86-0.98-35.77-2.25c-9.96-1.06-19.47-4.08-29.13-6.5c-4.59,0.68-9.19,0.24-13.85,1.13
					c-17.46,3.34-34.32,9.31-51.47,14c-33.62,9.2-68.22,12.83-101.77,22.47c3.23,6.16,6.67,12.21,9.65,18.52
					c5.44,11.5-8.12,14.17-16.75,22.83c-5.9,5.92-19.51,8.59-25.37,1.92c-1.17-1.33,14.35,6.94,11.94,8.74
					c-3.4,2.54-26.8,29.95-29.16,35.16c9.73,1.4,19.24,3.1,28.82,4.1c35.56,3.73,71.08,2.26,106.58-1.26
					c1.03-0.1,2.02-0.77,3.02-1.17c-1.01-1.41-2.45-2.13-1.54-4.89c2.96-9.04,5.4-18.18,5.94-28.06c0.27-4.93-0.56-10.61,2.46-15.18
					c5.08-13.9,11.02-27.01,23.23-34.96c8.17-5.32,17.04-8.28,26.21-9.9c8.11-1.43,16.1,0.06,22.35,6.56
					c9.2,9.56,19.66,14.81,32.3,14.43c7.31-0.22,14.63-0.23,21.93-0.03C763.56,801.44,767.06,800.8,770.12,798.02z"/>
				<path class="st4" d="M770.12,798.02c-3.06,2.78-6.56,3.42-10.42,3.31c-7.31-0.2-14.63-0.19-21.93,0.03
					c-12.63,0.39-23.09-4.86-32.3-14.43c-6.26-6.5-14.24-7.99-22.35-6.56c-9.17,1.61-18.04,4.58-26.21,9.9
					c-12.21,7.95-18.15,21.06-23.23,34.96c11.04-5.88,22.64-8.28,34.83-9.7c16.58-1.94,32.01,0.55,46.63,9.11
					c11.08,6.48,21.49,14.88,34.3,16.27c8.74,0.95,17.65,2.75,26.34-0.82c-0.06-0.95-0.11-1.9-0.17-2.86
					c-0.84-0.6-0.7-1.15,0.07-1.67C775.13,822.8,771.44,810.63,770.12,798.02z"/>
				<path class="st10" d="M485.03,772.22c55.84-1.58,112.24-9.76,167.69-9.99c-20.93-26.65-50.43-10.61-75.53-14.03
					c-26.24,5.69-57.34-2.98-86.36-3.39c-16.85-3.23-58.33-25.49-43.27,12.8C468.33,741.11,477,747.76,485.03,772.22z"/>
				<path class="st11" d="M496.63,794.82c68.6-11.89,141.14-31.28,209.57-41.76c-32.05-22.32-69.53-0.18-101.33,1.11
					c-31.09,10.45-71.52,7.69-107.45,12.65c-21.56-0.06-77.97-14.26-50.46,20.58C468.77,767.34,481.02,772.27,496.63,794.82z"/>
				<path class="st11" d="M492.76,732.22c-11.86,0.65-3.64-1.09-15.03-2.15c-3.4-0.32-4.9-0.49-6.52,2.08
					c-15.87,25.21-38.5,49.28-42.2,76.46c-1.36,9.95-3.46,20.47-7.13,30.46c-4.02,10.97-3.67,11.84,10.14,16.01
					c13.11,3.96,27.36,5.03,42.47,3.03c10.8-1.42,14.81-6.06,8.86-11.49c-7.8-7.12-12.39-13.92-4.59-23.73
					c2.23-2.8-1.8-3.97-5.69-4.42c-20.39-9.69-25.43-12.42-15.94-26.08c8.36-12.03,13.32-24.77,22.11-36.84
					c8.06-11.08,17.16-13.27,14.81-11.37c2.52-0.92,1.94-6.47-2.35-7.27C489.62,736.51,493.22,733.7,492.76,732.22z"/>
				<path class="st11" d="M775.77,840.08c-8.69,3.57-17.6,1.77-26.34,0.82c-12.81-1.39-23.23-9.79-34.3-16.27
					c-14.62-8.56-30.05-11.05-46.63-9.11c-12.19,1.43-23.79,3.83-34.83,9.7c-3.02,4.56-2.19,10.25-2.46,15.18
					c-0.55,9.88-2.98,19.02-5.94,28.06c-0.9,2.76,0.53,3.48,1.54,4.89c7.98,0.3,9.11-6.72,10.28-12.96
					c1.37-7.34,3.65-14.4,6.84-20.67c4.73-9.29,13.71-10.88,22.08-9.81c11.08,1.41,22.11,0.91,33.15,1.22
					c8.23,0.23,15.57,2.47,21.98,8.68c4.82,4.67,11.04,5.69,17.14,7.09c9.94,2.29,19.82,4.99,30.01,5.18
					C779.19,852.29,779.32,851.9,775.77,840.08z"/>
				<path class="st2" d="M477.05,786.21c0.17,2.03-0.75,3.71-1.68,5.41c-1.07,1.96-2.36,3.95,1.44,4.59
					c3.41,0.57,3.74,4.06,5.36,6.32c1.64,2.29,3.02,5.57,6.57,4.37c3.05-1.03,5.37-3.49,5.41-6.99c0.06-4.8,0.19-9.68-0.6-14.37
					c-0.71-4.25-0.19-7.75,3.12-10.37c3.18-2.52,2.42-4.67,0.19-7.17c-9.92-11.12-13.12-9.6-17.42-1.84
					c0.18,0.11,0.36,0.21,0.54,0.32c-0.17-0.1-0.34-0.2-0.51-0.3c-0.42,0.01-0.7,0.2-0.84,0.59
					C476.91,773.15,475.78,779.58,477.05,786.21z"/>
				<path class="st12" d="M476.58,785.44c-0.52-6.85,1.37-13.23,3.87-19.49C471.56,773.06,471.16,775.1,476.58,785.44z"/>
				<path class="st10" d="M505.52,783.47c-0.53,0.18-1.06,0.36-1.59,0.54c0.11,0.15,0.3,0.45,0.32,0.44
					c0.46-0.27,0.91-0.57,1.36-0.87C505.61,783.58,505.52,783.47,505.52,783.47z"/>
				<path class="st6" d="M463.75,830.65c0.93,15.73,12.1,18.12,21,13.9c8.9-4.23,10.65-19.19,3.89-33.43
					c-6.76-14.24-19.45-22.35-28.35-18.13C451.39,797.22,462.85,815.55,463.75,830.65z"/>
			</g>
		</g>
		<g>
			<path class="st1" d="M890.78,753.01c-3.04-0.14-4.5,1.57-4.88,4.34c-2.36,17.56-15.96,20.06-29.16,18.52
				c-6.88-0.8-13.59-2.56-19.38-6.77c-1.11-0.8-2.35-1.71-3.93-1.18c-1.12,10.78,2.05,15.98,11.57,19.93
				c9.9,4.11,19.38,3.99,28.55-1.87c3.84-1.64,6.23-4.63,8.51-8.07C887.11,770.29,889.34,761.82,890.78,753.01z"/>
			<path class="st12" d="M886.98,749.46c-1.77,10.89-4.53,21.36-10.78,30.77c-2.82,4.25-5.78,7.94-10.52,9.97
				c4.06,0.57,3.05,3.8,3.15,6.29c0.11,2.7-1.77,3.82-4.12,4.38c-1.62,0.38-3.52-0.06-4.73,1.57c1.82,0.33,3.64,0.67,5.46,1
				c17.17-8.33,32.04-18.74,37.89-38.42c3.23-10.86,0.85-20.61-3.7-31.17C895.06,739.49,891.02,744.48,886.98,749.46z"/>
			<path class="st1" d="M851.13,796.96c-10.22-3.14-21.53-3.42-28.61-15.06c-0.24,0.25-0.82,0.57-0.98,1.08
				c-5.11,15.77-5.12,15.83,8.11,20.3c3.92,1.32,7.95,2.2,11.93,3.28c4.43-3.12,10.03,1.63,14.26-3.31
				C855.04,800.31,851.11,800.73,851.13,796.96z"/>
			<path class="st8" d="M846.89,797.61c0.11,2.72,3.49,2.3,4.29,4.4c-3.49,3.67-8.49,0.41-12.21,2.78
				c12.99,3.61,24.33,0.17,34.57-8.04c-1.62-0.3-3.23-0.59-4.85-0.89C861.47,797.09,854.19,797.55,846.89,797.61z"/>
			<path class="st12" d="M878.48,745.51c0.17-0.1,0.33-0.2,0.5-0.31c-0.17,0.1-0.34,0.19-0.52,0.29L878.48,745.51z"/>
			<path class="st6" d="M860.11,695.39c-14.15,24.5-17.75,59.12-4.26,56.69c13.63-2.45,32.82-7.53,46.97-32.04
				c14.15-24.5,17.96-55.86,4.26-56.69C884.7,661.99,874.25,670.89,860.11,695.39z"/>
			<path class="st12" d="M873.69,747.82c0.02-0.34,0.04-0.68,0.08-1.02l-0.02-0.02c-42.74,10.3,29.15-62.97,13.07-72.71
				c-7.08-3.97-10.84,10.06-18.12,7.32c-18.37,14.67-25.36,36.95-28.94,59.51C842.11,754.35,863.9,751.97,873.69,747.82z"/>
		</g>
		<g>
			<path class="st7" d="M75.29,856.58c-4.2,18.89,9.68,40.91,81.78,56.95c72.1,16.04,136.43,7.76,140.63-11.12
				c3.58-16.09-22-21.11-76.02-32.54c-9.4-1.99,7-27.65-18.71-38.66c-38.53-16.51-43.48,21.21-53.1,19.11
				C99.42,839.33,78.82,840.71,75.29,856.58z"/>
			<path class="st2" d="M165.52,849.38c-12.42,30.61,55.68,21.72,32.62-1.68C180.06,829.33,174.56,827.13,165.52,849.38z"/>
			<path class="st2" d="M101.54,890.4c44.8,33.46,238.44,22.74,98-5.1c-19.62,3.75-43.57-5.79-58.2-19.72
				c-21.48,7.73-44.47-9.04-60.64-8.85C74.42,871.64,90.52,883.36,101.54,890.4z"/>
		</g>
		<g>
			<path class="st15" d="M69.04,701.27c30.76,24.19,74.47,22.62,110.39,21.49c4.43,53.63-14.88,148.5-88.47,113.51
				c-10.93-5.2-12.23-6.18-17.11,4.48c-42.07,91.87,198.77,124.04,231.77,72.03c31.03-48.9-59.71-26.45-74.91-56.05
				c-19.73-38.43-18.45-82.67-11.58-127.22c0.05-1.73-1.08-4.74,2.74-3.47c12.26,6.58,32.36-4.05,39.51,9.67
				c23.45,64.29,88.88,99.63,144.1,115.66c-6.86,46.79-6.09,94.99,1.22,141.82c-25.73,14.27-178.38,23.1-55.14,52.75
				c52.05,16.54,493.54,39.8,457.51-29.1c-38.78-21.2-96.26-8.43-129.85-26.32c-15.01-98.75-83.87-196.92,74.25-134.6
				c53.32,10.61,48.81,8.46,23.76,52.87c-24.37,45.35,50.47,63.37,66.91,23.72c29.83-46.01,10.4-110.56,60.28-138.12
				c26.42-23.97,5.13-52.26,9.34-78.74c3.16-32.35,35.65-60.39,22.72-90.86c1.26-12.81,10.6-26.91,15.1-39.75
				c5.8-14.04,15.61-22.22,30.99-25.37c142.57-11.71,181.25-357.25,0.37-206.15c-60,49.47-60.8,126.03-61.25,194.21
				c-11.23,27.46-29.13,51.27-39.43,78.61c-15.54,20.46,8.87,33.13-21.65,46.26c0.8-208.2-11.99-379.24-204.72-494.65
				c-17.2-41.52-4.57-118.57-49.27-140c-44.13-21.15-36.99,103.59-60.93,139.51c-71.21,48.79-147.93,110.32-184.66,191.85
				c-41.16,44.86-13.55,124.67-32.78,178.35c-10.96-30.93-39.89-49.01-68.47-50.71c-8.65-18.51,14.26-29.64,24.79-13.33
				c4.97-13.93-9.17-25.17-21.66-20.57c-41.01,44.68-27.42,3.75-74.73,31.68c-4.8,3.9-11.06,2.06-13.17-3.76
				c-7.43-34.99-77.8-28.83-54.19,9.73c-50.55,19.35-13.9,31.39-28.97,51.19c-17.93,5.71-35.18,12.69-45.47,29.29
				C-7.9,607.23,34.8,675.62,69.04,701.27z M88.96,615.67c-21.4,9.1-45.81-25.85-23.6-41.65c8.97-3.37,26.49-18.18,31.52-3.66
				C120.25,591.67,96.75,594.32,88.96,615.67z M194.85,632.5c-1.76-4.37-17.79-25.95-7.83-20.97
				C194.33,615.39,210.46,645.72,194.85,632.5z M176.23,579.48c36.87,0.25,70.21,81.3,33.15,48.44
				C211.18,605.39,158.35,595.33,176.23,579.48z M98.88,618.68c43.64-69.13,54.7-59.59,86.63,11.46
				C188.15,643.49,109.75,623.86,98.88,618.68z M117.27,575.21c-35.33-20.73,34.47-63.28,23.77-17.64
				C137.79,566.16,120.56,562.02,117.27,575.21z M139.9,497.04c-21.32,3.97-11.48-26.92,17.18-13.28
				C167.7,493.84,146.01,494.16,139.9,497.04z M158.92,523.38c-13.66,6.47-32.27-1.29-46.15,10.29
				c-39.73-10.05,46.63-39.44,60.24-30.54C179.79,509.67,162.31,517.42,158.92,523.38z M312.11,541.5
				c-40.18-20.02-85.3,12.49-106.15,39.03c-14.87-12.81-37.8-12.57-52.25-18.68c0.55-34.7,45.02-70.19,80.57-65.41
				c10.13,1.68,10.22,1.25,10.3,11.57c9.44,21.52,24.5-11.51,48.67,10.29C300.32,525.27,306.53,532.94,312.11,541.5z M325.79,628.41
				c-26.31-24.28-69.37,27.07-88.45,0.51c0.14-16.29-11.25-27.98-18.26-39.67c15.41-32.5,51.32-48.18,86.63-38.56
				C360.33,555.38,349.7,639.04,325.79,628.41z M365.8,474.81c12.43,12.29,0.71,45.52,3.84,64.61
				c-2.12,29.46,17.69,87.2-25.18,92.08c33.25-49.1-26.51-81.88,20.84-69.1c0.72-13.43-24.6-5.93-20.51-21.35
				C354.31,522.17,338.2,474.2,365.8,474.81z M626.79,166.69c-17.27-5.44-52.27,9.07-60.53-2.41
				c19.71-120.46,42.45-159.43,69.18-7.11C637.28,167.47,637.47,167.42,626.79,166.69z M804.15,362.58
				c-134.73-35.35-280.67-37.61-416.41-8.59c45.09-87.18,183.46-228.32,289.7-146.87c15.51,6.85-2.99,9.14,2.44,15.74
				c55.5,25.8,100.17,72.14,121.13,130.58c-15.81-7.1-29.87-12.61-46.39-11.33C763.56,352,791.63,349.51,804.15,362.58z
				 M349.99,448.32c9.14-25.81-0.91-63.93,34.25-68.21c84.19-38.13,461.27-62.21,451.02,70.22
				C685.52,423.42,502.02,421.87,349.99,448.32z M400.42,467.72c65.42-10.34,131.7-16.38,198.09-13.9
				c65.76,2.79,133.32,7.42,196.49,24.46c72.62,260.19-215.95,330.64-393.23,204.49c-16.03-17.37,54.97-63.87-10.64-108.12
				C394.49,541.1,387.91,496.51,400.42,467.72z M434.75,724.12c-31.98,21.58-100.96-10.15-47.99-33.28
				C401.98,701.05,415.41,717.89,434.75,724.12z M834.88,714.82c-10.6-6.29-21.24-5.66-31.84,0.19
				c-4.23-16.84-27.65-6.61-14.02-26.58c33.54-49.16,24.58-112.08,27.83-170.5c0.63-11.32-10.62-45.52,4.73-39
				c22.89,9.73,13.8,64.32,19.42,93.65C849.46,616.73,857.12,676.69,834.88,714.82z M809.9,725.9c0.92-9.04,28.42-7.81,23.55,0.41
				c-6.98,7.54-0.8,20.12-11.19,24.39C812.43,769.15,804.44,734.24,809.9,725.9z M813.91,877.98c-2.94,1.39-12.32-8.51-7.48-10.81
				C822.41,859.08,827.56,865.44,813.91,877.98z M872.93,757.85c15.52,14.71-34.68,11.14-35.83-4.17
				C843.89,749.82,860.78,763.96,872.93,757.85z M901.87,611.77c17.2-26.25,31.4-51.79,37.31-82.98
				c-17.13-77.2,29.27-181.75,115.64-201.26c73.55,5.61,31.23,118.86,6.98,158.11c-21.17,51.04-76.85,51.07-113.42,79.54
				C928.15,591.34,941.45,620.76,901.87,611.77z M888.35,645.59c2.29-21.83,28.09-21.64,40.7-7.83
				C934.67,658.59,893.6,657.47,888.35,645.59z M844.48,739.61c0.94-31.47,44.79-98.23,69.64-69.28
				C924.01,681.86,882.79,779.7,844.48,739.61z M826.05,788.29c5.93,11.68,59.6,13.95,47.5-2.3c-14.43,9.98-43.9,3.58-40.13-18.08
				c16.86,8.15,47.71,17.98,52.48-10.57c32.21-40.64,20.09,35.69-12.57,39.35C863.82,808.36,814.01,809.96,826.05,788.29z
				 M806.13,888.76c19.19,16.23,39.2-12.16,28.59-30.35c-6.08-20.93-22.15-50.26,13.07-36.53c17.77,0.44-1.63,79.32-13.37,89.34
				c-3.15,29.32-58.83,39.61-45.6,2.17C794.39,907.19,799.81,888.35,806.13,888.76z M810.88,771.27
				c-0.72,23.82-2.2,52.37,6.91,77.15c-18.49,28.37-42.41-24.83-39.76-44.17C769.15,780.75,787.15,747.27,810.88,771.27z
				 M728.85,745.25c26.82-13.84,74.29-50.88,61.57,2.6C770.52,746.31,750.58,745.61,728.85,745.25z M630.94,857.28
				c-34.41,1.35-171.81,20.81-100.67-30.08c56.25,28.5,19.22-91.9-18.46-48.07c-14.31,17.29,4.15-26.67-17-25.04
				c-22.37-13.88-63.13,48.29-36.38,60.05c6.6,5.42-5.67,16.49,3.06,24.85c5.2,16.18-23.34,5.39-29.12-0.17
				c-14.43-16.11,21.11-86.32,36.86-97.5c57.29,15.96,119.62,21.04,176.06,10.35c39.54-15.3,76.55,14.04,117.64,9.46
				c10.62,126.56,5.78,64.85-95.88,60.67C639.55,814.64,648.23,852.32,630.94,857.28z M672.48,1015.91
				c7.75-4.85,9.54-3.93,10.73,5.26c5.41,31.02-62.08,40.91-62.38,6.88C625.25,1010.56,658.88,1023.27,672.48,1015.91z
				 M507.54,991.2c15.65-34.67,41.5,2.17,60.43,12.71C552.22,998.72,490.39,1013.22,507.54,991.2z M478.38,792.11
				c-3.22-0.54-2.14-2.22-1.22-3.87c3.51-9.09-8.51-13.32,2.76-21.11c4.47-6.3,6.4-9.19,15.47,1.03c1.9,2.14,2.55,3.96-0.16,6.1
				c-5.85,5.14-0.79,14.15-2.14,21C489.56,808.49,483.1,796.2,478.38,792.11z M475.51,818.85c-3.19-2.02-3.58,4.25-5.58,5.64
				c-3.1,4.67-8.53,2.03-4.31-2.49c8.02-9.77-12.84-10.42-6.42-20.06c9.57-12.56,21.78,13.31,30.19,18.32
				c0.44,7.45-10.69,13.22-15.42,18.75C453.37,837.38,487.71,826.61,475.51,818.85z M364.67,778.8
				c17.69-7.96,14.88-38.84,36.7-34.44c9.57,4.4-1.68,22.55,10.78,26.48c4.19-7.8-1.1-28.87,11.6-26.53
				c6.71,2.48,22.52,3.01,22.51,11.62c-37.7,71.72-17.09,100.32-107.63,49.62C317.22,798.45,360.99,788.58,364.67,778.8z
				 M289.81,725.36c5.4,31.47,45.12,20.96,61.65,4.22c62.06-23.44-19.95,127.09-73.54,3.1
				C270.58,724.08,285.98,722.05,289.81,725.36z M303.22,721.54c0.02-13.76,30.75-7.1,41.41-16.01
				C344.71,721.97,308.92,746.94,303.22,721.54z M180.68,831.59c57.84,8.76,7.39,32.63,42.22,42.48
				c146.87,41.49-59.98,48.51-117.23,12.5c-10.43-6.56-39.4-40.15-20.24-37.69c31.77,4.08,51.11,8.45,77.74,25.74
				c10.28,6.68,27.25,5.46,33.47,2.22c12.03-6.25-66.19,3.53-25.61-43.06C173.53,830.31,178.03,831.19,180.68,831.59z
				 M198.92,714.93c6.29,0.38,3.41,5.09,3.15,7.75c-5.4,30.92-1.86,65.77-5.86,94.95c-18.03,3.29-0.4-61.75-2.11-77.18
				C195.06,734.75,191.5,702.64,198.92,714.93z M65.22,623.56c72.28,19.6,153.67,34.96,226.51,12.69
				c30.91-11.22,49.24,22.67,88.48-5.03c16.6-7.22-1.56-31.74,7.94-44.43C502.7,700.28,43.43,705.75,37.39,620.41
				C35.89,593.07,51.35,623.02,65.22,623.56z"/>
		</g>
		<path class="st6" d="M421.77,1013.01c11.2,3.77,22.65,7.53,34.77,6.51c10.93-0.28,10.93-0.11,10.82,11.06
			c-0.08,7.72-1.3,9.29-8.63,10.72c-16.74,4.41-53.92,5.92-44.87-20.76C414.97,1014.59,415.74,1011.81,421.77,1013.01z"/>
	</g>
	<path class="st6" d="M452.51,927.53c-0.98,6.97,2.29,7.89,6.3,10.39c23.16,18.6,156.75,28.51,186.29,16.89
		c10.32-3.55,20.68-6.68,30.06-13.36c-28.12,4.84-56.34,3.48-84.53,3.64c-40.66-4.65-81.19-10.03-120.17-25.48
		c-4.95-1.96-9.36-5.76-14.84-5.93C451.74,917.5,453.19,922.69,452.51,927.53z"/>
	<path class="st6" d="M458.95,897.17c-1.05,3.08,2.02,3.66,5.76,4.98c21.53,9.51,147.38,20.61,175.46,16.86
		c9.8-1.08,19.63-1.97,28.6-4.5c-26.61,0.77-53.22-1.24-79.81-2.58c-38.27-4.11-76.42-8.55-112.93-17.43
		c-4.64-1.13-8.73-3.06-13.89-3.4C458.4,892.62,459.67,895.03,458.95,897.17z"/>
</g>
</svg>
